<svg width="24" height="24" viewBox="0 0 24 24" fill="none" xmlns="http://www.w3.org/2000/svg">
    <rect width="24" height="24" rx="12" fill="#018E37" />
    <path fill-rule="evenodd" clip-rule="evenodd"
        d="M13.5 5.49971C13.5 5.39303 13.4658 5.28917 13.4025 5.20331C13.3392 5.11745 13.2501 5.05408 13.1482 5.02246C13.0463 4.99085 12.937 4.99265 12.8362 5.02759C12.7354 5.06254 12.6485 5.12881 12.588 5.21671L7.08804 13.2167C7.0365 13.2918 7.00644 13.3795 7.0011 13.4704C6.99577 13.5613 7.01536 13.6519 7.05776 13.7325C7.10016 13.8131 7.16377 13.8806 7.24171 13.9277C7.31966 13.9748 7.40898 13.9997 7.50004 13.9997H10.5V18.4997C10.5001 18.6064 10.5343 18.7102 10.5976 18.7961C10.6609 18.882 10.75 18.9453 10.8519 18.9769C10.9537 19.0086 11.0631 19.0068 11.1638 18.9718C11.2646 18.9369 11.3516 18.8706 11.412 18.7827L16.912 10.7827C16.9636 10.7076 16.9936 10.6199 16.999 10.529C17.0043 10.4381 16.9847 10.3475 16.9423 10.2669C16.8999 10.1863 16.8363 10.1188 16.7584 10.0717C16.6804 10.0246 16.5911 9.99974 16.5 9.99971H13.5V5.49971Z"
        fill="white" />
</svg>
    