<svg width="22" height="32" viewBox="0 0 22 32" fill="none" xmlns="http://www.w3.org/2000/svg">
    <path fill-rule="evenodd" clip-rule="evenodd"
        d="M4.26267 29.9083C5.82957 31.0778 7.69111 31.7881 9.63882 31.9595C11.5865 32.1308 13.5435 31.7566 15.2906 30.8787C17.0376 30.0008 18.5058 28.6539 19.5306 26.9888C20.5555 25.3237 21.0966 23.4061 21.0933 21.4509C21.0933 21.4341 21.0903 21.4176 21.0903 21.4009C20.6481 18.2048 19.404 16.5183 18.2041 14.8874C16.8362 13.0301 15.545 11.276 15.2472 7.33583C15.2418 7.26381 15.2158 7.19488 15.1722 7.13731C15.1285 7.07975 15.0692 7.03601 15.0013 7.01135C14.9335 6.98669 14.8599 6.98217 14.7895 6.99831C14.7191 7.01446 14.6549 7.0506 14.6045 7.10238C12.9556 8.78509 11.7888 10.8797 11.226 13.1675C10.7131 11.6448 10.3324 9.6516 10.2119 7.74388C10.0202 4.76974 10.4448 2.21934 11.3999 0.562516C11.4417 0.491185 11.4585 0.408004 11.4479 0.326045C11.4372 0.244085 11.3996 0.167993 11.341 0.109724C11.2823 0.0514067 11.2061 0.0139842 11.1241 0.00321315C11.0421 -0.00755789 10.9588 0.00891919 10.887 0.0501097C7.41122 2.05724 4.20369 6.20073 2.08995 11.4185C0.0616337 16.4159 -0.533882 21.3488 0.494992 24.6147C1.167 26.7295 2.48458 28.5807 4.26267 29.9083ZM14.3421 23.5201C14.3414 23.4705 14.3506 23.4213 14.3692 23.3753C14.3877 23.3294 14.4152 23.2875 14.45 23.2522C14.4848 23.2169 14.5263 23.1889 14.5721 23.1698C14.6178 23.1507 14.6669 23.1408 14.7165 23.1408C14.7661 23.1408 14.8151 23.1507 14.8609 23.1698C14.9066 23.1889 14.9481 23.2169 14.9829 23.2522C15.0178 23.2875 15.0452 23.3294 15.0638 23.3753C15.0823 23.4213 15.0915 23.4705 15.0909 23.5201V26.594H17.1517C17.2511 26.594 17.3465 26.6336 17.4168 26.7039C17.4871 26.7742 17.5266 26.8695 17.5266 26.969C17.5266 27.0684 17.4871 27.1638 17.4168 27.2341C17.3465 27.3044 17.2511 27.3439 17.1517 27.3439H14.7166C14.6172 27.3438 14.522 27.3042 14.4518 27.2339C14.3816 27.1636 14.3421 27.0683 14.3421 26.969V23.5201H14.3421ZM12.3549 24.6277L12.7117 25.6713H11.9984L12.3551 24.6277H12.3549ZM12.0012 23.3491C12.0258 23.2749 12.0733 23.2104 12.1368 23.1649C12.2004 23.1193 12.2767 23.095 12.3549 23.0956C12.4329 23.0959 12.5089 23.1205 12.5723 23.1659C12.6357 23.2113 12.6834 23.2754 12.7087 23.3491L13.9233 26.8974C13.9398 26.944 13.9468 26.9934 13.944 27.0427C13.9413 27.092 13.9288 27.1402 13.9073 27.1847C13.8858 27.2291 13.8557 27.2689 13.8187 27.3017C13.7818 27.3344 13.7387 27.3595 13.692 27.3756C13.6453 27.3916 13.5959 27.3982 13.5466 27.3951C13.4973 27.3919 13.4492 27.379 13.4049 27.3572C13.3606 27.3353 13.3211 27.3049 13.2887 27.2676C13.2562 27.2304 13.2314 27.1872 13.2158 27.1403L12.9681 26.421H11.7419L11.4943 27.1403C11.4689 27.214 11.4212 27.278 11.3578 27.3235C11.2944 27.3689 11.2185 27.3935 11.1405 27.3939C11.0994 27.3942 11.0585 27.3873 11.0197 27.3735C10.9255 27.3414 10.8478 27.2733 10.8036 27.1841C10.7594 27.0949 10.7523 26.9919 10.7838 26.8974L12.0014 23.3491H12.0012ZM7.15158 23.4779C7.15158 23.3786 7.19101 23.2833 7.26122 23.213C7.33142 23.1427 7.42666 23.1031 7.52601 23.103H10.026C10.1254 23.103 10.2208 23.1425 10.2911 23.2128C10.3614 23.2831 10.4009 23.3785 10.4009 23.4779C10.4009 23.5774 10.3614 23.6727 10.2911 23.743C10.2208 23.8134 10.1254 23.8529 10.026 23.8529H7.90057V24.8697H10.0262C10.1256 24.8697 10.221 24.9092 10.2913 24.9795C10.3616 25.0498 10.4011 25.1452 10.4011 25.2446C10.4011 25.344 10.3616 25.4394 10.2913 25.5097C10.221 25.58 10.1256 25.6195 10.0262 25.6195H7.90057V26.6365H10.0262C10.1256 26.6365 10.221 26.676 10.2913 26.7463C10.3616 26.8166 10.4011 26.912 10.4011 27.0114C10.4011 27.1108 10.3616 27.2062 10.2913 27.2765C10.221 27.3468 10.1256 27.3863 10.0262 27.3863H7.5262C7.42685 27.3862 7.33161 27.3466 7.26141 27.2764C7.1912 27.2061 7.15177 27.1108 7.15177 27.0114V23.4779H7.15158ZM6.82433 24.7229V25.7665C6.82362 26.1978 6.65193 26.6113 6.3469 26.9163C6.04186 27.2213 5.62836 27.3929 5.197 27.3935H3.94411C3.84476 27.3934 3.74952 27.3538 3.67931 27.2835C3.60911 27.2132 3.56968 27.1179 3.56968 27.0186V23.4708C3.56968 23.3715 3.60911 23.2762 3.67931 23.2059C3.74952 23.1356 3.84476 23.096 3.94411 23.0959H5.197C5.62839 23.0965 6.04193 23.2682 6.34697 23.5732C6.65201 23.8783 6.82367 24.2918 6.82433 24.7232V24.7229ZM5.197 23.8453C5.42974 23.8456 5.65288 23.9381 5.81754 24.1026C5.9822 24.2671 6.07497 24.4902 6.07553 24.7229V25.7665C6.07495 25.9992 5.98217 26.2222 5.81751 26.3866C5.65285 26.5511 5.42972 26.6436 5.197 26.6439H4.31866V23.8453H5.197ZM8.56076 21.6133C8.5614 21.6628 8.55219 21.7121 8.53366 21.758C8.51513 21.804 8.48766 21.8459 8.45283 21.8812C8.418 21.9164 8.37651 21.9445 8.33077 21.9636C8.28502 21.9827 8.23594 21.9925 8.18636 21.9925C8.13678 21.9925 8.0877 21.9827 8.04195 21.9636C7.99621 21.9445 7.95472 21.9164 7.91989 21.8812C7.88506 21.8459 7.85759 21.804 7.83906 21.758C7.82053 21.7121 7.81132 21.6628 7.81196 21.6133V20.2635H6.12583V21.6133C6.12647 21.6628 6.11726 21.7121 6.09873 21.758C6.08021 21.804 6.05273 21.8459 6.0179 21.8812C5.98307 21.9164 5.94158 21.9445 5.89584 21.9636C5.8501 21.9827 5.80101 21.9925 5.75143 21.9925C5.70185 21.9925 5.65277 21.9827 5.60703 21.9636C5.56129 21.9445 5.51979 21.9164 5.48496 21.8812C5.45013 21.8459 5.42266 21.804 5.40413 21.758C5.3856 21.7121 5.37639 21.6628 5.37703 21.6133V18.1643C5.37639 18.1148 5.3856 18.0656 5.40413 18.0196C5.42266 17.9736 5.45013 17.9317 5.48496 17.8965C5.51979 17.8612 5.56129 17.8332 5.60703 17.814C5.65277 17.7949 5.70185 17.7851 5.75143 17.7851C5.80101 17.7851 5.8501 17.7949 5.89584 17.814C5.94158 17.8332 5.98307 17.8612 6.0179 17.8965C6.05273 17.9317 6.08021 17.9736 6.09873 18.0196C6.11726 18.0656 6.12647 18.1148 6.12583 18.1643V19.5141H7.81215V18.1643C7.81151 18.1148 7.82072 18.0656 7.83925 18.0196C7.85777 17.9736 7.88525 17.9317 7.92008 17.8965C7.95491 17.8612 7.9964 17.8332 8.04214 17.814C8.08789 17.7949 8.13697 17.7851 8.18655 17.7851C8.23613 17.7851 8.28521 17.7949 8.33095 17.814C8.3767 17.8332 8.41819 17.8612 8.45302 17.8965C8.48785 17.9317 8.51532 17.9736 8.53385 18.0196C8.55238 18.0656 8.56159 18.1148 8.56095 18.1643V21.6133H8.56076ZM10.6952 22.0378C10.2636 22.0377 9.8498 21.8661 9.54465 21.561C9.2395 21.2558 9.068 20.842 9.06786 20.4104V19.3669C9.06653 19.1525 9.1076 18.94 9.18871 18.7416C9.26982 18.5432 9.38937 18.3627 9.54048 18.2107C9.69158 18.0586 9.87127 17.938 10.0692 17.8556C10.2671 17.7733 10.4793 17.7309 10.6937 17.7309C10.9081 17.7309 11.1203 17.7733 11.3182 17.8556C11.5162 17.938 11.6958 18.0586 11.8469 18.2107C11.9981 18.3627 12.1176 18.5432 12.1987 18.7416C12.2798 18.94 12.3209 19.1525 12.3196 19.3669V20.4104C12.3196 20.8416 12.1485 21.2551 11.8439 21.5602C11.5393 21.8654 11.126 22.0371 10.6949 22.0378H10.6952ZM11.5708 20.4104C11.5717 20.5262 11.5498 20.6411 11.5061 20.7483C11.4625 20.8556 11.3981 20.9532 11.3165 21.0354C11.235 21.1176 11.138 21.1829 11.0311 21.2275C10.9242 21.272 10.8095 21.2949 10.6937 21.2949C10.5779 21.2949 10.4633 21.272 10.3564 21.2275C10.2495 21.1829 10.1524 21.1176 10.0709 21.0354C9.98937 20.9532 9.92492 20.8556 9.88128 20.7483C9.83764 20.6411 9.81568 20.5262 9.81665 20.4104V19.3669C9.81568 19.2511 9.83764 19.1362 9.88128 19.029C9.92492 18.9217 9.98937 18.8241 10.0709 18.7419C10.1524 18.6597 10.2495 18.5944 10.3564 18.5499C10.4633 18.5053 10.5779 18.4824 10.6937 18.4824C10.8095 18.4824 10.9242 18.5053 11.0311 18.5499C11.138 18.5944 11.235 18.6597 11.3165 18.7419C11.3981 18.8241 11.4625 18.9217 11.5061 19.029C11.5498 19.1362 11.5717 19.2511 11.5708 19.3669V20.4104ZM13.7523 18.5393H12.9094C12.81 18.5393 12.7146 18.4998 12.6443 18.4295C12.574 18.3592 12.5345 18.2638 12.5345 18.1644C12.5345 18.065 12.574 17.9696 12.6443 17.8993C12.7146 17.829 12.81 17.7895 12.9094 17.7895H15.3445C15.444 17.7895 15.5393 17.829 15.6096 17.8993C15.6799 17.9696 15.7194 18.065 15.7194 18.1644C15.7194 18.2638 15.6799 18.3592 15.6096 18.4295C15.5393 18.4998 15.444 18.5393 15.3445 18.5393H14.5014V21.6133C14.5014 21.6624 14.4917 21.7111 14.4729 21.7566C14.454 21.802 14.4265 21.8433 14.3917 21.878C14.3569 21.9128 14.3156 21.9404 14.2702 21.9592C14.2248 21.978 14.1761 21.9877 14.1269 21.9877C14.0778 21.9877 14.0291 21.978 13.9836 21.9592C13.9382 21.9404 13.8969 21.9128 13.8622 21.878C13.8274 21.8433 13.7998 21.802 13.781 21.7566C13.7622 21.7111 13.7525 21.6624 13.7525 21.6133L13.7523 18.5393Z"
        fill="#ED1C24" />
</svg>
    