<svg width="28" height="28" viewBox="0 0 28 28" fill="none" xmlns="http://www.w3.org/2000/svg">
    <g clip-path="url(#clip0_1_2559)">
        <path
            d="M15.5325 1.46205L18.788 8.35332L26.068 9.45838C26.3897 9.51972 26.6887 9.66736 26.933 9.88549C27.1773 10.1036 27.3577 10.3841 27.455 10.6968C27.5522 11.0095 27.5627 11.3428 27.4851 11.6611C27.4076 11.9793 27.2451 12.2704 27.0148 12.5034L21.7466 17.8677L22.9903 25.4422C23.0555 25.761 23.0292 26.0917 22.9146 26.3962C22.8 26.7007 22.6017 26.9667 22.3425 27.1634C22.0833 27.3601 21.7738 27.4796 21.4497 27.508C21.1255 27.5365 20.7999 27.4728 20.5104 27.3242L14 23.7482L7.48858 27.3242C7.19908 27.4728 6.8735 27.5365 6.54936 27.508C6.22523 27.4796 5.91574 27.3601 5.65655 27.1634C5.39736 26.9667 5.19903 26.7007 5.08441 26.3962C4.96979 26.0917 4.94355 25.761 5.00871 25.4422L6.25331 17.8677L0.984645 12.5034C0.754443 12.2704 0.591889 11.9793 0.514363 11.6611C0.436838 11.3428 0.447258 11.0095 0.544509 10.6968C0.641759 10.3841 0.822183 10.1036 1.06649 9.88549C1.31079 9.66736 1.60979 9.51972 1.93151 9.45838L9.21198 8.35332L12.4674 1.46205C12.6001 1.16662 12.8154 0.915834 13.0873 0.739889C13.3592 0.563944 13.6761 0.470337 14 0.470337C14.3238 0.470337 14.6408 0.563944 14.9127 0.739889C15.1846 0.915834 15.3998 1.16662 15.5325 1.46205Z"
            fill="#F4BC2F" />
        <path
            d="M12.1333 19.1334C12.0095 19.1334 11.8908 19.0842 11.8033 18.9967L10.4033 17.5967C10.3183 17.5086 10.2713 17.3908 10.2724 17.2684C10.2734 17.146 10.3225 17.029 10.409 16.9425C10.4955 16.8559 10.6126 16.8069 10.735 16.8058C10.8573 16.8047 10.9752 16.8518 11.0632 16.9368L12.0899 17.9635L16.8965 11.8436C16.934 11.7943 16.9809 11.7529 17.0345 11.7219C17.0882 11.6909 17.1474 11.6708 17.2088 11.663C17.2703 11.6551 17.3327 11.6595 17.3924 11.676C17.4521 11.6925 17.5079 11.7207 17.5566 11.759C17.6053 11.7973 17.6459 11.8449 17.676 11.899C17.7061 11.9531 17.7251 12.0127 17.732 12.0743C17.7388 12.1358 17.7333 12.1981 17.7159 12.2576C17.6984 12.317 17.6692 12.3723 17.6301 12.4204L12.4968 18.9537C12.4561 19.0055 12.4048 19.0481 12.3464 19.0787C12.288 19.1092 12.2238 19.1271 12.158 19.1311L12.1333 19.1334Z"
            fill="white" />
    </g>
    <defs>
        <clipPath id="clip0_1_2559">
            <rect width="28" height="28" fill="white" />
        </clipPath>
    </defs>
</svg>
    