<svg width="18" height="14" viewBox="0 0 18 14" fill="none" xmlns="http://www.w3.org/2000/svg">
<path fill-rule="evenodd" clip-rule="evenodd" d="M1.72578 0.48999H16.274C16.5212 0.490468 16.7645 0.551099 16.983 0.666648C17.2015 0.782197 17.3886 0.949192 17.5281 1.15321L10.2555 6.3105C9.88805 6.5702 9.44912 6.70964 8.99914 6.70964C8.54916 6.70964 8.11023 6.5702 7.74275 6.3105L0.469388 1.15321C0.609132 0.948874 0.796583 0.781681 1.01551 0.666116C1.23443 0.550551 1.47823 0.490097 1.72578 0.48999ZM8.99952 7.79676C9.67504 7.79676 10.3339 7.58714 10.8852 7.19682L17.7969 2.29689V11.9871C17.7969 12.391 17.6365 12.7783 17.3509 13.0639C17.0653 13.3495 16.6779 13.51 16.274 13.51H1.72578C1.32188 13.51 0.934526 13.3495 0.648927 13.0639C0.363329 12.7783 0.202881 12.391 0.202881 11.9871V2.29689L7.11379 7.19682C7.66513 7.58714 8.324 7.79676 8.99952 7.79676Z" fill="white"/>
</svg>
