<svg width="22" height="26" viewBox="0 0 22 26" fill="none" xmlns="http://www.w3.org/2000/svg">
<path d="M21.4001 15.6591C21.4001 21.3702 16.7439 26 11.0001 26C5.25636 26 0.60013 21.3702 0.60013 15.6591C0.594427 13.4021 1.34026 11.2068 2.72124 9.41554C3.29775 8.60916 3.99769 7.89752 4.79563 7.30648C5.118 7.08121 5.54784 7.08121 5.8702 7.30648C6.19737 7.54414 6.33322 7.96438 6.20659 8.34707C5.88762 9.56558 5.88762 10.845 6.20659 12.0635C6.51196 13.0502 7.44926 13.7072 8.48655 13.6615C8.91195 13.6677 9.31858 13.4877 9.5985 13.1691C9.85773 12.6122 9.85773 11.9701 9.5985 11.4131C6.79527 1.87124 10.2806 0.26389 10.6918 0.0594879C10.9887 -0.05156 11.322 -0.00523044 11.5769 0.182523C11.8318 0.370276 11.9735 0.673805 11.9532 0.988589C11.8037 2.59593 11.6822 3.8688 14.4294 5.56906L14.5882 5.65268C20.2227 8.61651 21.4001 12.7324 21.4001 15.6591Z" fill="#FB6F6F"/>
</svg>
