<svg width="25" height="24" viewBox="0 0 25 24" fill="none" xmlns="http://www.w3.org/2000/svg">
<path d="M19.5942 12.5331H22.3733C22.9801 12.5284 22.9801 11.6114 22.3733 11.6068H19.5942C18.9875 11.6114 18.9875 12.5284 19.5942 12.5331Z" fill="black"/>
<path d="M19.1328 8.82759C19.2532 8.82759 19.369 8.78127 19.4616 8.69327L20.8512 7.30379C21.0318 7.12316 21.0318 6.83137 20.8512 6.65073C20.6705 6.4701 20.3787 6.4701 20.1981 6.65073L18.8086 8.04022C18.5121 8.31348 18.7345 8.84149 19.1328 8.82759Z" fill="black"/>
<path d="M20.1903 17.4935C20.621 17.9196 21.2741 17.2666 20.8434 16.8404L19.4538 15.451C19.2732 15.2703 18.9814 15.2703 18.8008 15.451C18.6201 15.6316 18.6201 15.9234 18.8008 16.104L20.1903 17.4935Z" fill="black"/>
<path d="M13.2377 18.2576C13.3998 18.4105 14.4002 19.6147 14.5994 19.6981C15.498 20.3419 16.8458 19.6286 16.8134 18.517V5.6226C16.8458 4.50175 15.4748 3.78848 14.5762 4.45543C13.8583 5.0807 13.0663 6.21545 12.2928 6.77124C10.843 7.99862 8.97643 8.69336 7.08667 8.81378V15.3258C7.76754 15.3814 8.44841 15.474 9.10149 15.6732C10.6856 16.1271 12.1307 17.0395 13.2377 18.2576Z" fill="black"/>
<path d="M2.49889 13.413C2.68879 14.4875 3.67536 15.3212 4.77309 15.312H6.16262V8.8277H4.77309C3.49472 8.8277 2.4572 9.86518 2.4572 11.1435C2.4711 11.4677 2.42015 13.1305 2.49889 13.413Z" fill="black"/>
<path d="M4.77255 16.2381C4.44832 16.2381 4.13799 16.1872 3.84619 16.1038V18.5539C3.89251 20.3834 6.57894 20.3881 6.62525 18.5539V16.2381C6.31956 16.2381 5.1014 16.2381 4.77255 16.2381Z" fill="black"/>
</svg>
