<svg width="17" height="18" viewBox="0 0 17 18" fill="none" xmlns="http://www.w3.org/2000/svg">
<path d="M15.4229 11.9964C15.4229 11.2561 14.8228 10.6559 14.0825 10.6559H12.7091L13.675 7.34408H15.6595C16.3998 7.34408 17 6.74392 17 6.00359C17 5.26325 16.3998 4.66309 15.6595 4.66309H14.4569L15.0467 2.64125C15.2969 1.78336 14.6535 0.925476 13.7598 0.925476C13.1641 0.925476 12.6398 1.31867 12.473 1.8906L11.6643 4.66309H8.77955L9.36927 2.64125C9.61949 1.78336 8.97608 0.925476 8.08243 0.925476C7.48668 0.925476 6.96241 1.31867 6.79562 1.8906L5.98694 4.66309H3.83161C3.09128 4.66309 2.49112 5.26325 2.49112 6.00359C2.49112 6.74392 3.09128 7.34408 3.83161 7.34408H5.205L4.23906 10.6559H2.25456C1.51423 10.6559 0.914062 11.2561 0.914062 11.9964C0.914062 12.7367 1.51423 13.3369 2.25456 13.3369H3.45709L2.8674 15.3587C2.61718 16.2166 3.26059 17.0745 4.15424 17.0745C4.74999 17.0745 5.27427 16.6813 5.44109 16.1094L6.24974 13.3369H9.13451L8.54482 15.3587C8.29457 16.2166 8.93798 17.0745 9.8316 17.0745C10.4273 17.0745 10.9516 16.6813 11.1184 16.1094L11.9271 13.3369H14.0825C14.8228 13.3369 15.4229 12.7367 15.4229 11.9964ZM9.91645 10.6559H7.03167L7.99762 7.34408H10.8824L9.91645 10.6559Z" fill="#E54137"/>
</svg>
