<svg width="26" height="26" viewBox="0 0 26 26" fill="none" xmlns="http://www.w3.org/2000/svg">
<path fill-rule="evenodd" clip-rule="evenodd" d="M25.2689 0.0847088C25.6041 0.132595 25.8674 0.395891 25.9153 0.731042C25.927 0.813002 26.1963 2.76891 25.709 5.48414C25.0759 9.01135 23.4261 12.2687 20.8523 14.8425C20.1645 15.5304 19.3233 16.2878 18.4179 17.035C18.6269 17.9583 19.0092 20.9945 16.0048 23.9989C14.7737 25.23 13.7739 25.567 13.0483 25.567C12.2046 25.567 11.7314 25.1116 11.696 25.0761C11.5531 24.9332 11.4728 24.7396 11.4728 24.5375C11.4728 24.3355 11.5531 24.1417 11.696 23.9989C12.5867 23.1082 12.5869 21.6591 11.6968 20.7681L10.0801 19.1514L9.54151 19.6901C8.64843 20.5832 7.20282 20.583 6.3099 19.6901C5.41667 18.7969 5.41687 17.3514 6.3099 16.4585L6.84852 15.9198L5.23264 14.304C4.80106 13.8724 4.22724 13.6347 3.61686 13.6347C3.00648 13.6347 2.43266 13.8724 2.00103 14.304C1.85823 14.4468 1.66445 14.5271 1.46245 14.5271C1.26045 14.5271 1.06672 14.4468 0.923873 14.304C0.857859 14.238 -0.661339 12.6575 2.00113 9.99512C5.00545 6.99069 8.04171 7.37297 8.965 7.58208C9.71213 6.67667 10.4695 5.83554 11.1574 5.14767C13.7365 2.56858 16.993 0.923348 20.5158 0.29103C23.2311 -0.196361 25.187 0.0730293 25.2689 0.0847088ZM2.00108 20.7673L3.07833 19.6901C3.3758 19.3926 3.3758 18.9103 3.07833 18.6129C2.78096 18.3154 2.29865 18.3154 2.00113 18.6129L0.923873 19.6901C0.626402 19.9875 0.626402 20.4698 0.923873 20.7673C1.22134 21.0647 1.70361 21.0647 2.00108 20.7673ZM5.23274 20.7673C4.93532 20.4698 4.45301 20.4698 4.15554 20.7673L0.223104 24.6997C-0.0743679 24.9972 -0.0743679 25.4794 0.223104 25.7769C0.520525 26.0743 1.00284 26.0744 1.30031 25.7769L5.23274 21.8445C5.53026 21.547 5.53026 21.0647 5.23274 20.7673ZM3.61696 12.1112C3.07635 12.1112 2.55301 12.2231 2.07329 12.4359C2.22207 12.0824 2.52427 11.6264 3.07838 11.0723C4.39111 9.75955 6.03522 8.89796 7.86545 8.97326C6.92673 10.2142 6.07483 11.4894 5.48746 12.6016C4.92288 12.2822 4.28325 12.1112 3.61696 12.1112ZM7.3872 18.6129C7.68493 18.9105 8.16678 18.9105 8.46436 18.6129L12.7733 14.304C13.0703 14.007 13.0703 13.5238 12.7733 13.2268C12.4763 12.9297 11.993 12.9298 11.6961 13.2268L7.3872 17.5357C7.09019 17.8326 7.09019 18.3158 7.3872 18.6129ZM14.9277 22.9217C14.3722 23.4772 13.9154 23.7795 13.5616 23.9279C14.0444 22.8365 13.9899 21.5631 13.3983 20.5127C14.5115 19.9248 15.7881 19.0718 17.0302 18.132C17.0739 19.1874 16.8111 21.0383 14.9277 22.9217ZM12.3974 19.3142C14.459 18.2961 17.581 15.9596 19.7752 13.7654C21.9632 11.5773 23.1494 9.14962 23.7825 7.0005L18.9937 2.2117C16.4152 2.96706 14.1474 4.31203 12.2346 6.22482C10.0404 8.41915 7.70387 11.5411 6.68587 13.6027L7.92578 14.8426L10.6188 12.1495C11.5097 11.2587 12.9595 11.2585 13.8505 12.1495C14.7437 13.0427 14.7435 14.4882 13.8505 15.3812L11.1574 18.0742L12.3974 19.3142ZM24.1961 5.25974L20.7357 1.79936C22.3749 1.50021 23.7239 1.50489 24.4564 1.54338C24.4941 2.27294 24.4966 3.61547 24.1961 5.25974ZM16.0049 9.99512C14.814 8.80427 14.8142 6.8769 16.0049 5.68625C17.1958 4.49534 19.1231 4.49565 20.3138 5.6862C21.5018 6.8742 21.5018 8.80716 20.3138 9.99512C19.1256 11.1832 17.1927 11.1829 16.0049 9.99512ZM19.2366 8.91791C18.6426 9.51189 17.6762 9.51189 17.0821 8.91791C16.4868 8.32256 16.4866 7.3589 17.0821 6.7635C17.6775 6.16815 18.6411 6.1681 19.2366 6.7635C19.8305 7.35748 19.8305 8.32393 19.2366 8.91791ZM5.23279 23.9989L6.31 22.9217C6.60742 22.6242 7.08973 22.6242 7.3872 22.9217C7.68467 23.2192 7.68467 23.7015 7.3872 23.9989L6.31 25.0761C6.01253 25.3736 5.53021 25.3736 5.23279 25.0761C4.93532 24.7787 4.93532 24.2964 5.23279 23.9989Z" fill="url(#paint0_linear_1_363)"/>
<defs>
<linearGradient id="paint0_linear_1_363" x1="12.9615" y1="38.5153" x2="38.4382" y2="13.0385" gradientUnits="userSpaceOnUse">
<stop stop-color="#5558FF"/>
<stop offset="1" stop-color="#00C0FF"/>
</linearGradient>
</defs>
</svg>
