<svg width="42" height="40" viewBox="0 0 42 40" fill="none" xmlns="http://www.w3.org/2000/svg">
<path fill-rule="evenodd" clip-rule="evenodd" d="M27.7221 24.8019V28.4335C27.691 29.2026 27.2473 29.8867 26.5925 30.2713L22.3228 32.4062C22.1694 32.4624 22.0104 32.5017 21.8485 32.5235C21.5742 32.5201 21.3121 32.4097 21.1182 32.2157C20.9242 32.0217 20.8137 31.7596 20.8104 31.4853V28.7887C19.6322 29.1387 18.4739 28.9054 17.7259 28.1568L13.1695 23.5996C12.4203 22.8516 12.1859 21.6933 12.5376 20.515H9.84111C9.56682 20.5116 9.30471 20.4012 9.11074 20.2072C8.91677 20.0132 8.80632 19.7511 8.80298 19.4768C8.82469 19.3149 8.864 19.1559 8.92022 19.0026L11.0551 14.7315C11.4408 14.079 12.1225 13.6341 12.8934 13.6048H16.5248C16.8984 13.1679 17.2927 12.7419 17.7077 12.3268L18.8596 11.1749C23.1774 6.85635 28.7163 4.74894 33.6854 5.04497C35.1485 5.13232 36.1937 6.17811 36.281 7.6407C36.577 12.6129 34.4697 18.1479 30.153 22.4671L28.9994 23.619C28.5832 24.0336 28.1574 24.4279 27.7221 24.8019ZM24.0389 13.9042C24.205 14.7395 24.6151 15.5068 25.2173 16.1091C25.6172 16.5089 26.0919 16.8262 26.6144 17.0426C27.1368 17.259 27.6968 17.3704 28.2623 17.3704C28.8278 17.3704 29.3877 17.259 29.9102 17.0426C30.4326 16.8262 30.9074 16.5089 31.3072 16.1091C31.9094 15.5068 32.3195 14.7395 32.4857 13.9042C32.6518 13.0688 32.5665 12.203 32.2406 11.4161C31.9147 10.6293 31.3627 9.95673 30.6546 9.48356C29.9465 9.01038 29.1139 8.75783 28.2623 8.75783C27.4106 8.75783 26.5781 9.01038 25.8699 9.48356C25.1618 9.95673 24.6099 10.6293 24.284 11.4161C23.958 12.203 23.8728 13.0688 24.0389 13.9042ZM15.2642 30.2474C15.2714 31.3554 14.8419 32.4216 14.0687 33.2152C13.081 34.2029 11.6372 34.6854 10.2297 34.8976C10.1746 34.9061 10.1182 34.8979 10.0677 34.8741C10.0173 34.8503 9.97509 34.8119 9.94662 34.7639C9.68949 34.3308 9.58621 33.8234 9.65353 33.3242C9.7227 32.8453 9.09724 32.6043 8.82584 33.0047C8.68453 33.2181 8.57513 33.4509 8.50109 33.6959C8.08607 35.0072 6.7396 34.9808 6.64523 34.9773H6.63409C6.5954 34.9697 6.37148 34.9187 6.34627 34.6842C6.25248 33.7546 6.24718 32.8181 6.33045 31.8874C6.47699 30.246 6.93832 28.4288 8.11069 27.2564C8.90434 26.4832 9.97056 26.0538 11.0785 26.0611C12.1864 26.0684 13.2469 26.5118 14.0303 27.2953C14.8137 28.0788 15.257 29.1394 15.2642 30.2474Z" fill="white"/>
</svg>
