<svg width="42" height="40" viewBox="0 0 42 40" fill="none" xmlns="http://www.w3.org/2000/svg">
<path fill-rule="evenodd" clip-rule="evenodd" d="M32.6402 13.3333C32.6402 10.8017 30.5174 8.75 27.8979 8.75H14.1022C11.4827 8.75 9.35986 10.8017 9.35986 13.3333V26.6667C9.35986 29.1983 11.4827 31.25 14.1022 31.25H27.8979C30.5174 31.25 32.6402 29.1983 32.6402 26.6667V13.3333ZM24.449 16.6667V23.3333C24.449 24.0233 25.0284 24.5833 25.7423 24.5833C26.4563 24.5833 27.0357 24.0233 27.0357 23.3333V16.6667C27.0357 15.9767 26.4563 15.4167 25.7423 15.4167C25.0284 15.4167 24.449 15.9767 24.449 16.6667ZM22.7245 23.3333V18.3333C22.7245 16.7233 21.3742 15.4167 19.7067 15.4167H17.9822C16.3147 15.4167 14.9644 16.7233 14.9644 18.3333V23.3333C14.9644 24.0233 15.5438 24.5833 16.2577 24.5833C16.9717 24.5833 17.5511 24.0233 17.5511 23.3333V22.0833H20.1378V23.3333C20.1378 24.0233 20.7172 24.5833 21.4312 24.5833C22.1451 24.5833 22.7245 24.0233 22.7245 23.3333ZM17.5511 19.5833H20.1378V18.3333C20.1378 18.1033 19.9447 17.9167 19.7067 17.9167H17.9822C17.7442 17.9167 17.5511 18.1033 17.5511 18.3333V19.5833Z" fill="white"/>
<path fill-rule="evenodd" clip-rule="evenodd" d="M31.3471 21.25H38.2449C38.9589 21.25 39.5383 20.69 39.5383 20C39.5383 19.31 38.9589 18.75 38.2449 18.75H31.3471C30.6331 18.75 30.0537 19.31 30.0537 20C30.0537 20.69 30.6331 21.25 31.3471 21.25Z" fill="white"/>
<path fill-rule="evenodd" clip-rule="evenodd" d="M22.2935 9.99992V3.33325C22.2935 2.64325 21.7141 2.08325 21.0001 2.08325C20.2862 2.08325 19.7068 2.64325 19.7068 3.33325V9.99992C19.7068 10.6899 20.2862 11.2499 21.0001 11.2499C21.7141 11.2499 22.2935 10.6899 22.2935 9.99992Z" fill="white"/>
<path fill-rule="evenodd" clip-rule="evenodd" d="M19.7068 30V36.6667C19.7068 37.3567 20.2862 37.9167 21.0001 37.9167C21.7141 37.9167 22.2935 37.3567 22.2935 36.6667V30C22.2935 29.31 21.7141 28.75 21.0001 28.75C20.2862 28.75 19.7068 29.31 19.7068 30Z" fill="white"/>
<path fill-rule="evenodd" clip-rule="evenodd" d="M10.6551 18.75H3.75722C3.04329 18.75 2.46387 19.31 2.46387 20C2.46387 20.69 3.04329 21.25 3.75722 21.25H10.6551C11.369 21.25 11.9485 20.69 11.9485 20C11.9485 19.31 11.369 18.75 10.6551 18.75Z" fill="white"/>
<path fill-rule="evenodd" clip-rule="evenodd" d="M31.3471 16.25H35.6582C36.3722 16.25 36.9516 15.69 36.9516 15C36.9516 14.31 36.3722 13.75 35.6582 13.75H31.3471C30.6331 13.75 30.0537 14.31 30.0537 15C30.0537 15.69 30.6331 16.25 31.3471 16.25Z" fill="white"/>
<path fill-rule="evenodd" clip-rule="evenodd" d="M17.1202 9.99992V5.83325C17.1202 5.14325 16.5407 4.58325 15.8268 4.58325C15.1129 4.58325 14.5334 5.14325 14.5334 5.83325V9.99992C14.5334 10.6899 15.1129 11.2499 15.8268 11.2499C16.5407 11.2499 17.1202 10.6899 17.1202 9.99992Z" fill="white"/>
<path fill-rule="evenodd" clip-rule="evenodd" d="M14.5334 30V34.1667C14.5334 34.8567 15.1129 35.4167 15.8268 35.4167C16.5407 35.4167 17.1202 34.8567 17.1202 34.1667V30C17.1202 29.31 16.5407 28.75 15.8268 28.75C15.1129 28.75 14.5334 29.31 14.5334 30Z" fill="white"/>
<path fill-rule="evenodd" clip-rule="evenodd" d="M10.6551 13.75H6.34389C5.62996 13.75 5.05054 14.31 5.05054 15C5.05054 15.69 5.62996 16.25 6.34389 16.25H10.6551C11.369 16.25 11.9484 15.69 11.9484 15C11.9484 14.31 11.369 13.75 10.6551 13.75Z" fill="white"/>
<path fill-rule="evenodd" clip-rule="evenodd" d="M31.3471 26.25H35.6582C36.3722 26.25 36.9516 25.69 36.9516 25C36.9516 24.31 36.3722 23.75 35.6582 23.75H31.3471C30.6331 23.75 30.0537 24.31 30.0537 25C30.0537 25.69 30.6331 26.25 31.3471 26.25Z" fill="white"/>
<path fill-rule="evenodd" clip-rule="evenodd" d="M27.4668 9.99992V5.83325C27.4668 5.14325 26.8874 4.58325 26.1735 4.58325C25.4595 4.58325 24.8801 5.14325 24.8801 5.83325V9.99992C24.8801 10.6899 25.4595 11.2499 26.1735 11.2499C26.8874 11.2499 27.4668 10.6899 27.4668 9.99992Z" fill="white"/>
<path fill-rule="evenodd" clip-rule="evenodd" d="M24.8801 30V34.1667C24.8801 34.8567 25.4595 35.4167 26.1735 35.4167C26.8874 35.4167 27.4668 34.8567 27.4668 34.1667V30C27.4668 29.31 26.8874 28.75 26.1735 28.75C25.4595 28.75 24.8801 29.31 24.8801 30Z" fill="white"/>
<path fill-rule="evenodd" clip-rule="evenodd" d="M10.6551 23.75H6.34389C5.62996 23.75 5.05054 24.31 5.05054 25C5.05054 25.69 5.62996 26.25 6.34389 26.25H10.6551C11.369 26.25 11.9484 25.69 11.9484 25C11.9484 24.31 11.369 23.75 10.6551 23.75Z" fill="white"/>
</svg>
