<svg width="42" height="42" viewBox="0 0 42 42" fill="none" xmlns="http://www.w3.org/2000/svg">
<path d="M23.2606 18.7396H16.9502L13.795 24.419L13.164 25.05C12.1165 26.0975 12.1165 27.7887 13.164 28.8362C14.2115 29.8837 15.9027 29.8838 16.9503 28.8362L17.5813 28.2052L23.2606 25.05V18.7396ZM12.6999 22.7718C12.9907 22.7164 13.2341 22.5211 13.3518 22.2492C14.0124 20.7234 15.481 18.4735 17.2811 16.2309C17.4635 16.0029 17.5233 15.7004 17.44 15.42C17.2697 14.8428 16.7153 14.7984 16.6013 14.7378C16.4257 14.6793 12.2444 13.3488 8.11553 17.4777C4.99608 20.5971 6.77641 22.449 6.85346 22.526C7.20228 22.8748 7.76677 22.8748 8.11553 22.526C9.15949 21.4821 10.8578 21.4821 11.9018 22.526C12.1107 22.7348 12.4096 22.8267 12.6999 22.7718ZM26.5803 24.5602C26.2999 24.477 25.9973 24.5368 25.7693 24.7192C23.4486 26.5815 21.2584 28.0124 19.7584 28.6447C19.4848 28.7605 19.2864 29.0046 19.229 29.296C19.1729 29.5875 19.2642 29.8882 19.4743 30.0984C20.5182 31.1423 20.5182 32.8407 19.4743 33.8846C19.1255 34.2335 19.1255 34.798 19.4743 35.1467C19.5514 35.2237 21.4032 37.0041 24.5227 33.8846C28.6516 29.7557 27.3211 25.5745 27.2626 25.4001C27.2047 25.2914 27.1562 24.7293 26.5803 24.5602ZM36.1338 6.62367C36.0707 6.23243 35.7679 5.92954 35.3765 5.86635C35.1494 5.84107 31.7796 5.39937 27.5643 6.63616L30.1737 11.7697L35.3639 14.4359C36.6008 10.2206 36.159 6.85076 36.1338 6.62367ZM24.5227 12.4292C23.1344 13.8175 23.1344 16.0892 24.5227 17.4775C25.9236 18.8784 28.1827 18.8659 29.571 17.4775C30.9719 16.0767 30.9719 13.8301 29.571 12.4292C28.1827 11.0409 25.9236 11.0283 24.5227 12.4292Z" fill="url(#paint0_linear_1_2496)"/>
<path d="M27.5643 6.63623C24.8003 7.43144 21.683 8.9585 18.8433 11.7982C17.9093 12.7322 16.887 13.8807 15.89 15.1048C13.9968 17.4775 12.4319 19.8755 11.7251 21.5414C11.5736 21.8696 11.6368 22.2608 11.9018 22.5259L13.795 24.419L18.2122 20.0017C19.2598 18.9542 20.9509 18.9542 21.9985 20.0017C23.0586 21.0618 23.0586 22.7278 21.9985 23.788L17.5812 28.2052L19.4744 30.0984C19.7267 30.3508 20.118 30.4391 20.4461 30.2877C22.0994 29.5936 24.447 28.079 26.8954 26.1102C28.1195 25.1132 29.2681 24.0909 30.202 23.157C33.0417 20.3173 34.5688 17.2 35.3639 14.4359L27.5643 6.63623ZM29.571 17.4776C28.1827 18.8659 25.9236 18.8784 24.5227 17.4776C23.1343 16.0892 23.1343 13.8175 24.5227 12.4292C25.9235 11.0283 28.1827 11.0409 29.571 12.4292C30.9719 13.8301 30.9719 16.0767 29.571 17.4776ZM11.9135 30.0991C11.5647 29.7503 11.0002 29.7503 10.6514 30.0991L6.0309 34.7072C5.68208 35.056 5.68208 35.6205 6.0309 35.9692C6.37972 36.318 6.94421 36.3181 7.29297 35.9692L11.9135 31.3612C12.2623 31.0123 12.2623 30.4479 11.9135 30.0991ZM13.1756 32.6232L11.9135 33.8853C11.5647 34.2341 11.5647 34.7986 11.9135 35.1474C12.2623 35.4962 12.8268 35.4962 13.1756 35.1474L14.4376 33.8853C14.7864 33.5365 14.7864 32.972 14.4376 32.6232C14.0888 32.2745 13.5244 32.2745 13.1756 32.6232ZM8.12721 30.0991L9.38928 28.837C9.73811 28.4882 9.73811 27.9237 9.38928 27.575C9.04046 27.2261 8.47597 27.2261 8.12721 27.575L6.86514 28.837C6.51632 29.1858 6.51632 29.7503 6.86514 30.0991C7.21396 30.4479 7.77845 30.4479 8.12721 30.0991Z" fill="url(#paint1_linear_1_2496)"/>
<defs>
<linearGradient id="paint0_linear_1_2496" x1="13.165" y1="28.832" x2="35.876" y2="6.12101" gradientUnits="userSpaceOnUse">
<stop stop-color="#ADDCFF"/>
<stop offset="0.5028" stop-color="#EAF6FF"/>
<stop offset="1" stop-color="#EAF6FF"/>
</linearGradient>
<linearGradient id="paint1_linear_1_2496" x1="6.03317" y1="35.9638" x2="31.4625" y2="10.5344" gradientUnits="userSpaceOnUse">
<stop stop-color="#5558FF"/>
<stop offset="1" stop-color="#00C0FF"/>
</linearGradient>
</defs>
</svg>
