<svg width="42" height="42" viewBox="0 0 42 42" fill="none" xmlns="http://www.w3.org/2000/svg">
<g clip-path="url(#clip0_1_2466)">
<path d="M34.4461 19.215H35.3385C35.8314 19.215 36.231 18.8154 36.231 18.3226V13.8604C36.231 13.3606 35.8383 12.968 35.3385 12.968H30.8169C30.324 12.968 29.9245 13.3676 29.9245 13.8604V14.7529C29.9245 15.7385 29.1253 16.5377 28.1396 16.5377C27.154 16.5377 26.3548 15.7385 26.3548 14.7529V13.8604C26.3548 13.3676 25.9552 12.968 25.4623 12.968H21.0002L19.2153 21.1011L21.0002 29.0317H26.3548V30.8166C26.3548 31.8022 27.154 32.6014 28.1396 32.6014C29.1253 32.6014 29.9245 31.8022 29.9245 30.8166V29.0317H35.3385C35.8383 29.0317 36.231 28.639 36.231 28.1393V23.6772C36.231 23.1843 35.8314 22.7847 35.3385 22.7847H34.4461C33.4604 22.7847 32.6612 21.9855 32.6612 20.9999C32.6612 20.0141 33.4604 19.215 34.4461 19.215Z" fill="url(#paint0_linear_1_2466)"/>
<path d="M22.7849 19.2151H21.0001V12.9681H15.6455V11.1833C15.6455 10.1975 14.8463 9.39844 13.8606 9.39844C12.875 9.39844 12.0758 10.1975 12.0758 11.1833V12.9681H6.66171C6.1619 12.9681 5.76929 13.3608 5.76929 13.8606V18.3227C5.76929 18.8156 6.16886 19.2151 6.66171 19.2151H7.55414C8.5398 19.2151 9.339 20.0142 9.339 21C9.339 21.9857 8.5398 22.7849 7.55414 22.7849H6.66171C6.16886 22.7849 5.76929 23.1844 5.76929 23.6773V28.1394C5.76929 28.6391 6.1619 29.0319 6.66171 29.0319H11.1833C11.6762 29.0319 12.0758 28.6323 12.0758 28.1394V27.247C12.0758 26.2612 12.875 25.4621 13.8606 25.4621C14.8463 25.4621 15.6455 26.2612 15.6455 27.247V28.1394C15.6455 28.6323 16.0451 29.0319 16.5379 29.0319H21.0001V22.7849H22.7849C23.7666 22.7849 24.5698 21.9817 24.5698 21C24.5698 20.0183 23.7666 19.2151 22.7849 19.2151Z" fill="url(#paint1_linear_1_2466)"/>
</g>
<defs>
<linearGradient id="paint0_linear_1_2466" x1="27.7231" y1="32.6014" x2="27.7231" y2="12.968" gradientUnits="userSpaceOnUse">
<stop stop-color="#9B1C6E"/>
<stop offset="0.5028" stop-color="#DC94BE"/>
<stop offset="1" stop-color="#F1ABC9"/>
</linearGradient>
<linearGradient id="paint1_linear_1_2466" x1="15.1695" y1="29.0319" x2="15.1695" y2="9.39844" gradientUnits="userSpaceOnUse">
<stop stop-color="#5558FF"/>
<stop offset="1" stop-color="#00C0FF"/>
</linearGradient>
<clipPath id="clip0_1_2466">
<rect width="30.4615" height="30.4615" fill="white" transform="translate(5.76929 5.76929)"/>
</clipPath>
</defs>
</svg>
