<svg width="42" height="40" viewBox="0 0 42 40" fill="none" xmlns="http://www.w3.org/2000/svg">
<path fill-rule="evenodd" clip-rule="evenodd" d="M14.8032 3.125H8.80326V6.12502H14.8032V3.125ZM11.8829 11.0512C14.9602 8.9052 18.947 6.125 25.3064 6.125C32.7622 6.125 38.8063 12.1691 38.8063 19.625C38.8063 27.0808 32.7622 33.125 25.3064 33.125C19.5574 33.125 14.0839 29.5748 10.733 27.4014C10.5867 27.3065 10.4444 27.2142 10.3063 27.125L13.3064 24.125L2.8064 19.625L13.3064 15.125L10.3064 12.125C10.8083 11.8006 11.331 11.4361 11.8829 11.0512ZM16.3064 19.625C16.3064 24.5955 20.3358 28.625 25.3064 28.625C30.2745 28.6192 34.3006 24.5931 34.3063 19.625C34.3063 14.6544 30.2769 10.625 25.3064 10.625C20.3358 10.625 16.3064 14.6544 16.3064 19.625ZM21.2809 16.709L24.9003 17.909L28.7464 14.0644L30.8659 16.196L26.3659 20.6959C25.9631 21.0955 25.3704 21.2357 24.8314 21.059L20.3314 19.559L21.2809 16.709ZM8.80636 9.12499H2.8064V12.125H8.80636V9.12499ZM2.8064 27.125H8.80636V30.125H2.8064V27.125ZM8.80326 33.125H14.8032V36.125H8.80326V33.125Z" fill="white"/>
</svg>
