<svg width="42" height="40" viewBox="0 0 42 40" fill="none" xmlns="http://www.w3.org/2000/svg">
<path d="M29.3244 33.0466C26.8342 34.5333 23.944 35.3333 20.9986 35.3333C18.5775 35.3333 16.2184 34.8066 14.0801 33.7933C13.88 34.2066 13.6179 34.58 13.2937 34.9066C15.6735 36.06 18.3016 36.6666 20.9986 36.6666C24.2682 36.6666 27.4826 35.76 30.2211 34.08C29.8693 33.7866 29.5658 33.44 29.3313 33.0466H29.3244Z" fill="white"/>
<path d="M34.5115 11.9599C36.0359 14.3666 36.8637 17.1533 36.8637 19.9999C36.8637 22.3399 36.3187 24.6199 35.2702 26.6933C35.6979 26.8799 36.0842 27.1399 36.4222 27.4533C37.6224 25.1466 38.2432 22.6066 38.2432 19.9999C38.2432 16.8399 37.312 13.7466 35.5737 11.0933C35.2702 11.4333 34.9116 11.7266 34.5115 11.9599Z" fill="white"/>
<path d="M5.13495 20C5.13495 17.66 5.67988 15.38 6.72836 13.3067C6.30069 13.1134 5.91441 12.8534 5.57641 12.54C4.38308 14.8467 3.75537 17.3867 3.75537 20C3.75537 23.1534 4.69348 26.2534 6.43175 28.9067C6.72836 28.5667 7.09395 28.2734 7.49402 28.0467C5.96269 25.64 5.13495 22.8467 5.13495 20Z" fill="white"/>
<path d="M11.7849 5.91325C12.1367 6.20659 12.4402 6.55992 12.6747 6.94659H12.6816C15.1718 5.46659 18.062 4.66659 21.0005 4.66659C23.4216 4.66659 25.7807 5.19325 27.926 6.19992C28.126 5.78659 28.395 5.41325 28.7123 5.08659C26.3325 3.93325 23.6976 3.33325 21.0005 3.33325C17.7378 3.33325 14.5303 4.23992 11.7849 5.91325Z" fill="white"/>
<path d="M15.289 23.8267C15.1096 22.6267 15.0061 21.34 15.0061 20C15.0061 18.6533 15.1096 17.3733 15.289 16.1733C11.7917 17.0133 9.6189 18.56 9.6189 20C9.6189 21.4333 11.7917 22.9867 15.289 23.8267Z" fill="white"/>
<path d="M17.8817 30.5668C16.8677 29.3201 16.0607 27.4801 15.564 25.2534C13.2601 24.7734 11.3563 23.9934 10.0664 23.0134C11.1425 26.6601 14.1155 29.5268 17.8817 30.5668Z" fill="white"/>
<path d="M10.0664 16.9801C11.3563 16.0068 13.2601 15.2268 15.564 14.7401C16.0607 12.5201 16.8677 10.6801 17.8817 9.42676C14.1155 10.4734 11.1425 13.3401 10.0664 16.9801Z" fill="white"/>
<path d="M20.9984 31C22.4884 31 24.0887 28.9 24.9647 25.52C23.7162 25.7 22.3918 25.8 20.9984 25.8C19.612 25.8 18.2807 25.7 17.0391 25.52C17.9151 28.9 19.5154 31 20.9984 31Z" fill="white"/>
<path d="M24.9647 14.48C24.0887 11.0933 22.4884 9 20.9984 9C19.5154 9 17.9151 11.0933 17.0391 14.48C18.2807 14.3 19.612 14.2 20.9984 14.2C22.3918 14.2 23.7162 14.3 24.9647 14.48Z" fill="white"/>
<path d="M20.9997 24.4668C22.5448 24.4668 23.9727 24.3334 25.2626 24.1201C25.4902 22.8668 25.6213 21.4868 25.6213 20.0001C25.6213 18.5068 25.4902 17.1334 25.2626 15.8801C23.9727 15.6601 22.5448 15.5334 20.9997 15.5334C19.4615 15.5334 18.0336 15.6601 16.7437 15.8801C16.5161 17.1334 16.385 18.5068 16.385 20.0001C16.385 21.4868 16.5161 22.8668 16.7437 24.1201C18.0336 24.3334 19.4615 24.4668 20.9997 24.4668Z" fill="white"/>
<path d="M31.941 23.0134C30.6511 23.9934 28.7473 24.7734 26.4434 25.2534C25.9468 27.4801 25.1397 29.3201 24.1257 30.5668C27.892 29.5268 30.865 26.6601 31.941 23.0134Z" fill="white"/>
<path d="M31.941 16.9801C30.865 13.3401 27.892 10.4734 24.1257 9.42676C25.1397 10.6801 25.9468 12.5201 26.4434 14.7401C28.7473 15.2268 30.6511 16.0068 31.941 16.9801Z" fill="white"/>
<path d="M26.7183 16.1733C26.8976 17.3733 27.0011 18.6533 27.0011 20C27.0011 21.34 26.8976 22.6267 26.7183 23.8267C30.2155 22.9867 32.3814 21.4333 32.3814 20C32.3814 18.56 30.2155 17.0133 26.7183 16.1733Z" fill="white"/>
<path d="M35.3585 8.13324C35.3585 6.39991 33.8962 4.98657 32.1027 4.98657C30.3093 4.98657 28.8469 6.39991 28.8469 8.13324C28.8469 9.86657 30.3093 11.2799 32.1027 11.2799C33.8962 11.2732 35.3585 9.86657 35.3585 8.13324Z" fill="white"/>
<path d="M5.47241 9.26678C5.47241 11.0001 6.93476 12.4135 8.72821 12.4135C10.5217 12.4135 11.984 11.0001 11.984 9.26678C11.984 7.53345 10.5148 6.12012 8.72131 6.12012C6.92787 6.12012 5.47241 7.53345 5.47241 9.26678Z" fill="white"/>
<path d="M9.90033 28.72C8.10688 28.72 6.64453 30.1333 6.64453 31.8666C6.64453 33.6 8.10688 35.0133 9.90033 35.0133C11.6938 35.0133 13.1561 33.6 13.1561 31.8666C13.1561 30.1333 11.6938 28.72 9.90033 28.72Z" fill="white"/>
<path d="M33.2853 27.5867C31.4919 27.5867 30.0295 29 30.0295 30.7333C30.0295 32.4667 31.4919 33.88 33.2853 33.88C35.0788 33.88 36.5411 32.4667 36.5411 30.7333C36.5411 29 35.0788 27.5867 33.2853 27.5867Z" fill="white"/>
</svg>
