<svg width="42" height="40" viewBox="0 0 42 40" fill="none" xmlns="http://www.w3.org/2000/svg">
<path d="M28.6956 21H30.5063V22.75H28.6956V21Z" fill="white"/>
<path d="M29.0189 3.6875H24.8802C24.5569 3.6875 24.2982 3.5 24.2335 3.25C24.1689 3 24.2335 2.6875 24.4922 2.5C24.8802 2.25 25.1389 1.8125 25.1389 1.375C25.1389 0.625 24.4922 0 23.7162 0C22.9402 0 22.2935 0.625 22.2935 1.375C22.2935 1.8125 22.5522 2.25 22.9402 2.5C23.1988 2.625 23.3282 2.9375 23.1988 3.25C23.1342 3.5 22.8755 3.6875 22.5522 3.6875H18.4134L17.0554 8.0625H30.377L29.0189 3.6875ZM27.9842 6.375H19.5775C19.1895 6.375 18.9308 6.0625 18.9308 5.75C18.9308 5.375 19.2541 5.125 19.5775 5.125H27.9842C28.3723 5.125 28.6309 5.4375 28.6309 5.75C28.6309 6.0625 28.3076 6.375 27.9842 6.375Z" fill="white"/>
<path d="M31.2821 9.3125H16.2146C16.0206 9.3125 15.8266 9.1875 15.6972 9.0625C15.5679 8.875 15.5032 8.6875 15.5679 8.5L15.7619 8H13.4985V26.1875C16.6672 27.0625 18.9953 29.6875 19.254 32.9375H33.9982V7.9375H31.7348L31.9288 8.4375C31.9935 8.625 31.9288 8.875 31.7995 9C31.7348 9.25 31.5408 9.3125 31.2821 9.3125ZM24.88 29.875H19.5126C19.1246 29.875 18.8659 29.5625 18.8659 29.25C18.8659 28.875 19.1893 28.625 19.5126 28.625H24.88C25.268 28.625 25.5267 28.9375 25.5267 29.25C25.5914 29.5625 25.268 29.875 24.88 29.875ZM24.88 22.5H15.3739C14.9859 22.5 14.7272 22.1875 14.7272 21.875C14.7272 21.5 15.0506 21.25 15.3739 21.25H24.88C25.268 21.25 25.5267 21.5625 25.5267 21.875C25.5914 22.25 25.268 22.5 24.88 22.5ZM24.88 15.1875H15.3739C14.9859 15.1875 14.7272 14.875 14.7272 14.5625C14.7272 14.1875 15.0506 13.9375 15.3739 13.9375H24.88C25.268 13.9375 25.5267 14.25 25.5267 14.5625C25.5914 14.875 25.268 15.1875 24.88 15.1875ZM31.7995 30.75C31.7995 31.125 31.4761 31.375 31.1528 31.375H28.0488C27.6607 31.375 27.4021 31.0625 27.4021 30.75V27.75C27.4021 27.375 27.7254 27.125 28.0488 27.125H31.1528C31.5408 27.125 31.7995 27.4375 31.7995 27.75V30.75ZM31.7995 23.375C31.7995 23.75 31.4761 24 31.1528 24H28.0488C27.6607 24 27.4021 23.6875 27.4021 23.375V20.375C27.4021 20 27.7254 19.75 28.0488 19.75H31.1528C31.5408 19.75 31.7995 20.0625 31.7995 20.375V23.375ZM31.7995 16.0625C31.7995 16.4375 31.4761 16.6875 31.1528 16.6875H28.0488C27.6607 16.6875 27.4021 16.375 27.4021 16.0625V13.0625C27.4021 12.6875 27.7254 12.4375 28.0488 12.4375H31.1528C31.5408 12.4375 31.7995 12.75 31.7995 13.0625V16.0625Z" fill="white"/>
<path d="M12.1405 25.9375V7.3125C12.1405 6.9375 12.4638 6.6875 12.7872 6.6875H16.0852L16.7319 4.6875H10.2651V26C10.6531 25.9375 10.9765 25.9375 11.3645 25.9375H12.1405Z" fill="white"/>
<path d="M28.6956 28.375H30.5063V30.125H28.6956V28.375Z" fill="white"/>
<path d="M28.6956 13.6875H30.5063V15.4375H28.6956V13.6875Z" fill="white"/>
<path d="M30.7649 4.6875L31.4116 6.6875H34.7097C35.0977 6.6875 35.3563 7 35.3563 7.3125V33.5625C35.3563 33.9375 35.033 34.1875 34.7097 34.1875H19.2541C19.2541 34.9375 19.0601 35.625 18.8014 36.25H37.2317V4.6875H30.7649ZM11.3647 27.1875C7.74327 27.1875 4.76855 30.0625 4.76855 33.5625C4.76855 37.0625 7.74327 39.9375 11.3647 39.9375C14.986 39.9375 17.9607 37.0625 17.9607 33.5625C17.9607 30.0625 14.986 27.1875 11.3647 27.1875ZM15.18 31.3125L9.48929 36.8125C9.35996 36.9375 9.16595 37 9.03662 37C8.84262 37 8.71328 36.9375 8.58394 36.8125L6.83792 35.125C6.57925 34.875 6.57925 34.4375 6.83792 34.1875C7.09659 33.9375 7.54926 33.9375 7.80793 34.1875L9.10129 35.4375L14.3394 30.375C14.598 30.125 15.0507 30.125 15.3094 30.375C15.4387 30.625 15.4387 31.0625 15.18 31.3125Z" fill="white"/>
</svg>
