<svg width="42" height="40" viewBox="0 0 42 40" fill="none" xmlns="http://www.w3.org/2000/svg">
<g clip-path="url(#clip0_173_3398)">
<path fill-rule="evenodd" clip-rule="evenodd" d="M19.3969 3.3602C19.623 4.13855 20.3261 4.69094 21.1295 4.69094C21.958 4.69094 22.6861 4.13855 22.8871 3.3853C22.9624 3.20953 22.9875 3.03377 22.9875 2.83292C22.9875 2.70141 22.9683 2.5699 22.9467 2.4217L22.9372 2.35584C22.7113 1.55239 21.9831 1 21.1545 1C20.3261 1 19.5979 1.57749 19.4221 2.33074C19.3468 2.50651 19.3217 2.68227 19.3217 2.85802C19.3217 3.03377 19.3468 3.23466 19.3969 3.3602ZM2.32327 13.5402C1.7482 13.5402 1.3064 13.982 1.3064 14.557V37.9832C1.3064 38.5582 1.7482 39 2.32327 39H39.986C40.561 39 41.0027 38.5582 41.0027 37.9832V14.557C41.0027 13.982 40.561 13.5402 39.986 13.5402H2.32327ZM11.0736 16.0134C11.0736 15.4878 11.5064 15.0718 12.0151 15.0718C12.5238 15.0718 12.9567 15.4878 12.9567 16.0134V16.867C12.9567 17.0403 13.0972 17.1809 13.2705 17.1809H17.7147C18.2403 17.1809 18.6564 17.6137 18.6564 18.1224V35.3971C18.6564 35.9058 18.2403 36.3385 17.7147 36.3385H6.31551C5.81093 36.3385 5.37394 35.9015 5.37394 35.3971V18.1224C5.37394 17.6179 5.81093 17.1809 6.31551 17.1809H10.7597C10.933 17.1809 11.0736 17.0403 11.0736 16.867V16.0134ZM22.4729 17.1432C22.4729 16.6387 22.9096 16.2017 23.4143 16.2017H35.9686C36.473 16.2017 36.91 16.6387 36.91 17.1432V25.1276C36.91 25.6532 36.4773 26.0693 35.9686 26.0693H23.4143C22.9056 26.0693 22.4729 25.6532 22.4729 25.1276V17.1432ZM22.4729 29.6974C22.4729 29.1718 22.9056 28.756 23.4143 28.756H29.114C29.6436 28.756 30.0554 29.1678 30.0554 29.6974C30.0554 30.2271 29.6436 30.6389 29.114 30.6389H23.4143C22.9096 30.6389 22.4729 30.2019 22.4729 29.6974ZM22.4729 33.1123C22.4729 32.6076 22.9096 32.1706 23.4143 32.1706H35.9686C36.4773 32.1706 36.91 32.5864 36.91 33.1123C36.91 33.6379 36.4773 34.0537 35.9686 34.0537H23.4143C22.9096 34.0537 22.4729 33.6167 22.4729 33.1123ZM16.4592 34.471C16.6101 34.471 16.7606 34.3454 16.7606 34.1696V19.4059C16.7606 19.2553 16.635 19.1047 16.4592 19.1047H13.2706C13.1199 19.1047 12.9693 19.2301 12.9693 19.4059V20.9627C12.9693 21.49 12.5424 21.9168 12.0152 21.9168C11.4879 21.9168 11.0611 21.4648 11.0611 20.9627V19.4059C11.0611 19.2553 10.9355 19.1047 10.7598 19.1047H7.57098C7.42033 19.1047 7.26968 19.2301 7.26968 19.4059V34.1696C7.26968 34.3204 7.39523 34.471 7.57098 34.471H16.4592ZM24.6698 24.1992H34.7131C34.8637 24.1992 35.0145 24.0736 35.0145 23.8978V18.4243C35.0145 18.2737 34.8889 18.1229 34.7131 18.1229H24.6698C24.5192 18.1229 24.3684 18.2485 24.3684 18.4243V23.8978C24.3684 24.0486 24.494 24.1992 24.6698 24.1992ZM5.31108 11.6728H8.55007H8.57517C8.62538 11.6728 8.75093 11.6226 8.75093 11.6226L17.8653 5.11949C17.9909 5.01905 18.0159 4.8433 17.9406 4.69265C17.6394 4.16536 17.4385 3.58787 17.4385 2.90994C17.4385 2.78439 17.3632 2.68395 17.2627 2.63375C17.1371 2.58354 16.9362 2.65885 16.9362 2.65885L5.13532 11.0953C5.00978 11.1706 4.95955 11.3213 5.00978 11.4468C5.05999 11.5723 5.18553 11.6728 5.31108 11.6728ZM33.7337 11.6693H36.9727H36.9979C37.1485 11.6693 37.2741 11.5688 37.2991 11.4433C37.3243 11.3177 37.1737 11.0918 37.1737 11.0918L25.3728 2.65536C25.2723 2.58002 25.1467 2.58002 25.0462 2.63025C24.9458 2.68046 24.8705 2.7809 24.8705 2.90645C24.8453 3.58436 24.6695 4.18698 24.3684 4.68913C24.2679 4.83978 24.318 5.01553 24.4437 5.11598L33.5579 11.6191C33.6083 11.6693 33.7337 11.6693 33.7337 11.6693Z" fill="white"/>
</g>
<defs>
<clipPath id="clip0_173_3398">
<rect width="41.3873" height="40" fill="white" transform="translate(0.306396)"/>
</clipPath>
</defs>
</svg>
