<svg width="42" height="40" viewBox="0 0 42 40" fill="none" xmlns="http://www.w3.org/2000/svg">
<path d="M35.1389 28.3666C35.0363 28.2965 31.0169 19.8531 30.7894 19.4776C30.8553 19.2771 30.8666 19.0636 30.8224 18.8577C30.7783 18.6517 30.68 18.4602 30.5371 18.3015C28.9593 16.9523 25.1134 20.4387 23.5921 21.7732C22.9222 22.4609 18.2805 26.5945 19.7086 28.329C19.8643 28.4706 20.0548 28.5714 20.2621 28.6218C20.4695 28.6721 20.6867 28.6704 20.8931 28.6168L26.8737 31.657L23.974 34.3468C23.8175 34.488 23.6921 34.6583 23.6053 34.8475C23.5186 35.0367 23.4723 35.2409 23.4692 35.4478C23.4887 35.7555 23.5784 36.0552 23.7317 36.3255C23.8849 36.5958 24.0981 36.8301 24.3559 37.0116C24.5042 37.1617 24.6816 37.282 24.878 37.3657C25.0743 37.4494 25.2859 37.4949 25.5005 37.4995C25.7151 37.5042 25.9285 37.4679 26.1286 37.3928C26.3287 37.3177 26.5115 37.2052 26.6665 37.0617L30.55 33.4648C33.6132 34.4738 36.5967 31.1793 35.1389 28.3666ZM20.7701 27.3782C20.7626 26.8235 22.0535 24.9528 24.4853 22.6741C26.9519 20.4073 28.8966 19.3102 29.5144 19.2711C29.1676 20.2326 28.1329 21.7287 25.7604 23.9627C23.3653 26.1286 21.7653 27.1007 20.7701 27.3782Z" fill="white"/>
<path d="M24.4509 14.9352C24.366 14.9384 24.2825 14.9578 24.2053 14.9922C24.1281 15.0265 24.0587 15.0753 24.001 15.1356C23.9434 15.196 23.8986 15.2667 23.8692 15.3438C23.8398 15.4209 23.8265 15.5028 23.8299 15.5849L23.9288 18.0101C23.9322 18.0922 23.9522 18.1728 23.9878 18.2474C24.0234 18.322 24.0739 18.389 24.1363 18.4448C24.1987 18.5005 24.2719 18.5438 24.3516 18.5722C24.4314 18.6006 24.5161 18.6136 24.601 18.6103C24.6859 18.6071 24.7694 18.5877 24.8465 18.5533C24.9237 18.5189 24.9931 18.4701 25.0507 18.4098C25.1084 18.3494 25.1532 18.2787 25.1826 18.2017C25.212 18.1246 25.2254 18.0427 25.222 17.9606L25.1231 15.5354C25.1209 15.453 25.1017 15.3718 25.0665 15.2967C25.0313 15.2215 24.9809 15.154 24.9182 15.098C24.8555 15.0421 24.7819 14.9988 24.7016 14.9709C24.6213 14.9429 24.5361 14.9308 24.4509 14.9352Z" fill="white"/>
<path d="M17.1875 21.7367C17.018 21.7259 16.8509 21.7798 16.7222 21.8869C16.5935 21.9941 16.5135 22.1458 16.4995 22.3094C16.4855 22.473 16.5386 22.6353 16.6473 22.7614C16.756 22.8876 16.9117 22.9673 17.0807 22.9835L19.5833 23.1833C19.7525 23.1936 19.9191 23.1394 20.0473 23.0323C20.1755 22.9252 20.2552 22.7737 20.2692 22.6105C20.2832 22.4472 20.2303 22.2852 20.1221 22.1592C20.0138 22.0332 19.8587 21.9532 19.6901 21.9365L17.1875 21.7367Z" fill="white"/>
<path d="M21.223 20.2882C21.3427 20.4043 21.5047 20.4704 21.6742 20.4723C21.8437 20.4742 22.0072 20.4118 22.1296 20.2984C22.252 20.185 22.3236 20.0298 22.3288 19.866C22.3341 19.7023 22.2727 19.543 22.1578 19.4225L20.6557 17.9067C20.5369 17.7873 20.3739 17.7183 20.2025 17.715C20.0311 17.7116 19.8653 17.7741 19.7415 17.8887C19.6177 18.0033 19.546 18.1607 19.5422 18.3264C19.5383 18.492 19.6026 18.6524 19.7209 18.7723L21.223 20.2882Z" fill="white"/>
<path d="M12.6415 24.0815C11.0068 24.0835 9.43975 24.7125 8.28446 25.8302C7.12918 26.9479 6.48009 28.4631 6.47974 30.043C6.81756 37.947 18.4747 37.9381 18.8097 30.0429C18.809 28.4621 18.1589 26.9462 17.0022 25.8284C15.8456 24.7105 14.2771 24.0822 12.6415 24.0815ZM13.8777 28.8857V31.2879C13.8941 31.786 13.7059 32.2701 13.3542 32.6346C13.0026 32.9991 12.516 33.2143 12.0007 33.2333H11.4441C11.0111 33.207 10.6047 33.0222 10.3077 32.7166C10.0107 32.411 9.84541 32.0074 9.84541 31.5881C9.84541 31.1688 10.0107 30.7653 10.3077 30.4596C10.6047 30.154 11.0111 29.9692 11.4441 29.9429C11.619 29.9423 11.7874 30.007 11.914 30.1236C12.0407 30.2402 12.1158 30.3996 12.1237 30.5685C12.1269 30.6493 12.1132 30.73 12.0834 30.8056C12.0537 30.8813 12.0084 30.9504 11.9504 31.0087C11.8925 31.0671 11.8229 31.1136 11.7459 31.1454C11.6689 31.1773 11.5861 31.1938 11.5023 31.194C11.2985 31.1684 11.1424 31.3469 11.1399 31.5881C11.1399 31.8008 11.2758 31.9822 11.4441 31.9822H12.0007C12.1724 31.9631 12.3296 31.8796 12.4385 31.7499C12.5474 31.6201 12.5993 31.4542 12.5832 31.2879V27.472C12.5863 27.3509 12.6253 27.2332 12.6957 27.1329C12.7661 27.0327 12.8649 26.9541 12.9802 26.9066C13.0955 26.8591 13.2226 26.8447 13.3461 26.8651C13.4697 26.8855 13.5846 26.9399 13.6771 27.0216C14.2867 27.5908 14.9354 28.1196 15.6188 28.6042C15.7145 28.6111 15.8074 28.6388 15.8903 28.6854C15.9733 28.732 16.0442 28.7962 16.0978 28.8732C16.1459 28.941 16.1797 29.0172 16.1973 29.0976C16.215 29.178 16.216 29.261 16.2003 29.3417C16.1847 29.4225 16.1527 29.4995 16.1062 29.5683C16.0598 29.6371 15.9997 29.6964 15.9295 29.7427C15.6123 29.9554 15.3664 30.1181 13.8777 28.8857Z" fill="white"/>
<path d="M12.6415 21.517C14.2762 21.5167 15.8439 20.8893 17.0004 19.7728C18.1569 18.6562 18.8076 17.1417 18.8097 15.5618C18.4817 7.65799 6.8081 7.65366 6.47974 15.5618C6.48145 17.1407 7.13118 18.6545 8.28636 19.771C9.44154 20.8874 11.0078 21.5154 12.6415 21.517ZM10.4927 15.1864H11.4959V14.1355C11.4965 13.5235 11.7484 12.9368 12.1961 12.504C12.6439 12.0713 13.251 11.8279 13.8842 11.8273C14.5527 11.8123 15.7979 12.1891 15.347 13.0283C15.257 13.1685 15.1134 13.2688 14.9474 13.3074C14.7814 13.3461 14.6064 13.3199 14.4602 13.2347C14.2873 13.1311 14.0876 13.0769 13.8842 13.0783C13.7405 13.0782 13.5982 13.1054 13.4654 13.1585C13.3326 13.2115 13.2119 13.2894 13.1103 13.3876C13.0087 13.4858 12.9282 13.6024 12.8733 13.7308C12.8183 13.8591 12.7902 13.9966 12.7904 14.1355V15.1864H14.0136C14.1835 15.189 14.3455 15.2561 14.4647 15.3731C14.5839 15.4901 14.6507 15.6478 14.6507 15.812C14.6507 15.9762 14.5839 16.1338 14.4647 16.2509C14.3455 16.3679 14.1835 16.4349 14.0136 16.4375H12.7904V18.6707C12.7906 18.753 12.7741 18.8346 12.7417 18.9107C12.7093 18.9868 12.6616 19.056 12.6015 19.1143C12.5414 19.1726 12.4699 19.2189 12.3913 19.2504C12.3126 19.282 12.2283 19.2983 12.1431 19.2983C12.058 19.2983 11.9736 19.282 11.895 19.2504C11.8163 19.2189 11.7449 19.1726 11.6847 19.1143C11.6246 19.056 11.577 18.9868 11.5446 18.9107C11.5122 18.8346 11.4956 18.753 11.4959 18.6707V16.4375H10.4927C10.3228 16.4349 10.1608 16.3679 10.0416 16.2509C9.92237 16.1338 9.85557 15.9762 9.85557 15.812C9.85557 15.6478 9.92237 15.4901 10.0416 15.3731C10.1608 15.2561 10.3228 15.189 10.4927 15.1864Z" fill="white"/>
<path d="M26.1812 14.5608C27.8398 14.5583 29.4296 13.92 30.6018 12.7859C31.7739 11.6519 32.4327 10.1147 32.4336 8.51176C32.0933 0.49175 20.2638 0.5004 19.9224 8.5118C19.9247 10.1154 20.5849 11.6527 21.7581 12.7866C22.9314 13.9205 24.522 14.5585 26.1812 14.5608ZM22.7056 6.76649C22.7052 6.33943 22.8801 5.92965 23.1919 5.62708C23.5038 5.32451 23.9271 5.15386 24.3689 5.15257H27.987C28.4296 5.15361 28.8537 5.32399 29.1666 5.62643C29.4796 5.92887 29.6559 6.33878 29.6569 6.76649V10.2633C29.6556 10.6904 29.479 11.0995 29.166 11.4009C28.8529 11.7023 28.4289 11.8713 27.987 11.8709H24.3689C24.1505 11.871 23.9341 11.8295 23.7323 11.7487C23.5305 11.6679 23.3471 11.5495 23.1926 11.4002C23.0381 11.2509 22.9156 11.0737 22.832 10.8786C22.7485 10.6835 22.7055 10.4744 22.7056 10.2633V6.76649Z" fill="white"/>
<path d="M24.3704 10.6197H27.9885C28.0374 10.6204 28.086 10.6117 28.1315 10.5941C28.1769 10.5765 28.2183 10.5503 28.2532 10.5172C28.2881 10.484 28.3159 10.4445 28.3349 10.4009C28.3539 10.3573 28.3638 10.3105 28.3639 10.2632V6.7664C28.3638 6.67019 28.3243 6.57795 28.2539 6.50992C28.1835 6.44189 28.088 6.40364 27.9885 6.40356H24.3704C24.3215 6.40373 24.273 6.41327 24.2279 6.43164C24.1828 6.45001 24.1419 6.47684 24.1076 6.51058C24.0733 6.54432 24.0463 6.58431 24.028 6.62822C24.0098 6.67213 24.0008 6.71909 24.0015 6.7664V10.2632C24.0009 10.3102 24.0101 10.3568 24.0284 10.4003C24.0468 10.4438 24.0739 10.4833 24.1083 10.5165C24.1427 10.5497 24.1836 10.576 24.2286 10.5937C24.2736 10.6114 24.3218 10.6203 24.3704 10.6197ZM26.1827 6.79766C26.6499 6.80351 27.096 6.987 27.4242 7.3084C27.7525 7.62979 27.9365 8.06322 27.9365 8.51482C27.9365 8.96642 27.7524 9.39984 27.4242 9.72122C27.0959 10.0426 26.6499 10.2261 26.1826 10.2319C25.7154 10.2261 25.2694 10.0426 24.9411 9.72118C24.6129 9.39979 24.4288 8.96636 24.4288 8.51476C24.4289 8.06316 24.6129 7.62974 24.9412 7.30836C25.2694 6.98698 25.7155 6.8035 26.1827 6.79766Z" fill="white"/>
<path d="M26.1822 8.98088C26.3079 8.9777 26.4273 8.92721 26.5151 8.84015C26.6028 8.7531 26.6519 8.63637 26.6519 8.51484C26.6519 8.39331 26.6028 8.27659 26.515 8.18954C26.4273 8.10249 26.3078 8.052 26.1821 8.04883C26.0564 8.05201 25.937 8.10251 25.8492 8.18956C25.7615 8.27661 25.7124 8.39334 25.7124 8.51487C25.7124 8.6364 25.7615 8.75313 25.8493 8.84017C25.937 8.92722 26.0565 8.97771 26.1822 8.98088Z" fill="white"/>
</svg>
