<svg width="42" height="40" viewBox="0 0 42 40" fill="none" xmlns="http://www.w3.org/2000/svg">
<path d="M20.9051 33.2417C17.2181 33.2417 14.2186 30.3427 14.2186 26.7793C14.2186 26.2938 13.8113 25.9001 13.309 25.9001C12.8067 25.9001 12.3994 26.2938 12.3994 26.7793C12.3994 31.3121 16.215 34.9999 20.9051 34.9999C21.4074 34.9999 21.8147 34.6063 21.8147 34.1208C21.8147 33.6353 21.4074 33.2417 20.9051 33.2417Z" fill="white"/>
<path d="M20.9096 29.7252C19.2288 29.7252 17.8614 28.4037 17.8614 26.7793C17.8614 26.2938 17.4542 25.9001 16.9518 25.9001C16.4495 25.9001 16.0422 26.2938 16.0422 26.7793C16.0422 29.3732 18.2257 31.4834 20.9096 31.4834C21.4119 31.4834 21.8192 31.0898 21.8192 30.6043C21.8192 30.1188 21.4119 29.7252 20.9096 29.7252Z" fill="white"/>
<path d="M28.3875 13.6218C29.0605 13.6218 29.7159 13.6961 30.3454 13.8364V5.50366L19.6999 13.8072C19.1951 14.2011 18.5597 14.418 17.9109 14.418C17.2621 14.418 16.6267 14.2011 16.1219 13.8072L5.47632 5.50366V19.3142C5.47632 19.8634 5.937 20.3087 6.50519 20.3087H19.8678C20.6937 16.4949 24.1998 13.6218 28.3875 13.6218Z" fill="white"/>
<path d="M28.3867 31.3879C29.6563 31.3879 30.6922 30.4057 30.7256 29.1863H26.0479C26.0812 30.4057 27.1172 31.3879 28.3867 31.3879Z" fill="white"/>
<path d="M35.6157 25.6698C35.4274 25.6698 35.2741 25.5217 35.2741 25.3397V22.0344C35.2741 18.3652 32.1855 15.3801 28.3891 15.3801C24.5927 15.3801 21.5041 18.3652 21.5041 22.0344V25.3397C21.5041 25.5217 21.3509 25.6698 21.1625 25.6698C20.6602 25.6698 20.2529 26.0635 20.2529 26.549C20.2529 27.0345 20.6602 27.4281 21.1625 27.4281H35.6157C36.118 27.4281 36.5253 27.0345 36.5253 26.549C36.5253 26.0635 36.118 25.6698 35.6157 25.6698Z" fill="white"/>
<path d="M17.9081 12.6599C18.137 12.6599 18.3659 12.5863 18.5544 12.4392L28.0892 5H7.72705L17.2618 12.4392C17.4503 12.5863 17.6793 12.6599 17.9081 12.6599Z" fill="white"/>
</svg>
