<svg width="42" height="40" viewBox="0 0 42 40" fill="none" xmlns="http://www.w3.org/2000/svg">
<g clip-path="url(#clip0_173_5058)">
<path d="M9.11626 10.8104C9.016 10.7783 8.91606 10.7783 8.81612 10.7783C8.34929 10.7783 7.94952 11.0684 7.81605 11.5193C7.74932 11.777 7.78285 12.0349 7.91599 12.2602C8.04947 12.4858 8.28288 12.6469 8.5495 12.7435C9.11626 12.9046 9.68271 12.5824 9.84938 12.067C9.91612 11.8094 9.88291 11.5517 9.74944 11.3261C9.6163 11.0684 9.38288 10.9073 9.11626 10.8104Z" fill="white"/>
<path d="M14.7523 15.5142C15.6856 15.5142 16.5858 15.2886 17.3859 14.8374C17.7193 14.6442 18.1194 14.7408 18.3193 15.063C18.5192 15.3852 18.4192 15.7718 18.0859 15.965C17.0858 16.5452 15.9191 16.835 14.7523 16.835C14.5524 16.835 14.3522 16.835 14.1523 16.8029" fill="white"/>
<path d="M11.5838 14.4831C12.4507 15.1275 13.5172 15.4818 14.6175 15.5142C15.3841 12.2924 13.3505 9.00607 9.98373 8.10403C9.65037 8.00744 9.31702 7.97503 9.01687 7.91054L10.1172 8.36171C9.91699 8.74839 9.78385 9.16717 9.68358 9.61834C10.2503 9.81153 10.7172 10.1658 11.017 10.6815C11.3171 11.2292 11.4171 11.8412 11.2504 12.4211C10.9506 13.4521 9.98373 14.0965 8.91693 14.0965C8.71705 14.0965 8.48363 14.0644 8.25022 13.9999C7.61704 13.8388 7.11701 13.4521 6.78366 12.9043C6.48351 12.3569 6.38357 11.7446 6.55024 11.1647C6.78366 10.3269 7.48357 9.74703 8.28375 9.55384C8.38369 8.97398 8.55037 8.42621 8.81699 7.87844C7.48357 7.74945 6.18336 8.00744 4.98342 8.6518C3.45012 9.48935 2.34979 10.8102 1.84976 12.4535C1.08311 14.9343 1.91649 17.5118 3.91662 19.0582C4.01656 19.1548 4.05009 19.2838 4.01656 19.3803L2.68314 24.3096C2.68314 24.4062 2.68314 24.4707 2.71667 24.5352L3.48332 26.2106C3.55006 26.3717 3.48332 26.5328 3.34985 26.6294L2.08317 27.4349C1.95002 27.5314 1.88329 27.6925 1.95002 27.8536L2.5832 29.1423C2.64994 29.3034 2.61673 29.4645 2.45005 29.5611L1.21658 30.3345C1.08311 30.4311 1.01637 30.5922 1.08311 30.7532L1.71661 32.042C1.78335 32.2031 1.71661 32.3962 1.58314 32.4607L0.483133 33.0406C0.316456 33.1375 0.24972 33.3307 0.349662 33.4918L1.58314 35.6505C1.61667 35.715 1.71661 35.7791 1.78335 35.8115H1.88329C1.95002 35.8115 2.01643 35.8115 2.04996 35.7791L4.61686 34.3293C4.68327 34.2972 4.75 34.2327 4.78353 34.1361L8.75025 20.9588C8.78378 20.8302 8.88372 20.7336 9.01687 20.7336C11.1505 20.4435 13.1174 18.8971 14.0839 16.835C12.8504 16.7384 11.6505 16.2872 10.6504 15.5463C10.3503 15.3207 10.2839 14.9019 10.517 14.6121C10.8503 14.3221 11.2839 14.2576 11.5838 14.4831Z" fill="white"/>
<path d="M8.78516 7.84652C9.85163 5.71994 12.1519 4.23804 14.752 4.23804C17.8189 4.23804 20.519 6.33221 21.1857 9.16733C21.2524 9.52161 21.019 9.87619 20.6524 9.94069C20.2859 10.0049 19.919 9.7796 19.819 9.42501C19.2858 7.16975 17.1522 5.52676 14.7188 5.52676C12.6851 5.52676 10.8852 6.65439 10.0183 8.32979" fill="white"/>
<path d="M41.4872 21.4424L29.7866 10.263C29.5197 10.005 28.7865 9.42517 27.9196 9.39308L20.3524 8.71631C20.3192 8.71631 20.3192 8.71631 20.286 8.71631H20.1193C19.3191 8.71631 18.6524 9.0064 18.0525 9.58626C17.419 10.1985 17.1523 10.8429 17.1523 11.7449V11.8094L17.8191 19.0585C17.8191 19.896 18.4526 20.5728 18.7192 20.8305L30.4198 32.0102C30.5532 32.1389 30.7199 32.2034 30.9198 32.2034C31.12 32.2034 31.2867 32.1389 31.4198 32.0102L41.5204 22.3769C41.7538 22.1192 41.7538 21.7004 41.4872 21.4424ZM25.7196 20.6694C25.5529 20.6694 25.3527 20.6049 25.2196 20.4759C24.953 20.2182 24.953 19.7994 25.2196 19.5418L28.5531 16.352C28.8197 16.0944 29.253 16.0944 29.5197 16.352C29.7866 16.6097 29.7866 17.0288 29.5197 17.2865L26.1861 20.4759C26.053 20.6049 25.8863 20.6694 25.7196 20.6694ZM33.42 20.9916L30.0864 24.181C29.9533 24.31 29.7866 24.3745 29.5864 24.3745C29.3865 24.3745 29.2198 24.31 29.0864 24.181C28.8197 23.9233 28.8197 23.5045 29.0864 23.2468L32.4199 20.0571C32.6865 19.7994 33.1201 19.7994 33.3868 20.0571C33.6866 20.3148 33.6866 20.7339 33.42 20.9916Z" fill="white"/>
</g>
<defs>
<clipPath id="clip0_173_5058">
<rect width="41.3873" height="40" fill="white" transform="translate(0.306396)"/>
</clipPath>
</defs>
</svg>
