<svg width="42" height="42" viewBox="0 0 42 42" fill="none" xmlns="http://www.w3.org/2000/svg">
<g clip-path="url(#clip0_1_2437)">
<path d="M22.1904 22.1904V37.6592H35.3587C37.3302 37.6592 38.9284 36.061 38.9284 34.0895H35.3587V31.7097H36.5486C38.5239 31.7097 40.1183 30.1151 40.1183 28.1399H35.3587V25.7601H38.9284C40.1338 25.7601 41.3082 24.7745 41.3082 23.3803V22.1904H22.1904Z" fill="#D8E0F0"/>
<path d="M19.8107 22.1904V37.6592H6.64239C4.67088 37.6592 3.07268 36.061 3.07268 34.0895H6.64239V31.7097H5.45249C3.47717 31.7097 1.88278 30.1151 1.88278 28.1399H6.64239V25.7601H3.07268C1.86731 25.7601 0.692871 24.7745 0.692871 23.3803V22.1904H19.8107Z" fill="#F3F5F9"/>
<path d="M21.0006 18.6206C15.0988 18.6206 10.2915 23.4277 10.2915 29.3297C10.2915 35.2316 15.0988 40.0389 21.0006 40.0389C26.9025 40.0389 31.7098 35.2316 31.7098 29.3297C31.7098 23.4277 26.9025 18.6206 21.0006 18.6206Z" fill="#FFDF40"/>
<path d="M31.7096 29.3297C31.7096 35.2316 26.9023 40.0389 21.0005 40.0389V18.6206C26.9023 18.6206 31.7096 23.4277 31.7096 29.3297Z" fill="#FFBE40"/>
<path d="M28.0685 27.0448L23.1899 26.3071L21.0006 21.9045L18.8112 26.3071L13.9326 27.0448L17.4547 30.4956L16.6454 35.3265L21.0006 33.0658L25.3557 35.3266L24.5465 30.4956L28.0685 27.0448Z" fill="#FFBE40"/>
<path d="M26.3551 10.2912H23.3804V16.2408H18.6208V10.2912H15.646L21.0006 1.96191L26.3551 10.2912Z" fill="#FF7F40"/>
<path d="M26.3551 10.2912H23.3803V16.2408H21.0005V1.96191L26.3551 10.2912Z" fill="#F25A3C"/>
<path d="M24.5464 30.4956L25.3556 35.3266L21.0005 33.0658V21.9045L23.1898 26.3071L28.0684 27.0448L24.5464 30.4956Z" fill="#FF9F40"/>
</g>
<defs>
<clipPath id="clip0_1_2437">
<rect width="40.6154" height="40.6154" fill="white" transform="translate(0.692383 0.692383)"/>
</clipPath>
</defs>
</svg>
