<svg width="42" height="40" viewBox="0 0 42 40" fill="none" xmlns="http://www.w3.org/2000/svg">
<path d="M27.855 22.3418C27.423 22.0493 26.9109 21.8873 26.3836 21.8761C25.8563 21.8649 25.3373 22.0052 24.8925 22.279C24.4476 22.5529 24.0967 22.9482 23.8843 23.4148C23.6719 23.8814 23.6074 24.3984 23.699 24.9004C23.7906 25.4025 24.0342 25.867 24.399 26.2352C24.7637 26.6034 25.2333 26.8588 25.7483 26.9691C26.2633 27.0794 26.8005 27.0396 27.2921 26.8547C27.7837 26.6699 28.2075 26.3483 28.5099 25.9307C28.7129 25.6542 28.857 25.3415 28.934 25.0108C29.0109 24.68 29.0192 24.3378 28.9583 24.004C28.8974 23.6702 28.7685 23.3513 28.5791 23.066C28.3897 22.7807 28.1436 22.5345 27.855 22.3418Z" fill="white"/>
<path d="M36.7795 19.7741C38.0209 16.3536 38.7867 12.7889 39.0568 9.17353C39.0772 8.90978 39.0262 8.64544 38.9089 8.40647C38.7917 8.16749 38.6122 7.96208 38.388 7.81041C38.1638 7.65874 37.9026 7.56601 37.6302 7.54133C37.3577 7.51664 37.0833 7.56085 36.8338 7.66962C31.6431 9.91166 26.9762 13.1469 23.1147 17.1801C23.0958 17.2025 23.0717 17.2203 23.0444 17.232C23.0171 17.2438 22.9873 17.2492 22.9575 17.2479C22.2295 17.2145 21.4999 17.2444 20.7774 17.337C19.2431 17.5335 17.7426 17.9259 16.3151 18.504C15.0318 19.0395 13.892 19.8511 12.9826 20.877C12.7827 21.1005 12.6337 21.3621 12.545 21.6448C12.4564 21.9275 12.4301 22.2251 12.468 22.5182C12.5058 22.8113 12.607 23.0935 12.7648 23.3465C12.9226 23.5995 13.1337 23.8176 13.3842 23.9868L16.3404 25.9874C16.3929 26.0231 16.4286 26.0775 16.4397 26.1386C16.4508 26.1996 16.4365 26.2625 16.3997 26.3134L15.0098 28.2317C14.8453 28.4586 14.7286 28.7146 14.6665 28.9851C14.6044 29.2555 14.598 29.5352 14.6478 29.808C14.6975 30.0809 14.8024 30.3416 14.9564 30.5753C15.1104 30.809 15.3105 31.011 15.5453 31.1699L23.4886 36.5459C23.9629 36.866 24.5492 36.9912 25.1189 36.8941C25.6885 36.7969 26.1951 36.4854 26.5274 36.0277L27.918 34.1082C27.9555 34.0579 28.0118 34.0237 28.0749 34.013C28.138 34.0022 28.203 34.0158 28.2559 34.0508L31.2108 36.0509C31.461 36.2208 31.7454 36.338 32.0454 36.3949C32.3455 36.4518 32.6545 36.4471 32.9526 36.3812C33.2507 36.3154 33.5312 36.1897 33.7758 36.0124C34.0205 35.8351 34.2238 35.6102 34.3728 35.3521C35.0593 34.1754 35.4585 32.8627 35.5399 31.5142C35.6564 29.2969 35.3067 27.0798 34.5117 24.9968C34.5009 24.9712 34.4966 24.9433 34.4993 24.9157C34.5019 24.8881 34.5114 24.8614 34.5269 24.8381C35.3956 23.2013 36.1482 21.5095 36.7795 19.7741ZM30.1037 27.0062C29.7581 27.4863 29.3174 27.8954 28.807 28.2097C28.2966 28.524 27.7268 28.7373 27.1305 28.8372C26.8633 28.8831 26.5924 28.9062 26.3209 28.9062C25.2898 28.9045 24.2891 28.5687 23.4789 27.9523C22.6686 27.3359 22.0958 26.4747 21.8519 25.5065C21.608 24.5382 21.7072 23.5188 22.1336 22.6115C22.56 21.7042 23.289 20.9613 24.2039 20.5018C25.1189 20.0422 26.1668 19.8926 27.1802 20.0768C28.1935 20.2609 29.1137 20.7683 29.7934 21.5177C30.4731 22.267 30.873 23.2151 30.9293 24.2101C30.9856 25.2052 30.6949 26.1897 30.1037 27.0062Z" fill="white"/>
<path d="M15.176 26.25C12.9016 26.2509 10.6716 25.6417 8.73425 24.4902C6.79691 23.3386 5.2283 21.69 4.20309 19.7278C3.17788 17.7656 2.73631 15.5669 2.92755 13.3765C3.11879 11.1861 3.93534 9.09002 5.28627 7.32162C6.6372 5.55322 8.46948 4.18192 10.5791 3.36043C12.6887 2.53894 14.9928 2.29949 17.2349 2.66876C19.477 3.03802 21.569 4.0015 23.2781 5.45191C24.9871 6.90232 26.246 8.78273 26.9147 10.8838C27.0148 11.2007 26.9806 11.5431 26.8199 11.8357C26.6591 12.1284 26.3848 12.3475 26.0571 12.445C25.935 12.4815 25.8079 12.5 25.6801 12.5C25.4028 12.5012 25.1325 12.416 24.9094 12.2568C24.6863 12.0977 24.5223 11.8733 24.4417 11.6168C23.9131 9.95904 22.9189 8.47555 21.5696 7.3315C20.2204 6.18745 18.5692 5.42773 16.7997 5.13691C15.0302 4.84609 13.2119 5.03557 11.5473 5.68427C9.88261 6.33298 8.43687 7.41544 7.37101 8.81117C6.30514 10.2069 5.66096 11.8611 5.51017 13.5897C5.35938 15.3183 5.70791 17.0534 6.51695 18.6019C7.32598 20.1504 8.56379 21.4516 10.0926 22.3605C11.6214 23.2694 13.3812 23.7504 15.176 23.75C15.552 23.7499 15.9276 23.7279 16.3008 23.6841L16.4504 23.6755C16.7671 23.6751 17.073 23.7866 17.3107 23.9889C17.5483 24.1912 17.7012 24.4705 17.7406 24.7742C17.782 25.1033 17.6864 25.4347 17.4748 25.6957C17.2633 25.9567 16.9532 26.1258 16.6127 26.1658C16.136 26.2218 15.6563 26.2499 15.176 26.25Z" fill="white"/>
<path d="M26.1733 13.7499C25.9986 13.7498 25.8256 13.7155 25.665 13.6492L21.1376 11.7742C20.9814 11.7095 20.84 11.6158 20.7213 11.4983C20.6026 11.3808 20.509 11.2419 20.4459 11.0895C20.3828 10.9371 20.3513 10.7741 20.3534 10.6099C20.3554 10.4458 20.3909 10.2836 20.4578 10.1326C20.5246 9.98172 20.6216 9.84501 20.7432 9.73031C20.8647 9.61561 21.0085 9.52517 21.1662 9.46416C21.3239 9.40314 21.4925 9.37275 21.6624 9.37472C21.8322 9.37668 22.0001 9.41096 22.1562 9.47561L25.4944 10.8586L26.9249 7.63233C27.0248 7.40738 27.1907 7.21567 27.4022 7.08094C27.6137 6.9462 27.8614 6.87435 28.1147 6.87427C28.373 6.87493 28.6253 6.9501 28.8391 7.09015C29.053 7.23021 29.2188 7.42876 29.3152 7.66041C29.3786 7.8128 29.4102 7.97582 29.4082 8.14008C29.4061 8.30433 29.3704 8.46657 29.3032 8.61743L27.3631 12.9924C27.2633 13.2174 27.0973 13.409 26.8858 13.5437C26.6743 13.6783 26.4266 13.75 26.1733 13.7499Z" fill="white"/>
<path d="M11.9462 18.75C11.6904 18.7499 11.4404 18.6766 11.2277 18.5393C11.0151 18.4019 10.8494 18.2067 10.7515 17.9783C10.6536 17.7499 10.628 17.4987 10.6779 17.2562C10.7278 17.0138 10.8509 16.7911 11.0318 16.6162L13.8862 13.8575V9.375C13.8862 9.04348 14.0224 8.72554 14.265 8.49112C14.5075 8.2567 14.8365 8.125 15.1795 8.125C15.5226 8.125 15.8515 8.2567 16.0941 8.49112C16.3366 8.72554 16.4729 9.04348 16.4729 9.375V14.375C16.4718 14.7063 16.3356 15.0238 16.0939 15.2587L12.8606 18.3837C12.7408 18.5002 12.5983 18.5926 12.4413 18.6554C12.2844 18.7183 12.1161 18.7504 11.9462 18.75Z" fill="white"/>
</svg>
