<svg width="42" height="40" viewBox="0 0 42 40" fill="none" xmlns="http://www.w3.org/2000/svg">
    <path d="M9.55841 5.24279L15.9587 11.4285H4.87278C5.09899 10.1152 5.64074 8.87141 6.4545 7.79713C7.26827 6.72284 8.33136 5.84797 9.55841 5.24279ZM18.1611 4.28565H13.6084C13.3276 4.28565 13.0468 4.29993 12.7659 4.31422L20.1269 11.4285H25.5516L18.1611 4.28565ZM28.3896 4.28565H22.3589L29.7495 11.4285H37.1253C36.779 9.43146 35.7112 7.61781 34.1117 6.30996C32.5123 5.00212 30.4847 4.28484 28.3896 4.28565ZM18.7551 28.0371L26.1457 24.1085C26.3778 23.9854 26.5713 23.8044 26.7062 23.5842C26.841 23.364 26.9122 23.1129 26.9122 22.8571C26.9122 22.6012 26.841 22.3501 26.7062 22.13C26.5713 21.9098 26.3778 21.7287 26.1457 21.6056L18.7551 17.6771C18.5301 17.5575 18.2767 17.4966 18.0199 17.5004C17.7631 17.5043 17.5117 17.5727 17.2906 17.6991C17.0695 17.8254 16.8863 18.0052 16.759 18.2208C16.6317 18.4364 16.5647 18.6803 16.5647 18.9285V26.7856C16.5647 27.0339 16.6317 27.2778 16.759 27.4934C16.8863 27.709 17.0695 27.8888 17.2906 28.0151C17.5117 28.1414 17.7631 28.2099 18.0199 28.2137C18.2767 28.2176 18.5301 28.1567 18.7551 28.0371ZM37.2583 14.2856V27.1428C37.2564 29.4155 36.3215 31.5946 34.6587 33.2017C32.9959 34.8088 30.7412 35.7124 28.3896 35.7142H13.6084C11.2569 35.7124 9.0022 34.8088 7.3394 33.2017C5.67661 31.5946 4.74163 29.4155 4.73975 27.1428V14.2856H37.2583Z" fill="white"/>
</svg>