<svg width="42" height="40" viewBox="0 0 42 40" fill="none" xmlns="http://www.w3.org/2000/svg">
<path d="M35.1903 18.1359C34.6891 18.2695 34.3135 18.6671 34.3135 19.1696V28.8618C34.3135 29.6119 35.1014 30.1228 35.8193 29.8379C38.2036 28.8918 39.6243 27.7098 39.6243 26.4273V15.2581C39.6243 15.2581 38.0377 17.3765 35.1903 18.1359Z" fill="white"/>
<path d="M6.80977 18.1359C3.96236 17.3765 2.37573 15.2581 2.37573 15.2581V26.4273C2.37573 27.7098 3.79642 28.8918 6.18076 29.8378C6.89859 30.1227 7.68656 29.6118 7.68656 28.8618V19.1696C7.68656 18.6672 7.31095 18.2695 6.80977 18.1359Z" fill="white"/>
<path d="M23.0242 19.2656H18.9722C17.7099 19.2656 16.6868 20.2545 16.6868 21.4744V24.2855C16.6868 24.6739 17.0125 24.9886 17.4143 24.9886H18.4225L19.3929 32.8196C19.4441 33.1661 19.751 33.4233 20.1131 33.4233H21.8833C22.2453 33.4233 22.5523 33.1661 22.6035 32.8196L23.5739 24.9886H24.5821C24.9839 24.9886 25.3096 24.6739 25.3096 24.2855V21.4744C25.3097 20.2546 24.2864 19.2656 23.0242 19.2656Z" fill="white"/>
<path d="M22.4968 16.198C22.8374 15.4039 22.4474 14.4933 21.6258 14.1642C20.8041 13.835 19.862 14.2119 19.5214 15.006C19.1809 15.8001 19.5708 16.7107 20.3925 17.0398C21.2141 17.369 22.1562 16.9921 22.4968 16.198Z" fill="white"/>
<path d="M39.6243 12.4449C39.6243 9.20396 31.2859 6.57666 21 6.57666C10.7141 6.57666 2.37573 9.20396 2.37573 12.4449C2.72137 13.0535 4.11681 14.7039 8.3518 16.2396C9.24038 16.5618 9.86909 17.3312 9.86909 18.2485V22.1249C11.2676 21.7369 12.8349 21.4292 14.5153 21.2083C14.6307 19.384 15.9225 17.8622 17.6656 17.3452C17.3734 16.826 17.2074 16.2313 17.2074 15.5998C17.2074 13.5787 18.9087 11.9343 20.9999 11.9343C23.0912 11.9343 24.7925 13.5787 24.7925 15.5998C24.7925 16.2313 24.6264 16.826 24.3343 17.3452C26.0774 17.8622 27.3692 19.384 27.4845 21.2083C29.165 21.4292 30.7324 21.7369 32.1309 22.1249V18.2485C32.1309 17.3312 32.7596 16.5618 33.6482 16.2396C37.8832 14.7039 39.2786 13.0535 39.6243 12.4449Z" fill="white"/>
</svg>
