<svg width="42" height="40" viewBox="0 0 42 40" fill="none" xmlns="http://www.w3.org/2000/svg">
<path fill-rule="evenodd" clip-rule="evenodd" d="M22.4778 3.05708C26.4676 3.38684 30.2083 5.1315 33.025 7.97635C35.8184 10.8027 37.5184 14.5285 37.8226 18.4906C38.1267 22.4528 37.0154 26.3943 34.6862 29.614C32.357 32.8336 28.9611 35.1225 25.1027 36.0733C21.2444 37.0242 17.1738 36.5753 13.6153 34.8066L5.13951 36.8156C5.01105 36.8464 4.87625 36.8373 4.75311 36.7894C4.62997 36.7416 4.52436 36.6574 4.45037 36.5479C4.39986 36.4758 4.36478 36.3941 4.34731 36.3078C4.32984 36.2215 4.33036 36.1325 4.34884 36.0465L6.13015 27.3984C4.3155 23.8299 3.83579 19.7303 4.77754 15.8393C5.71929 11.9482 8.02051 8.52175 11.2661 6.17795C14.5117 3.83415 18.488 2.72731 22.4778 3.05708ZM23.2071 32.7368C25.9238 32.2952 28.4334 31.0123 30.3823 29.0689C32.835 26.616 34.2184 23.2929 34.2311 19.8241C34.2438 16.3553 32.8846 13.0222 30.45 10.5514C30.4259 10.5304 30.4033 10.5078 30.3823 10.4837C27.9171 8.01925 24.574 6.63479 21.0881 6.63479C17.6023 6.63479 14.2592 8.01925 11.794 10.4837C9.83205 12.4459 8.54145 14.9786 8.10707 17.7192C7.67269 20.4597 8.11683 23.2675 9.37587 25.7401L9.95425 26.8815L8.87747 32.1116L8.86209 32.1762L14.0583 30.9456L15.2397 31.5301C17.7038 32.7563 20.4905 33.1783 23.2071 32.7368ZM27.0162 27.7675C28.2807 27.463 29.2867 26.2354 29.9235 25.2325C30.0214 25.0724 30.0813 24.892 30.0988 24.7052C30.1162 24.5184 30.0907 24.3301 30.0242 24.1546C29.9577 23.9792 29.852 23.8212 29.7151 23.6929C29.5782 23.5646 29.4138 23.4693 29.2344 23.4143L25.9825 22.4913C25.7732 22.4319 25.5519 22.4291 25.3411 22.4832C25.1303 22.5372 24.9376 22.6462 24.7827 22.799L23.9797 23.6081C23.8165 23.7768 23.6064 23.8928 23.3767 23.941C23.1469 23.9893 22.908 23.9676 22.6907 23.8788C21.8785 23.5527 20.5956 22.5959 19.4388 21.5499C18.4082 20.6239 17.479 19.624 17.0914 18.9441C16.9747 18.7371 16.9225 18.4999 16.9417 18.2631C16.9609 18.0262 17.0506 17.8005 17.1991 17.615L17.8913 16.7167C18.0258 16.5446 18.1109 16.3391 18.1374 16.1223C18.164 15.9055 18.131 15.6856 18.042 15.4861L16.673 12.4096C16.5972 12.2368 16.482 12.0842 16.3367 11.964C16.1914 11.8437 16.0199 11.7591 15.836 11.717C15.6522 11.6748 15.461 11.6763 15.2778 11.7212C15.0946 11.7661 14.9244 11.8533 14.7809 11.9758C13.8734 12.7388 12.7966 13.9078 12.6674 15.2C12.4336 17.4766 13.3996 20.347 17.1191 23.7958L17.1714 23.8419C21.4016 27.786 24.8011 28.3028 27.0162 27.7675Z" fill="white"/>
</svg>
