<svg width="32" height="32" viewBox="0 0 32 32" fill="none" xmlns="http://www.w3.org/2000/svg">
<rect width="32" height="32" rx="16" fill="#ED1C24"/>
<g clip-path="url(#clip0_81_3648)">
<path fill-rule="evenodd" clip-rule="evenodd" d="M11.8539 24.5589C12.8182 25.2786 13.9637 25.7157 15.1623 25.8212C16.3609 25.9266 17.5652 25.6964 18.6403 25.1561C19.7154 24.6159 20.6189 23.787 21.2496 22.7623C21.8803 21.7376 22.2132 20.5576 22.2112 19.3543C22.2112 19.344 22.2094 19.3338 22.2094 19.3236C21.9373 17.3568 21.1716 16.3189 20.4333 15.3153C19.5915 14.1723 18.7969 13.0929 18.6136 10.6682C18.6103 10.6238 18.5943 10.5814 18.5674 10.546C18.5406 10.5106 18.5041 10.4837 18.4623 10.4685C18.4206 10.4533 18.3753 10.4505 18.332 10.4605C18.2886 10.4704 18.2491 10.4926 18.2181 10.5245C17.2034 11.56 16.4854 12.849 16.1391 14.2569C15.8234 13.3198 15.5892 12.0933 15.515 10.9193C15.397 9.08904 15.6583 7.51955 16.2461 6.49997C16.2718 6.45608 16.2821 6.40489 16.2756 6.35445C16.269 6.30401 16.2459 6.25719 16.2098 6.22133C16.1737 6.18544 16.1268 6.16241 16.0763 6.15579C16.0258 6.14916 15.9746 6.1593 15.9304 6.18465C13.7915 7.4198 11.8176 9.96964 10.5169 13.1806C9.26866 16.2559 8.90219 19.2915 9.53534 21.3013C9.94889 22.6028 10.7597 23.742 11.8539 24.5589ZM18.0566 20.6277C18.0562 20.5972 18.0619 20.5669 18.0733 20.5386C18.0847 20.5103 18.1016 20.4846 18.123 20.4629C18.1445 20.4412 18.17 20.4239 18.1982 20.4122C18.2263 20.4004 18.2565 20.3943 18.287 20.3943C18.3175 20.3943 18.3477 20.4004 18.3759 20.4122C18.404 20.4239 18.4296 20.4412 18.451 20.4629C18.4724 20.4846 18.4893 20.5103 18.5007 20.5386C18.5121 20.5669 18.5178 20.5972 18.5174 20.6277V22.5194H19.7856C19.8468 22.5194 19.9055 22.5437 19.9488 22.587C19.992 22.6302 20.0163 22.6889 20.0163 22.7501C20.0163 22.8113 19.992 22.87 19.9488 22.9133C19.9055 22.9565 19.8468 22.9808 19.7856 22.9808H18.2871C18.2259 22.9807 18.1673 22.9564 18.1241 22.9131C18.0809 22.8699 18.0567 22.8112 18.0567 22.7501V20.6277H18.0566ZM16.8338 21.3093L17.0533 21.9515H16.6144L16.8339 21.3093H16.8338ZM16.6161 20.5225C16.6312 20.4768 16.6604 20.4371 16.6996 20.4091C16.7387 20.3811 16.7857 20.3661 16.8338 20.3665C16.8818 20.3667 16.9285 20.3818 16.9675 20.4097C17.0066 20.4377 17.0359 20.4771 17.0515 20.5225L17.7989 22.7061C17.809 22.7347 17.8134 22.7651 17.8117 22.7955C17.81 22.8258 17.8023 22.8555 17.7891 22.8829C17.7758 22.9102 17.7573 22.9347 17.7346 22.9548C17.7118 22.975 17.6853 22.9905 17.6566 23.0003C17.6278 23.0102 17.5974 23.0143 17.5671 23.0123C17.5368 23.0104 17.5071 23.0024 17.4799 22.989C17.4527 22.9755 17.4283 22.9568 17.4084 22.9339C17.3884 22.911 17.3731 22.8844 17.3635 22.8555L17.2111 22.4129H16.4565L16.3041 22.8555C16.2885 22.9009 16.2592 22.9403 16.2202 22.9683C16.1812 22.9962 16.1344 23.0114 16.0864 23.0116C16.0611 23.0117 16.036 23.0075 16.0121 22.9991C15.9541 22.9793 15.9063 22.9374 15.8791 22.8825C15.8519 22.8276 15.8475 22.7642 15.8669 22.7061L16.6162 20.5225H16.6161ZM13.6317 20.6018C13.6317 20.5406 13.656 20.482 13.6992 20.4387C13.7424 20.3955 13.801 20.3711 13.8621 20.371H15.4006C15.4618 20.371 15.5205 20.3954 15.5637 20.4386C15.607 20.4819 15.6313 20.5406 15.6313 20.6018C15.6313 20.663 15.607 20.7216 15.5637 20.7649C15.5205 20.8082 15.4618 20.8325 15.4006 20.8325H14.0926V21.4582H15.4007C15.4619 21.4582 15.5206 21.4825 15.5638 21.5258C15.6071 21.5691 15.6314 21.6278 15.6314 21.689C15.6314 21.7501 15.6071 21.8088 15.5638 21.8521C15.5206 21.8954 15.4619 21.9197 15.4007 21.9197H14.0926V22.5455H15.4007C15.4619 22.5455 15.5206 22.5698 15.5638 22.6131C15.6071 22.6563 15.6314 22.715 15.6314 22.7762C15.6314 22.8374 15.6071 22.8961 15.5638 22.9394C15.5206 22.9826 15.4619 23.0069 15.4007 23.0069H13.8622C13.8011 23.0069 13.7425 22.9825 13.6993 22.9393C13.6561 22.896 13.6318 22.8374 13.6318 22.7762V20.6018H13.6317ZM13.4303 21.3679V22.0101C13.4299 22.2755 13.3242 22.53 13.1365 22.7177C12.9488 22.9054 12.6943 23.011 12.4289 23.0114H11.6579C11.5967 23.0113 11.5381 22.9869 11.4949 22.9437C11.4517 22.9004 11.4275 22.8418 11.4275 22.7806V20.5974C11.4275 20.5362 11.4517 20.4776 11.4949 20.4343C11.5381 20.3911 11.5967 20.3667 11.6579 20.3667H12.4289C12.6944 20.3671 12.9488 20.4727 13.1366 20.6604C13.3243 20.8481 13.4299 21.1026 13.4303 21.3681V21.3679ZM12.4289 20.8278C12.5721 20.828 12.7094 20.885 12.8108 20.9862C12.9121 21.0874 12.9692 21.2247 12.9695 21.3679V22.0101C12.9692 22.1533 12.9121 22.2905 12.8107 22.3917C12.7094 22.4929 12.5721 22.5499 12.4289 22.55H11.8884V20.8278H12.4289ZM14.4989 19.4543C14.4993 19.4848 14.4936 19.5151 14.4822 19.5434C14.4708 19.5717 14.4539 19.5974 14.4325 19.6191C14.411 19.6409 14.3855 19.6581 14.3574 19.6699C14.3292 19.6816 14.299 19.6877 14.2685 19.6877C14.238 19.6877 14.2078 19.6816 14.1796 19.6699C14.1515 19.6581 14.1259 19.6409 14.1045 19.6191C14.0831 19.5974 14.0662 19.5717 14.0548 19.5434C14.0434 19.5151 14.0377 19.4848 14.0381 19.4543V18.6237H13.0005V19.4543C13.0009 19.4848 12.9952 19.5151 12.9838 19.5434C12.9724 19.5717 12.9555 19.5974 12.9341 19.6191C12.9126 19.6409 12.8871 19.6581 12.8589 19.6699C12.8308 19.6816 12.8006 19.6877 12.7701 19.6877C12.7396 19.6877 12.7094 19.6816 12.6812 19.6699C12.6531 19.6581 12.6275 19.6409 12.6061 19.6191C12.5847 19.5974 12.5678 19.5717 12.5564 19.5434C12.5449 19.5151 12.5393 19.4848 12.5397 19.4543V17.3319C12.5393 17.3014 12.5449 17.2711 12.5564 17.2428C12.5678 17.2145 12.5847 17.1887 12.6061 17.167C12.6275 17.1453 12.6531 17.1281 12.6812 17.1163C12.7094 17.1045 12.7396 17.0985 12.7701 17.0985C12.8006 17.0985 12.8308 17.1045 12.8589 17.1163C12.8871 17.1281 12.9126 17.1453 12.9341 17.167C12.9555 17.1887 12.9724 17.2145 12.9838 17.2428C12.9952 17.2711 13.0009 17.3014 13.0005 17.3319V18.1625H14.0382V17.3319C14.0378 17.3014 14.0435 17.2711 14.0549 17.2428C14.0663 17.2145 14.0832 17.1887 14.1046 17.167C14.1261 17.1453 14.1516 17.1281 14.1797 17.1163C14.2079 17.1045 14.2381 17.0985 14.2686 17.0985C14.2991 17.0985 14.3293 17.1045 14.3575 17.1163C14.3856 17.1281 14.4112 17.1453 14.4326 17.167C14.454 17.1887 14.4709 17.2145 14.4823 17.2428C14.4937 17.2711 14.4994 17.3014 14.499 17.3319V19.4543H14.4989ZM15.8124 19.7155C15.5468 19.7154 15.2921 19.6099 15.1044 19.4221C14.9166 19.2343 14.811 18.9796 14.811 18.7141V18.0719C14.8101 17.94 14.8354 17.8092 14.8853 17.6871C14.9352 17.565 15.0088 17.454 15.1018 17.3604C15.1948 17.2668 15.3054 17.1926 15.4272 17.1419C15.5489 17.0912 15.6796 17.0651 15.8115 17.0651C15.9434 17.0651 16.074 17.0912 16.1958 17.1419C16.3176 17.1926 16.4282 17.2668 16.5212 17.3604C16.6142 17.454 16.6877 17.565 16.7376 17.6871C16.7875 17.8092 16.8128 17.94 16.812 18.0719V18.7141C16.812 18.9794 16.7067 19.2339 16.5193 19.4216C16.3318 19.6094 16.0775 19.7151 15.8122 19.7155H15.8124ZM16.3512 18.7141C16.3518 18.7853 16.3383 18.856 16.3114 18.922C16.2846 18.988 16.2449 19.0481 16.1947 19.0987C16.1446 19.1493 16.0849 19.1894 16.0191 19.2169C15.9533 19.2443 15.8827 19.2584 15.8115 19.2584C15.7402 19.2584 15.6697 19.2443 15.6039 19.2169C15.5381 19.1894 15.4784 19.1493 15.4282 19.0987C15.378 19.0481 15.3384 18.988 15.3115 18.922C15.2847 18.856 15.2711 18.7853 15.2717 18.7141V18.0719C15.2711 18.0006 15.2847 17.9299 15.3115 17.8639C15.3384 17.7979 15.378 17.7379 15.4282 17.6873C15.4784 17.6367 15.5381 17.5965 15.6039 17.5691C15.6697 17.5417 15.7402 17.5276 15.8115 17.5276C15.8827 17.5276 15.9533 17.5417 16.0191 17.5691C16.0849 17.5965 16.1446 17.6367 16.1947 17.6873C16.2449 17.7379 16.2846 17.7979 16.3114 17.8639C16.3383 17.9299 16.3518 18.0006 16.3512 18.0719V18.7141ZM17.6937 17.5626H17.175C17.1138 17.5626 17.0551 17.5383 17.0118 17.4951C16.9686 17.4518 16.9443 17.3931 16.9443 17.3319C16.9443 17.2707 16.9686 17.212 17.0118 17.1688C17.0551 17.1255 17.1138 17.1012 17.175 17.1012H18.6735C18.7347 17.1012 18.7934 17.1255 18.8367 17.1688C18.8799 17.212 18.9042 17.2707 18.9042 17.3319C18.9042 17.3931 18.8799 17.4518 18.8367 17.4951C18.7934 17.5383 18.7347 17.5626 18.6735 17.5626H18.1546V19.4543C18.1546 19.4845 18.1487 19.5145 18.1371 19.5425C18.1255 19.5704 18.1086 19.5958 18.0872 19.6172C18.0658 19.6386 18.0404 19.6556 18.0124 19.6672C17.9844 19.6787 17.9545 19.6847 17.9242 19.6847C17.894 19.6847 17.864 19.6787 17.836 19.6672C17.8081 19.6556 17.7827 19.6386 17.7613 19.6172C17.7399 19.5958 17.7229 19.5704 17.7113 19.5425C17.6998 19.5145 17.6938 19.4845 17.6938 19.4543L17.6937 17.5626Z" fill="white"/>
</g>
<defs>
<clipPath id="clip0_81_3648">
<rect width="19.6923" height="19.6923" fill="white" transform="translate(6.15381 6.15387)"/>
</clipPath>
</defs>
</svg>
