<svg width="32" height="32" viewBox="0 0 32 32" fill="none" xmlns="http://www.w3.org/2000/svg">
<path d="M16 32C24.8366 32 32 24.8366 32 16C32 7.16344 24.8366 0 16 0C7.16344 0 0 7.16344 0 16C0 24.8366 7.16344 32 16 32Z" fill="#29A71A"/>
<path d="M23.0546 8.94545C21.39 7.26417 19.1793 6.2331 16.8214 6.03822C14.4634 5.84333 12.1135 6.49746 10.1954 7.88262C8.27727 9.26777 6.91728 11.2928 6.36071 13.5923C5.80415 15.8919 6.08766 18.3147 7.16009 20.4236L6.10736 25.5345C6.09644 25.5854 6.09613 25.638 6.10645 25.689C6.11678 25.74 6.13751 25.7883 6.16736 25.8309C6.21109 25.8956 6.27351 25.9454 6.34628 25.9736C6.41905 26.0019 6.49872 26.0073 6.57463 25.9891L11.5837 24.8018C13.6867 25.8471 16.0924 26.1124 18.3727 25.5504C20.6529 24.9885 22.6599 23.6358 24.0364 21.733C25.4129 19.8303 26.0697 17.5008 25.8899 15.1592C25.7102 12.8177 24.7055 10.6158 23.0546 8.94545ZM21.4928 21.4109C20.341 22.5594 18.8579 23.3176 17.2524 23.5786C15.6469 23.8395 14 23.5901 12.5437 22.8654L11.8455 22.52L8.77463 23.2473L8.78373 23.2091L9.42009 20.1182L9.07827 19.4436C8.3342 17.9823 8.07172 16.323 8.32843 14.7033C8.58514 13.0837 9.34787 11.5869 10.5074 10.4273C11.9643 8.9708 13.94 8.1526 16.0001 8.1526C18.0602 8.1526 20.0359 8.9708 21.4928 10.4273C21.5052 10.4415 21.5186 10.4549 21.5328 10.4673C22.9717 11.9275 23.7749 13.8973 23.7674 15.9473C23.7599 17.9973 22.9423 19.9612 21.4928 21.4109Z" fill="white"/>
<path d="M21.22 19.1436C20.8437 19.7364 20.2491 20.4618 19.5019 20.6418C18.1928 20.9582 16.1837 20.6527 13.6837 18.3218L13.6528 18.2946C11.4546 16.2564 10.8837 14.56 11.0219 13.2146C11.0982 12.4509 11.7346 11.76 12.271 11.3091C12.3557 11.2367 12.4563 11.1852 12.5646 11.1586C12.6729 11.1321 12.7858 11.1312 12.8945 11.1561C13.0032 11.181 13.1045 11.231 13.1904 11.3021C13.2763 11.3732 13.3443 11.4634 13.3891 11.5655L14.1982 13.3836C14.2508 13.5015 14.2703 13.6315 14.2546 13.7596C14.2389 13.8878 14.1886 14.0092 14.1091 14.1109L13.7 14.6418C13.6123 14.7515 13.5593 14.8848 13.548 15.0248C13.5366 15.1648 13.5674 15.305 13.6364 15.4273C13.8655 15.8291 14.4146 16.42 15.0237 16.9673C15.7073 17.5855 16.4655 18.1509 16.9455 18.3436C17.0739 18.3961 17.2151 18.4089 17.3509 18.3804C17.4867 18.3519 17.6108 18.2834 17.7073 18.1836L18.1819 17.7055C18.2734 17.6152 18.3873 17.5508 18.5119 17.5188C18.6364 17.4869 18.7672 17.4886 18.891 17.5236L20.8128 18.0691C20.9188 18.1016 21.016 18.158 21.0969 18.2338C21.1778 18.3096 21.2402 18.4029 21.2795 18.5066C21.3188 18.6103 21.3339 18.7216 21.3236 18.832C21.3133 18.9424 21.2779 19.049 21.22 19.1436Z" fill="white"/>
</svg>
