<?xml version="1.0" encoding="UTF-8"?>
<svg width="16px" height="14px" viewBox="0 0 16 14" version="1.1" xmlns="http://www.w3.org/2000/svg" xmlns:xlink="http://www.w3.org/1999/xlink">
    <title>Vector</title>
    <g id="---↪️-Desktop" stroke="none" stroke-width="1" fill="none" fill-rule="evenodd">
        <g id="Agent-Dashboard-4.0" transform="translate(-535, -3937)" fill="#FFFFFF" fill-rule="nonzero">
            <g id="Vector" transform="translate(535.833, 3937.75)">
                <path d="M7.16666651,2.33333355 C7.81099864,2.33333355 8.33333315,1.81099892 8.33333315,1.16666677 C8.33333315,0.522334523 7.81099864,0 7.16666651,0 C6.52233427,0 6,0.522334523 6,1.16666677 C6,1.81099892 6.52233427,2.33333355 7.16666651,2.33333355 Z"></path>
                <path d="M13.1666664,4.33333333 C13.8109985,4.33333333 14.333333,3.81099881 14.333333,3.16666667 C14.333333,2.52233442 13.8109985,2 13.1666664,2 C12.5223341,2 12,2.52233442 12,3.16666667 C12,3.81099881 12.5223341,4.33333333 13.1666664,4.33333333 Z"></path>
                <path d="M1.16666675,4.33333333 C1.81099888,4.33333333 2.33333349,3.81099881 2.33333349,3.16666667 C2.33333349,2.52233442 1.81099888,2 1.16666675,2 C0.522334511,2 0,2.52233442 0,3.16666667 C0,3.81099881 0.522334511,4.33333333 1.16666675,4.33333333 Z"></path>
                <path d="M13.3233462,3.93133375 C13.3660128,3.71933375 13.2673467,3.50466675 13.0800134,3.39800008 C12.8920134,3.29200008 12.6566801,3.31800022 12.4966801,3.46333355 C12.0317899,3.88600003 11.5371225,4.33577771 11.0126781,4.81266658 C10.6446781,5.14733322 10.1346783,5.27733323 9.65134493,5.16066657 C9.16801157,5.04399991 8.77401221,4.69533327 8.59934555,4.22933324 L7.63467814,1.65799999 C7.56134481,1.46266664 7.37534504,1.33333333 7.16667838,1.33333333 C6.95801171,1.33333333 6.77201194,1.46266664 6.69867861,1.65799999 L5.73401205,4.22933324 C5.55934539,4.69533327 5.16534561,5.04399991 4.68201224,5.16066657 C4.19867888,5.27733323 3.68867882,5.14733322 3.32067885,4.81266658 C2.79623442,4.33577771 2.3015678,3.88600003 1.83667899,3.46333355 C1.676679,3.31800022 1.44134567,3.29200008 1.25334567,3.39800008 C1.06601236,3.50466675 0.967345726,3.71933375 1.01001239,3.93133375 C1.5046789,6.40466634 1.87756771,8.26955484 2.1286788,9.52599928 C2.30001214,10.3833326 3.05267889,11 3.92667889,11 L10.4066787,11 C11.2806787,11 12.0333452,10.3833326 12.2046786,9.52599928 C12.4557897,8.26955484 12.8286789,6.40466634 13.3233462,3.93133375 Z"></path>
                <path d="M11.1666664,12 L3.1666666,12 C2.89066661,12 2.66666661,12.224 2.66666661,12.5 C2.66666661,12.776 2.89066661,13 3.1666666,13 L11.1666664,13 C11.4426664,13 11.6666664,12.776 11.6666664,12.5 C11.6666664,12.224 11.4426664,12 11.1666664,12 Z"></path>
            </g>
        </g>
    </g>
</svg>