<svg width="20" height="18" viewBox="0 0 20 18" fill="none" xmlns="http://www.w3.org/2000/svg">
<path d="M19.1537 13.7735L12.4061 1.36974C11.322 -0.455358 8.67932 -0.457783 7.59375 1.36974L0.846545 13.7735C-0.261699 15.6384 1.08005 18 3.25218 18H16.7475C18.9178 18 20.2619 15.6403 19.1537 13.7735ZM9.99995 15.7616C9.38297 15.7616 8.88074 15.2594 8.88074 14.6424C8.88074 14.0254 9.38297 13.5232 9.99995 13.5232C10.6169 13.5232 11.1192 14.0254 11.1192 14.6424C11.1192 15.2594 10.6169 15.7616 9.99995 15.7616ZM11.1192 11.2847C11.1192 11.9017 10.6169 12.4039 9.99995 12.4039C9.38297 12.4039 8.88074 11.9017 8.88074 11.2847V5.68867C8.88074 5.07169 9.38297 4.56946 9.99995 4.56946C10.6169 4.56946 11.1192 5.07169 11.1192 5.68867V11.2847Z" fill="white"/>
</svg>
