<?xml version="1.0" encoding="UTF-8"?>
<svg width="18px" height="14px" viewBox="0 0 18 14" version="1.1" xmlns="http://www.w3.org/2000/svg" xmlns:xlink="http://www.w3.org/1999/xlink">
    <title>Union</title>
    <g id="---↪️-Desktop" stroke="none" stroke-width="1" fill="none" fill-rule="evenodd">
        <g id="Agent-Dashboard-4.0" transform="translate(-1256, -811)" fill="#FFFFFF" fill-rule="nonzero">
            <g id="Frame-427" transform="translate(1031, 361)">
                <g id="#Sales" transform="translate(0, 430)">
                    <g id="Frame-20" transform="translate(10, 11)">
                        <g id="Frame-17" transform="translate(204, 0)">
                            <g id="fi_497789" transform="translate(8, 4)">
                                <path d="M20.5940945,6.80688095 L20.5940945,16.4970756 C20.5940945,16.900973 20.433648,17.2883291 20.1480493,17.5739277 C19.8624506,17.8595263 19.4750944,18.0199728 19.0711969,18.0199728 L4.52295602,18.0199728 C4.11905845,18.0199728 3.73170349,17.8595263 3.44610478,17.5739277 C3.16050607,17.2883291 3.00005839,16.900973 3.00005839,16.4970756 L3.00005839,6.80688095 L9.9109674,11.7068021 C10.4623048,12.0971238 11.1211777,12.3067449 11.7966953,12.3067449 C12.472213,12.3067449 13.131087,12.0971238 13.6824244,11.7068021 L20.5940945,6.80688095 Z M19.0711983,4.99997671 C19.3183652,5.00045482 19.5617024,5.06108551 19.7801976,5.17663454 C19.9986927,5.29218357 20.1857791,5.45917869 20.3253046,5.6631991 L13.0527058,10.8204913 C12.6852247,11.0801875 12.2462992,11.2196279 11.7963164,11.2196279 C11.3463335,11.2196279 10.9074069,11.0801875 10.5399258,10.8204913 L3.26656592,5.6631991 C3.40630984,5.45886027 3.59376038,5.29166741 3.81268379,5.1761024 C4.0316072,5.06053739 4.27540306,5.00008393 4.52295654,4.99997671 Z" id="Union"></path>
                            </g>
                        </g>
                    </g>
                </g>
            </g>
        </g>
    </g>
</svg>