<?xml version="1.0" encoding="UTF-8"?>
<svg width="33px" height="32px" viewBox="0 0 33 32" version="1.1" xmlns="http://www.w3.org/2000/svg" xmlns:xlink="http://www.w3.org/1999/xlink">
    <title>Frame 17</title>
    <defs>
        <rect id="path-1" x="0" y="0" width="18" height="18"></rect>
        <rect id="path-3" x="0" y="0" width="18" height="18"></rect>
    </defs>
    <g id="---↪️-Mobile" stroke="none" stroke-width="1" fill="none" fill-rule="evenodd">
        <g id="5" transform="translate(-284, -1310)">
            <g id="Frame-534" transform="translate(0, 247)">
                <g id="Frame-566" transform="translate(0, 767)">
                    <g id="Frame-514" transform="translate(12, 12)">
                        <g id="Chart-12" transform="translate(14, 234)">
                            <g id="Frame-32" transform="translate(28, 51)">
                                <g id="Frame-31" transform="translate(209, 0)">
                                    <g id="Frame-17" transform="translate(22.5, 0)">
                                        <rect id="Frame-Background" stroke-opacity="0.119999997" stroke="#000000" fill="#7A7F86" fill-rule="nonzero" x="-0.5" y="-0.5" width="31" height="31" rx="15.5"></rect>
                                        <g id="fi_497789" transform="translate(6, 6)">
                                            <mask id="mask-2" fill="white">
                                                <use xlink:href="#path-1"></use>
                                            </mask>
                                            <g id="Clip" fill-rule="nonzero"></g>
                                            <g id="fi_8395673" mask="url(#mask-2)">
                                                <mask id="mask-4" fill="white">
                                                    <use xlink:href="#path-3"></use>
                                                </mask>
                                                <g id="Clip" fill-rule="nonzero"></g>
                                                <g id="Vector" mask="url(#mask-4)" fill="#FFFFFF" fill-rule="nonzero">
                                                    <g transform="translate(0.9375, 1.9688)">
                                                        <path d="M8.0625,2.62500024 C8.78737366,2.62500024 9.375,2.03737378 9.375,1.31250012 C9.375,0.587626338 8.78737366,0 8.0625,0 C7.33762622,0 6.75,0.587626338 6.75,1.31250012 C6.75,2.03737378 7.33762622,2.62500024 8.0625,2.62500024 Z"></path>
                                                        <path d="M14.8125,4.875 C15.5373737,4.875 16.125,4.28737366 16.125,3.5625 C16.125,2.83762622 15.5373737,2.25 14.8125,2.25 C14.0876262,2.25 13.5,2.83762622 13.5,3.5625 C13.5,4.28737366 14.0876262,4.875 14.8125,4.875 Z"></path>
                                                        <path d="M1.31250012,4.875 C2.03737378,4.875 2.62500024,4.28737366 2.62500024,3.5625 C2.62500024,2.83762622 2.03737378,2.25 1.31250012,2.25 C0.587626338,2.25 0,2.83762622 0,3.5625 C0,4.28737366 0.587626338,4.875 1.31250012,4.875 Z"></path>
                                                        <path d="M14.9887648,4.42275047 C15.0367648,4.18425047 14.9257654,3.94275009 14.7150154,3.82275009 C14.5035154,3.70350009 14.2387654,3.73275025 14.0587654,3.89625025 C13.5357639,4.37175004 12.9792631,4.87774992 12.3892632,5.4142499 C11.9752632,5.79074988 11.4015133,5.93699989 10.8577633,5.80574989 C10.3140132,5.6744999 9.87076396,5.28224993 9.67426395,4.7579999 L8.5890131,1.86524999 C8.5065131,1.64549997 8.29726335,1.5 8.06251335,1.5 C7.82776335,1.5 7.6185136,1.64549997 7.5360136,1.86524999 L6.4507637,4.7579999 C6.2542637,5.28224993 5.81101394,5.6744999 5.26726389,5.80574989 C4.72351384,5.93699989 4.14976376,5.79074988 3.73576379,5.4142499 C3.14576379,4.87774992 2.58926384,4.37175004 2.06626391,3.89625025 C1.88626392,3.73275025 1.62151392,3.70350009 1.41001391,3.82275009 C1.19926393,3.94275009 1.08826397,4.18425047 1.13626397,4.42275047 C1.69276381,7.20524963 2.11226372,9.3032492 2.39476371,10.7167492 C2.58751372,11.6812492 3.43426383,12.375 4.41751385,12.375 L11.7075138,12.375 C12.6907638,12.375 13.5375137,11.6812492 13.7302637,10.7167492 C14.0127637,9.3032492 14.432264,7.20524963 14.9887648,4.42275047 Z"></path>
                                                        <path d="M12.5625,13.5 L3.5625,13.5 C3.252,13.5 3,13.752 3,14.0625 C3,14.373 3.252,14.625 3.5625,14.625 L12.5625,14.625 C12.873,14.625 13.125,14.373 13.125,14.0625 C13.125,13.752 12.873,13.5 12.5625,13.5 Z"></path>
                                                    </g>
                                                </g>
                                            </g>
                                        </g>
                                    </g>
                                </g>
                            </g>
                        </g>
                    </g>
                </g>
            </g>
        </g>
    </g>
</svg>