<?xml version="1.0" encoding="UTF-8"?>
<svg width="32px" height="32px" viewBox="0 0 32 32" version="1.1" xmlns="http://www.w3.org/2000/svg" xmlns:xlink="http://www.w3.org/1999/xlink">
    <title>fi_8622408</title>
    <defs>
        <rect id="path-1" x="0" y="0" width="32" height="32"></rect>
    </defs>
    <g id="---↪️-Desktop" stroke="none" stroke-width="1" fill="none" fill-rule="evenodd">
        <g id="Agent-Dashboard-4.0" transform="translate(-894, -1008)">
            <g id="fi_8622408" transform="translate(894, 1008)">
                <mask id="mask-2" fill="white">
                    <use xlink:href="#path-1"></use>
                </mask>
                <g id="Clip" fill-rule="nonzero"></g>
                <path d="M17.7514675,1.67093221 L21.4719999,9.54666633 L29.7920016,10.8095998 C30.1596823,10.8797061 30.5013946,11.0484271 30.7806003,11.2977224 C31.059806,11.5470176 31.2660044,11.8675121 31.3771478,12.224935 C31.4882912,12.5823578 31.5002003,12.9632685 31.4116001,13.326936 C31.3229999,13.6906034 31.1372231,14.0233509 30.8741347,14.2895998 L24.8533335,20.4202663 L26.2746674,29.0768018 C26.349138,29.4411318 26.3191492,29.8190882 26.1881562,30.1671156 C26.0571632,30.515143 25.8304973,30.8190747 25.5342825,31.0438836 C25.2380677,31.2686925 24.8843609,31.4052299 24.5139231,31.4377577 C24.1434853,31.4702856 23.7713947,31.3974796 23.4405344,31.2277337 L15.9999995,27.1408011 L8.55840004,31.2277337 C8.22753973,31.3974796 7.85544911,31.4702856 7.48501131,31.4377577 C7.11457351,31.4052299 6.76086573,31.2686925 6.46465094,31.0438836 C6.16843615,30.8190747 5.94177072,30.515143 5.81077771,30.1671156 C5.67978471,29.8190882 5.64979542,29.4411318 5.72426597,29.0768018 L7.14666595,20.4202663 L1.12533229,14.2895998 C0.862243894,14.0233509 0.676467276,13.6906034 0.587867104,13.326936 C0.499266933,12.9632685 0.51117521,12.5823578 0.622318655,12.224935 C0.733462099,11.8675121 0.93966105,11.5470176 1.21886677,11.2977224 C1.49807249,11.0484271 1.83978505,10.8797061 2.20746571,10.8095998 L10.5279991,9.54666633 L14.2485325,1.67093221 C14.4001705,1.33329747 14.6461657,1.0466881 14.9569035,0.845607843 C15.2676414,0.644527586 15.6298761,0.537548065 15.9999995,0.537548065 C16.3701228,0.537548065 16.7323576,0.644527586 17.0430955,0.845607843 C17.3538333,1.0466881 17.5998295,1.33329747 17.7514675,1.67093221 Z" id="Vector" fill="#F4BC2F" fill-rule="nonzero" mask="url(#mask-2)"></path>
                <path d="M13.8666665,21.8666677 C13.7252293,21.8666677 13.5895955,21.8104278 13.4895994,21.7104015 L11.8895992,20.1104013 C11.7924483,20.0098135 11.7386913,19.875091 11.7398863,19.7352527 C11.7411216,19.5954145 11.7972121,19.4616476 11.8960964,19.3627633 C11.9949808,19.263879 12.1287476,19.2077895 12.2685859,19.2065743 C12.4084242,19.2053592 12.5431456,19.2591161 12.6437334,19.3562671 L13.8170663,20.529601 L19.3104007,13.5354668 C19.3532174,13.4790942 19.4068283,13.4318099 19.4681074,13.3963697 C19.5293865,13.3609295 19.597107,13.3380432 19.6673221,13.3290448 C19.7375372,13.3200465 19.808842,13.3251164 19.8770776,13.3439588 C19.9453132,13.3628012 20.0091145,13.3950392 20.0647627,13.4387932 C20.120411,13.4825471 20.1667909,13.5369415 20.2012007,13.598805 C20.2356106,13.6606685 20.2573618,13.7287625 20.2651839,13.7991183 C20.273006,13.8694742 20.266743,13.9406833 20.2467614,14.0085941 C20.2267799,14.0765048 20.193479,14.1397586 20.1488,14.1946669 L14.2821327,21.6613353 C14.2355652,21.7205448 14.1769841,21.7692174 14.1102455,21.8041494 C14.0435069,21.8390815 13.9701248,21.8594791 13.8949328,21.8640005 L13.8666665,21.8666677 Z" id="Vector" fill="#FFFFFF" fill-rule="nonzero" mask="url(#mask-2)"></path>
            </g>
        </g>
    </g>
</svg>