<?xml version="1.0" encoding="UTF-8"?>
<svg width="32px" height="32px" viewBox="0 0 32 32" version="1.1" xmlns="http://www.w3.org/2000/svg" xmlns:xlink="http://www.w3.org/1999/xlink">
    <title>fi_3670051</title>
    <defs>
        <rect id="path-1" x="0" y="0" width="32" height="32"></rect>
    </defs>
    <g id="---↪️-Desktop" stroke="none" stroke-width="1" fill="none" fill-rule="evenodd">
        <g id="Agent-Dashboard-4.0" transform="translate(-334, -1008)">
            <g id="fi_3670051" transform="translate(334, 1008)">
                <mask id="mask-2" fill="white">
                    <use xlink:href="#path-1"></use>
                </mask>
                <g id="Clip" fill-rule="nonzero"></g>
                <g id="Layer-2" mask="url(#mask-2)" fill-rule="nonzero">
                    <g id="09.whatsapp">
                        <path d="M32,16 C32,24.8365562 24.8365562,32 16,32 C7.16344383,32 0,24.8365562 0,16 C0,7.16344383 7.16344383,0 16,0 C24.8365562,0 32,7.16344383 32,16 Z" id="background" fill="#29A71A"></path>
                        <g id="icon" transform="translate(6.0822, 6.0045)" fill="#FFFFFF">
                            <path d="M16.9723603,2.94096395 C15.3076952,1.2596882 13.0970227,0.228617058 10.7390961,0.0337315306 C8.3811695,-0.161153997 6.03121408,0.492975096 4.1131046,1.87813009 C2.19499513,3.26328508 0.83500303,5.28828016 0.27843945,7.587853 C-0.27812413,9.88742585 0.00537993719,12.3101926 1.07781347,14.4191461 L0.0250859707,19.5300556 C0.0141627884,19.5809248 0.0138533996,19.6334998 0.0241773791,19.684494 C0.0345013586,19.7354882 0.0552362476,19.7838055 0.0850856132,19.8264202 C0.128812881,19.8910943 0.191230811,19.9408863 0.264003941,19.9691509 C0.336777071,19.9974155 0.416441695,20.0028062 0.492358667,19.9846011 L5.50144987,18.7973285 C7.60447282,19.8426122 10.0101388,20.1078853 12.2903907,19.545947 C14.5706425,18.9840086 16.5775805,17.6313062 17.9540942,15.7285361 C19.3306079,13.825766 19.9874152,11.4963451 19.807646,9.1547629 C19.6278768,6.8131807 18.6231918,4.611317 16.9723603,2.94096395 Z M15.4105413,15.4064189 C14.2587617,16.5549596 12.7756146,17.3131268 11.1701097,17.5740785 C9.56460483,17.8350301 7.91768844,17.5856094 6.4614497,16.8609645 L5.76326851,16.5155096 L2.6923585,17.2427824 L2.70144997,17.2046007 L3.33781381,14.1136914 L2.99599542,13.4391461 C2.25192212,11.9778217 1.9894405,10.3184931 2.24615196,8.69885938 C2.50286341,7.07922568 3.26559587,5.58239195 4.42508651,4.42278182 C5.88200461,2.96631417 7.85773908,2.14811704 9.91781391,2.14811704 C11.9778887,2.14811704 13.9536232,2.96631417 15.4105413,4.42278182 C15.4229483,4.43701039 15.436313,4.45037505 15.4505415,4.46278204 C16.8893991,5.92300369 17.6926412,7.89284137 17.6851483,9.94284196 C17.6776554,11.9928426 16.8600348,13.9567544 15.4105413,15.4064189 Z" id="Vector"></path>
                            <path d="M15.1378122,13.1391448 C14.7614485,13.7318721 14.1669036,14.4573262 13.4196309,14.6373262 C12.1105399,14.9536899 10.1014488,14.6482349 7.60144867,12.3173259 L7.57053852,12.2900543 C5.3723566,10.2518724 4.80144796,8.55550806 4.93962978,7.21005351 C5.01599341,6.44641719 5.65235691,5.75550821 6.18872057,5.30459912 C6.2735185,5.23222615 6.37407529,5.18069841 6.48234823,5.15413706 C6.59062118,5.12757572 6.70360699,5.12671725 6.81227101,5.15163046 C6.92093503,5.17654367 7.02226229,5.22653783 7.10815004,5.29761406 C7.19403778,5.36869029 7.26210262,5.45887703 7.30690271,5.56096272 L8.11599291,7.37914447 C8.16856951,7.49703541 8.18805568,7.62701603 8.17236027,7.75514184 C8.15666486,7.88326765 8.10638061,8.00470298 8.02690239,8.1064172 L7.61781164,8.63732595 C7.53003242,8.74694912 7.47706531,8.88033115 7.46572451,9.02030907 C7.45438371,9.16028699 7.48518836,9.30045628 7.55417555,9.42278043 C7.78326647,9.82459862 8.33235674,10.4155083 8.94144765,10.962781 C9.62508404,11.5809628 10.3832662,12.1464173 10.8632662,12.3391446 C10.991705,12.391617 11.1329162,12.4044203 11.2686978,12.375903 C11.4044793,12.3473856 11.528608,12.2788551 11.6250848,12.1791451 L12.0996304,11.7009624 C12.1911969,11.6106718 12.3050664,11.5462748 12.4296323,11.5143349 C12.5541981,11.4823949 12.6850062,11.4840541 12.8087216,11.5191442 L14.7305398,12.0645987 C14.8365512,12.0971185 14.9337232,12.1534499 15.0146252,12.229284 C15.0955272,12.3051182 15.1580172,12.3984469 15.1973173,12.5021362 C15.2366174,12.6058254 15.2516869,12.7171289 15.2413736,12.8275354 C15.2310603,12.9379419 15.1956365,13.0445282 15.1378122,13.1391448 Z" id="Vector"></path>
                        </g>
                    </g>
                </g>
            </g>
        </g>
    </g>
</svg>