<svg width="26" height="26" viewBox="0 0 26 26" fill="none" xmlns="http://www.w3.org/2000/svg">
    <g clip-path="url(#clip0_1_2175)">
        <path
            d="M25.2383 0.0507812H0.761719C0.340988 0.0507812 0 0.391769 0 0.8125V14.5234C0 14.9442 0.340988 15.2852 0.761719 15.2852H25.2383C25.659 15.2852 26 14.9442 26 14.5234V0.8125C26 0.391769 25.659 0.0507812 25.2383 0.0507812Z"
            fill="#165771" />
        <path
            d="M26 0.8125V14.5234C26 14.944 25.6588 15.2852 25.2383 15.2852H13V0.0507812H25.2383C25.6588 0.0507812 26 0.391968 26 0.8125Z"
            fill="#0C3F60" />
        <path d="M1.52344 1.57422H24.4766V13.7617H1.52344V1.57422Z" fill="#FED941" />
        <path d="M13 1.57422H24.4766V13.7617H13V1.57422Z" fill="#FCBE29" />
        <path
            d="M9.95312 4.62109C8.69312 4.62109 7.66797 5.64624 7.66797 6.90625V9.95312C7.66797 10.3739 8.00896 10.7148 8.42969 10.7148C8.85042 10.7148 9.19141 10.3739 9.19141 9.95312V9.19141H10.7148V9.95312C10.7148 10.3739 11.0558 10.7148 11.4766 10.7148C11.8973 10.7148 12.2383 10.3739 12.2383 9.95312V6.90625C12.2383 5.64624 11.2131 4.62109 9.95312 4.62109ZM9.19141 7.66797V6.90625C9.19141 6.48631 9.53319 6.14453 9.95312 6.14453C10.3731 6.14453 10.7148 6.48631 10.7148 6.90625V7.66797H9.19141Z"
            fill="#165771" />
        <path
            d="M15.2852 4.62109H14.5234C14.1027 4.62109 13.7617 4.96208 13.7617 5.38281V9.95312C13.7617 10.3739 14.1027 10.7148 14.5234 10.7148H15.2852C16.9653 10.7148 18.332 9.34811 18.332 7.66797C18.332 5.98782 16.9653 4.62109 15.2852 4.62109ZM15.2852 9.19141V6.14453C16.1252 6.14453 16.8086 6.8279 16.8086 7.66797C16.8086 8.50804 16.1252 9.19141 15.2852 9.19141Z"
            fill="#0C3F60" />
        <path
            d="M21.056 17.5189L11.7912 12.4622C11.283 12.1847 10.6641 12.5543 10.6641 13.1297V23.675C10.6641 24.2635 11.3072 24.6299 11.8144 24.3294L14.2445 22.8896L15.9691 25.6451C16.1885 25.9956 16.6477 26.1069 17.0036 25.8962L20.1282 24.0451C20.496 23.8273 20.6118 23.3494 20.3855 22.9876L18.6798 20.2623L21.0794 18.8408C21.5862 18.5405 21.5735 17.8014 21.056 17.5189Z"
            fill="#FD6328" />
        <path
            d="M21.0794 18.8408L18.68 20.2623L20.3857 22.9878C20.6116 23.3493 20.4958 23.8271 20.1282 24.0451L18.7526 24.8602L11.012 12.4914C11.2334 12.3486 11.5273 12.318 11.791 12.462L21.056 17.5193C21.5733 17.8012 21.586 18.5405 21.0794 18.8408Z"
            fill="#EE3616" />
    </g>
    <defs>
        <clipPath id="clip0_1_2175">
            <rect width="26" height="26" fill="white" />
        </clipPath>
    </defs>
</svg>
    