<svg width="26" height="26" viewBox="0 0 26 26" fill="none" xmlns="http://www.w3.org/2000/svg">
    <g clip-path="url(#clip0_1_2164)">
        <path
            d="M19.0049 14.0107C18.7124 13.8797 18.3723 13.9306 18.1318 14.1451L13.6262 18.1567C13.4225 18.3376 13.3228 18.6084 13.3618 18.8792L14.0877 23.946C14.131 24.2504 14.3618 24.4855 14.6532 24.583L14.8937 24.6209C15.1179 24.6209 15.3443 24.5278 15.5036 24.3674C18.07 21.7999 19.4838 18.3863 19.4838 14.7528C19.4848 14.4322 19.2974 14.1418 19.0049 14.0107Z"
            fill="#2196F3" />
        <path
            d="M11.2485 6.51517C7.61498 6.51517 4.20031 7.92892 1.63389 10.4953L1.59598 10.5322C1.37823 10.7499 1.30239 11.0717 1.39989 11.3631C1.49739 11.6556 1.75089 11.8668 2.05531 11.9102L7.12206 12.636L7.23689 12.6447C7.46656 12.6447 7.68864 12.5472 7.84356 12.3728L11.8551 7.86717C12.0686 7.62775 12.1206 7.2865 11.9895 6.994C11.8584 6.70258 11.5681 6.51517 11.2485 6.51517Z"
            fill="#2196F3" />
        <path
            d="M12.8678 20.7469C12.6598 20.7469 12.4518 20.6667 12.2936 20.5086L5.49139 13.7063C5.18697 13.4019 5.17289 12.9122 5.45997 12.5905L10.5581 6.88025C14.1689 2.65416 20.0308 -0.106171 25.2037 0.00432914C25.6371 0.0140791 25.987 0.363996 25.9967 0.797329C26.1159 5.941 23.348 11.8311 19.1078 15.4537L13.4106 20.54C13.2546 20.6787 13.0617 20.7469 12.8678 20.7469Z"
            fill="#ECEFF1" />
        <path
            d="M18.5608 10.1465C17.8664 10.1465 17.173 9.88216 16.6454 9.35457C15.5903 8.29832 15.5903 6.58016 16.6454 5.52391C17.7017 4.46766 19.4199 4.46766 20.4761 5.52391C21.5313 6.58016 21.5313 8.29832 20.4761 9.35457C19.9474 9.88324 19.2541 10.1465 18.5608 10.1465Z"
            fill="#2196F3" />
        <path
            d="M0.812528 26C0.600195 26 0.392195 25.9166 0.238361 25.7617C0.0271113 25.5504 -0.0508887 25.2406 0.0346946 24.9535C0.306611 24.0424 1.72469 19.4404 2.83186 18.3343C4.12428 17.043 6.37545 17.043 7.6657 18.3343C8.31136 18.9811 8.66669 19.838 8.66669 20.7523C8.66669 21.6656 8.31136 22.5236 7.6657 23.1693C6.55961 24.2753 1.95653 25.6934 1.04653 25.9664L0.812528 26Z"
            fill="#FF9800" />
        <path
            d="M10.8736 6.5195C7.38098 6.61375 4.11256 8.01667 1.63281 10.4953L1.59598 10.5322C1.37823 10.7499 1.30239 11.0717 1.39989 11.3631C1.49739 11.6556 1.75089 11.8668 2.05531 11.9102L5.61189 12.4204L10.5584 6.87917C10.6613 6.75892 10.7664 6.63867 10.8736 6.5195Z"
            fill="#1D83D4" />
        <path
            d="M24.9015 0C19.9528 0 14.4321 2.57725 10.8734 6.5195C10.7661 6.63867 10.6611 6.75783 10.5571 6.87917L5.61164 12.4204L5.45997 12.5905C5.17289 12.9123 5.18697 13.4019 5.49139 13.7063L8.89306 17.108L16.6454 9.35567C15.5902 8.29942 15.5902 6.58125 16.6454 5.525C17.173 4.99742 17.8674 4.73308 18.5607 4.73308C19.2541 4.73308 19.9485 4.99742 20.4761 5.525L25.7595 0.241583C25.6165 0.0985833 25.4204 0.00866667 25.2037 0.00325C25.103 0.00108333 25.0022 0 24.9015 0Z"
            fill="#CDD0D2" />
        <path
            d="M18.5608 4.73309C17.8674 4.73309 17.173 4.99743 16.6454 5.52501C15.5903 6.58126 15.5903 8.29943 16.6454 9.35568L20.475 5.52501C19.9474 4.99634 19.2541 4.73309 18.5608 4.73309Z"
            fill="#1D83D4" />
        <path
            d="M5.24876 17.3658C4.3626 17.3658 3.47751 17.6887 2.83076 18.3343C1.72468 19.4404 0.306596 24.0435 0.033596 24.9535C-0.0519874 25.2395 0.0260126 25.5504 0.237263 25.7617L7.6646 18.3343C7.02001 17.6887 6.13493 17.3658 5.24876 17.3658Z"
            fill="#DE8400" />
    </g>
    <defs>
        <clipPath id="clip0_1_2164">
            <rect width="26" height="26" fill="white" />
        </clipPath>
    </defs>
</svg>
    