<svg width="20" height="20" viewBox="0 0 20 20" fill="none" xmlns="http://www.w3.org/2000/svg">
<g clip-path="url(#clip0_1_1973)">
<path fill-rule="evenodd" clip-rule="evenodd" d="M6.07178 18.6961C7.05128 19.4271 8.21495 19.8711 9.43249 19.9783C10.65 20.0854 11.8734 19.8515 12.9655 19.3027C14.0576 18.7539 14.9754 17.9119 15.616 16.871C16.2567 15.8301 16.5949 14.6314 16.5928 13.4092C16.5928 13.3987 16.591 13.3884 16.591 13.3779C16.3146 11.38 15.5368 10.3257 14.7868 9.30626C13.9317 8.14524 13.1245 7.04872 12.9384 4.58567C12.935 4.54065 12.9187 4.49755 12.8915 4.46157C12.8642 4.42559 12.8271 4.39824 12.7847 4.38283C12.7422 4.36742 12.6963 4.36459 12.6523 4.37468C12.6083 4.38478 12.5681 4.40736 12.5366 4.43973C11.5059 5.49162 10.7765 6.80101 10.4247 8.2311C10.104 7.27926 9.86608 6.03329 9.79073 4.84075C9.67093 2.98157 9.93632 1.38727 10.5334 0.351568C10.5595 0.306978 10.57 0.254981 10.5634 0.203747C10.5567 0.152513 10.5332 0.104946 10.4966 0.0685212C10.4599 0.0320664 10.4122 0.00867305 10.361 0.00193992C10.3097 -0.00479321 10.2576 0.00550685 10.2128 0.0312556C8.03999 1.28594 6.03491 3.8761 4.71358 7.13782C3.44565 10.2617 3.07339 13.3454 3.71655 15.387C4.13664 16.709 4.96027 17.8662 6.07178 18.6961ZM12.3726 14.7027C12.3722 14.6717 12.3779 14.641 12.3895 14.6122C12.4011 14.5835 12.4183 14.5573 12.44 14.5352C12.4618 14.5132 12.4877 14.4957 12.5163 14.4837C12.5449 14.4718 12.5756 14.4656 12.6066 14.4656C12.6376 14.4656 12.6683 14.4718 12.6969 14.4837C12.7255 14.4957 12.7514 14.5132 12.7732 14.5352C12.795 14.5573 12.8121 14.5835 12.8237 14.6122C12.8353 14.641 12.8411 14.6717 12.8407 14.7027V16.6243H14.1289C14.1911 16.6243 14.2507 16.649 14.2946 16.6929C14.3386 16.7369 14.3633 16.7965 14.3633 16.8586C14.3633 16.9208 14.3386 16.9804 14.2946 17.0244C14.2507 17.0683 14.1911 17.093 14.1289 17.093H12.6067C12.5446 17.0929 12.485 17.0682 12.4411 17.0243C12.3973 16.9803 12.3726 16.9207 12.3726 16.8586V14.7027H12.3726ZM11.1304 15.3951L11.3534 16.0474H10.9075L11.1305 15.3951H11.1304ZM10.9092 14.5958C10.9246 14.5494 10.9543 14.5091 10.994 14.4806C11.0338 14.4521 11.0815 14.437 11.1304 14.4373C11.1791 14.4375 11.2266 14.4529 11.2663 14.4813C11.3059 14.5097 11.3357 14.5497 11.3516 14.5958L12.1108 16.8139C12.1211 16.843 12.1255 16.8739 12.1237 16.9047C12.122 16.9355 12.1142 16.9657 12.1008 16.9935C12.0873 17.0213 12.0685 17.0461 12.0454 17.0666C12.0223 17.0871 11.9954 17.1028 11.9662 17.1128C11.937 17.1228 11.9061 17.127 11.8753 17.125C11.8445 17.123 11.8144 17.115 11.7867 17.1013C11.759 17.0876 11.7343 17.0686 11.7141 17.0453C11.6938 17.0221 11.6783 16.995 11.6685 16.9657L11.5137 16.5161H10.7472L10.5924 16.9657C10.5765 17.0118 10.5467 17.0518 10.5071 17.0802C10.4674 17.1086 10.42 17.124 10.3712 17.1243C10.3455 17.1244 10.3199 17.1201 10.2957 17.1115C10.2368 17.0915 10.1882 17.0489 10.1606 16.9931C10.133 16.9374 10.1285 16.8729 10.1482 16.8139L10.9094 14.5958H10.9092ZM7.87768 14.6763C7.87768 14.6142 7.90233 14.5547 7.94622 14.5107C7.99011 14.4668 8.04964 14.442 8.11175 14.442H9.67452C9.73668 14.442 9.79629 14.4667 9.84025 14.5106C9.8842 14.5546 9.9089 14.6142 9.9089 14.6763C9.9089 14.7385 9.8842 14.7981 9.84025 14.8421C9.79629 14.886 9.73668 14.9107 9.67452 14.9107H8.34589V15.5463H9.67464C9.7368 15.5463 9.79641 15.571 9.84036 15.615C9.88432 15.6589 9.90901 15.7185 9.90901 15.7807C9.90901 15.8429 9.88432 15.9025 9.84036 15.9464C9.79641 15.9904 9.7368 16.0151 9.67464 16.0151H8.34589V16.6508H9.67464C9.7368 16.6508 9.79641 16.6755 9.84036 16.7194C9.88432 16.7634 9.90901 16.823 9.90901 16.8852C9.90901 16.9473 9.88432 17.0069 9.84036 17.0509C9.79641 17.0948 9.7368 17.1195 9.67464 17.1195H8.11186C8.04976 17.1195 7.99022 17.0947 7.94634 17.0508C7.90245 17.0068 7.8778 16.9473 7.8778 16.8852V14.6763H7.87768ZM7.67311 15.4546V16.1069C7.67267 16.3766 7.56535 16.635 7.37466 16.8257C7.18398 17.0163 6.92549 17.1236 6.65585 17.124H5.87264C5.81054 17.1239 5.751 17.0992 5.70712 17.0553C5.66323 17.0113 5.63858 16.9518 5.63858 16.8897V14.6719C5.63858 14.6098 5.66323 14.5502 5.70712 14.5063C5.751 14.4623 5.81054 14.4376 5.87264 14.4375H6.65585C6.92552 14.4379 7.18402 14.5452 7.37471 14.7359C7.56539 14.9266 7.6727 15.1851 7.67311 15.4548V15.4546ZM6.65585 14.906C6.80134 14.9062 6.94082 14.964 7.04375 15.0668C7.14668 15.1697 7.20468 15.3091 7.20503 15.4546V16.1069C7.20467 16.2524 7.14667 16.3918 7.04373 16.4946C6.9408 16.5974 6.80132 16.6552 6.65585 16.6554H6.10678V14.906H6.65585ZM8.75858 13.5107C8.75898 13.5417 8.75322 13.5725 8.74164 13.6012C8.73006 13.63 8.71288 13.6561 8.69111 13.6782C8.66934 13.7002 8.6434 13.7177 8.61481 13.7297C8.58622 13.7416 8.55553 13.7478 8.52454 13.7478C8.49355 13.7478 8.46286 13.7416 8.43427 13.7297C8.40567 13.7177 8.37974 13.7002 8.35797 13.6782C8.33619 13.6561 8.31902 13.63 8.30744 13.6012C8.29585 13.5725 8.2901 13.5417 8.2905 13.5107V12.667H7.23647V13.5107C7.23687 13.5417 7.23111 13.5725 7.21953 13.6012C7.20795 13.63 7.19077 13.6561 7.169 13.6782C7.14723 13.7002 7.12129 13.7177 7.0927 13.7297C7.06411 13.7416 7.03342 13.7478 7.00243 13.7478C6.97144 13.7478 6.94075 13.7416 6.91216 13.7297C6.88357 13.7177 6.85763 13.7002 6.83586 13.6782C6.81408 13.6561 6.79691 13.63 6.78533 13.6012C6.77374 13.5725 6.76799 13.5417 6.76839 13.5107V11.3547C6.76799 11.3237 6.77374 11.293 6.78533 11.2642C6.79691 11.2355 6.81408 11.2093 6.83586 11.1873C6.85763 11.1652 6.88357 11.1477 6.91216 11.1358C6.94075 11.1238 6.97144 11.1176 7.00243 11.1176C7.03342 11.1176 7.06411 11.1238 7.0927 11.1358C7.12129 11.1477 7.14723 11.1652 7.169 11.1873C7.19077 11.2093 7.20795 11.2355 7.21953 11.2642C7.23111 11.293 7.23687 11.3237 7.23647 11.3547V12.1985H8.29061V11.3547C8.29021 11.3237 8.29597 11.293 8.30755 11.2642C8.31914 11.2355 8.33631 11.2093 8.35808 11.1873C8.37986 11.1652 8.40579 11.1477 8.43439 11.1358C8.46298 11.1238 8.49366 11.1176 8.52466 11.1176C8.55565 11.1176 8.58633 11.1238 8.61493 11.1358C8.64352 11.1477 8.66946 11.1652 8.69123 11.1873C8.713 11.2093 8.73018 11.2355 8.74176 11.2642C8.75334 11.293 8.7591 11.3237 8.7587 11.3547V13.5107H8.75858ZM10.0928 13.7761C9.82307 13.776 9.56438 13.6688 9.37363 13.478C9.18287 13.2873 9.07567 13.0286 9.07557 12.7588V12.1065C9.07474 11.9725 9.10042 11.8396 9.15112 11.7156C9.20183 11.5915 9.27656 11.4787 9.37102 11.3837C9.46548 11.2887 9.5778 11.2132 9.70152 11.1618C9.82524 11.1103 9.95792 11.0838 10.0919 11.0838C10.2259 11.0838 10.3586 11.1103 10.4823 11.1618C10.606 11.2132 10.7184 11.2887 10.8128 11.3837C10.9073 11.4787 10.982 11.5915 11.0327 11.7156C11.0834 11.8396 11.1091 11.9725 11.1083 12.1065V12.7588C11.1083 13.0283 11.0013 13.2868 10.8109 13.4776C10.6205 13.6683 10.3622 13.7757 10.0926 13.7761H10.0928ZM10.6402 12.7588C10.6408 12.8312 10.6271 12.903 10.5998 12.97C10.5725 13.0371 10.5322 13.0981 10.4812 13.1495C10.4303 13.2009 10.3696 13.2417 10.3028 13.2695C10.236 13.2974 10.1643 13.3117 10.0919 13.3117C10.0195 13.3117 9.94786 13.2974 9.88104 13.2695C9.81421 13.2417 9.75357 13.2009 9.7026 13.1495C9.65162 13.0981 9.61134 13.0371 9.58406 12.97C9.55678 12.903 9.54305 12.8312 9.54366 12.7588V12.1065C9.54305 12.0341 9.55678 11.9623 9.58406 11.8952C9.61134 11.8282 9.65162 11.7672 9.7026 11.7158C9.75357 11.6644 9.81421 11.6236 9.88104 11.5957C9.94786 11.5679 10.0195 11.5535 10.0919 11.5535C10.1643 11.5535 10.236 11.5679 10.3028 11.5957C10.3696 11.6236 10.4303 11.6644 10.4812 11.7158C10.5322 11.7672 10.5725 11.8282 10.5998 11.8952C10.6271 11.9623 10.6408 12.0341 10.6402 12.1065V12.7588ZM12.0039 11.5891H11.477C11.4148 11.5891 11.3552 11.5645 11.3113 11.5205C11.2673 11.4765 11.2426 11.4169 11.2426 11.3548C11.2426 11.2926 11.2673 11.233 11.3113 11.189C11.3552 11.1451 11.4148 11.1204 11.477 11.1204H12.9992C13.0614 11.1204 13.121 11.1451 13.1649 11.189C13.2089 11.233 13.2336 11.2926 13.2336 11.3548C13.2336 11.4169 13.2089 11.4765 13.1649 11.5205C13.121 11.5645 13.0614 11.5891 12.9992 11.5891H12.4721V13.5107C12.4721 13.5414 12.4661 13.5719 12.4543 13.6003C12.4426 13.6287 12.4253 13.6545 12.4036 13.6762C12.3818 13.698 12.356 13.7152 12.3276 13.727C12.2992 13.7387 12.2688 13.7448 12.2381 13.7448C12.2073 13.7448 12.1769 13.7387 12.1485 13.727C12.1201 13.7152 12.0943 13.698 12.0726 13.6762C12.0508 13.6545 12.0336 13.6287 12.0218 13.6003C12.0101 13.5719 12.004 13.5414 12.004 13.5107L12.0039 11.5891Z" fill="#ED1C24"/>
</g>
<defs>
<clipPath id="clip0_1_1973">
<rect width="20" height="20" fill="white"/>
</clipPath>
</defs>
</svg>
