<svg width="26" height="26" viewBox="0 0 26 26" fill="none" xmlns="http://www.w3.org/2000/svg">
    <g clip-path="url(#clip0_1_2002)">
        <path
            d="M13.7537 12.8881L7.59543 11.0996C6.25871 10.7114 5.48978 9.31304 5.87801 7.97633L7.66652 1.81805C8.05474 0.481339 9.4531 -0.287589 10.7898 0.100633L16.9481 1.88914C18.2848 2.27737 19.0537 3.67573 18.6655 5.01244L16.877 11.1707C16.4888 12.5074 15.0904 13.2764 13.7537 12.8881Z"
            fill="#F26666" />
        <path
            d="M16.9481 1.88917L14.7043 1.23755C15.8334 1.74805 16.4451 3.02367 16.0895 4.24821L14.2934 10.4324C13.9348 11.6672 12.7177 12.4187 11.4801 12.2279L13.7537 12.8882C15.0904 13.2764 16.4888 12.5075 16.877 11.1707L18.6655 5.01247C19.0538 3.67576 18.2848 2.27739 16.9481 1.88917Z"
            fill="#DD5B5B" />
        <path
            d="M10.6247 24.9432L4.29426 25.9672C2.92017 26.1895 1.62607 25.2558 1.4038 23.8817L0.379794 17.5512C0.157525 16.1771 1.09129 14.883 2.46538 14.6607L8.79581 13.6367C10.1699 13.4145 11.464 14.3482 11.6863 15.7223L12.7103 22.0527C12.9326 23.4269 11.9988 24.721 10.6247 24.9432Z"
            fill="#73E7E6" />
        <path
            d="M12.7103 22.0528L11.6863 15.7224C11.4641 14.3483 10.17 13.4145 8.79587 13.6368L6.43063 14.0194C7.6958 13.9737 8.82659 14.8757 9.03398 16.1578L10.0688 22.5557C10.254 23.7004 9.64493 24.7897 8.64743 25.2631L10.6247 24.9433C11.9988 24.721 12.9326 23.4269 12.7103 22.0528Z"
            fill="#65D1CB" />
        <path
            d="M23.1325 25.3085H16.7197C15.3278 25.3085 14.1994 24.1801 14.1994 22.7882V16.3754C14.1994 14.9834 15.3278 13.855 16.7197 13.855H23.1325C24.5244 13.855 25.6529 14.9834 25.6529 16.3754V22.7882C25.6529 24.1801 24.5244 25.3085 23.1325 25.3085Z"
            fill="#FF9F40" />
        <path
            d="M23.1325 13.855H21.0789C22.2027 14.1218 23.0388 15.1311 23.0388 16.3365V22.8271C23.0388 24.0324 22.2027 25.0418 21.0789 25.3085H23.1325C24.5244 25.3085 25.6529 24.1801 25.6529 22.7882V16.3754C25.6529 14.9834 24.5244 13.855 23.1325 13.855Z"
            fill="#F49138" />
        <path
            d="M12.0203 9.2048C11.9624 9.2048 11.9009 9.19581 11.8424 9.1788C11.6411 9.1203 11.451 8.96567 11.5095 8.76427L12.5886 5.04876L12.3767 5.19882L12.3741 5.20024C12.3295 5.22482 12.2772 5.23833 12.2269 5.23833C12.2036 5.23833 12.1809 5.23539 12.1615 5.22975C12.0778 5.20542 12.0117 5.1424 11.9755 5.05232C11.9431 4.97178 11.9384 4.87758 11.9627 4.79389C11.9988 4.66973 12.1021 4.55944 12.2206 4.51805L13.1406 4.03548C13.19 4.00826 13.2395 3.99475 13.2909 3.99475C13.3224 3.99475 13.3545 3.99963 13.389 4.00963C13.57 4.06219 13.7329 4.23104 13.6803 4.41207L12.3458 9.0071C12.3097 9.13086 12.1881 9.2048 12.0203 9.2048Z"
            fill="white" />
        <path
            d="M5.4808 22.6978C5.32033 22.6978 5.13594 22.6123 5.11035 22.454L4.99837 21.7618C4.8995 21.1504 5.44185 20.6014 5.96642 20.0705C6.4758 19.5549 6.9569 19.068 6.87342 18.5517C6.82558 18.2561 6.59651 17.9578 6.19265 17.9578C6.1441 17.9578 6.09332 17.9621 6.04157 17.9704C5.84652 18.002 5.69083 18.0833 5.59135 18.2056C5.48161 18.3404 5.44367 18.5181 5.47851 18.7334C5.50527 18.8991 5.36425 19.0977 5.08181 19.1434C5.05119 19.1484 5.02173 19.1509 4.99411 19.1509C4.78474 19.1509 4.65596 19.0108 4.61122 18.7346C4.49 17.9852 5.04961 17.3148 5.91294 17.1751C6.01121 17.1592 6.11058 17.1512 6.20834 17.1512C6.99819 17.1512 7.60949 17.6495 7.72949 18.3913C7.87711 19.3042 7.16698 19.9956 6.59631 20.5512C6.18386 20.9528 5.82763 21.2995 5.87933 21.6193L5.91487 21.8388L7.961 21.5079C7.97278 21.5059 7.98471 21.505 7.9967 21.505C8.1498 21.505 8.29346 21.6517 8.32378 21.8389C8.35709 22.0452 8.2439 22.2563 8.08617 22.2818L5.54605 22.6927C5.52538 22.696 5.50339 22.6977 5.4808 22.6978Z"
            fill="white" />
        <path
            d="M19.9008 22.2975C19.3772 22.2975 18.9423 22.1466 18.6432 21.8611C18.394 21.6233 18.2511 21.2996 18.2511 20.9731C18.2511 20.6979 18.3613 20.5956 18.6576 20.5956C18.9813 20.5956 19.1074 20.6913 19.1074 20.937C19.1074 21.224 19.355 21.5135 19.908 21.5135C20.4844 21.5135 20.7304 21.2612 20.7304 20.6696V20.5322C20.7304 20.0373 20.459 19.7967 19.9009 19.7967C19.717 19.7967 19.6028 19.6603 19.6028 19.4409C19.6028 19.2169 19.717 19.0778 19.9009 19.0778C20.3207 19.0778 20.6003 18.9514 20.6003 18.3349C20.6003 17.8562 20.3935 17.6427 19.9298 17.6427C19.3517 17.6427 19.2303 17.9366 19.2303 18.1832C19.2303 18.4241 19.0912 18.5462 18.8167 18.5462C18.4635 18.5462 18.3669 18.4588 18.3669 18.1398C18.3669 17.6667 18.6975 16.866 19.937 16.866C20.9357 16.866 21.4421 17.3165 21.4421 18.2048C21.4421 18.7559 21.2522 19.1949 20.929 19.4056C21.3692 19.6148 21.6011 20.0021 21.6011 20.5322V20.6695C21.601 21.2776 21.3802 22.2975 19.9008 22.2975Z"
            fill="white" />
    </g>
    <defs>
        <clipPath id="clip0_1_2002">
            <rect width="26" height="26" fill="white" />
        </clipPath>
    </defs>
</svg>
    