<svg width="20" height="20" viewBox="0 0 20 20" fill="none" xmlns="http://www.w3.org/2000/svg">
<path d="M4.47127 2.62143L7.56413 5.71429H2.20699C2.3163 5.05762 2.5781 4.43574 2.97134 3.8986C3.36458 3.36146 3.87831 2.92403 4.47127 2.62143ZM8.62841 2.14286H6.42841C6.2927 2.14286 6.15699 2.15 6.02127 2.15715L9.57841 5.71429H12.1998L8.62841 2.14286ZM13.5713 2.14286H10.657L14.2284 5.71429H17.7927C17.6254 4.71577 17.1094 3.80894 16.3364 3.15502C15.5635 2.5011 14.5837 2.14246 13.5713 2.14286ZM8.91549 14.0186L12.4869 12.0543C12.5991 11.9928 12.6926 11.9022 12.7578 11.7921C12.8229 11.6821 12.8573 11.5565 12.8573 11.4286C12.8573 11.3007 12.8229 11.1751 12.7578 11.065C12.6926 10.9549 12.5991 10.8644 12.4869 10.8029L8.91549 8.83857C8.80674 8.77877 8.68428 8.74832 8.56018 8.75025C8.43609 8.75218 8.31463 8.78641 8.20779 8.84956C8.10095 8.91272 8.01241 9.00263 7.9509 9.11042C7.88938 9.21821 7.85701 9.34018 7.85699 9.46429V13.3929C7.85701 13.517 7.88938 13.6389 7.9509 13.7467C8.01241 13.8545 8.10095 13.9444 8.20779 14.0076C8.31463 14.0707 8.43609 14.105 8.56018 14.1069C8.68428 14.1088 8.80674 14.0784 8.91549 14.0186ZM17.857 7.14286V13.5714C17.8561 14.7078 17.4043 15.7974 16.6007 16.6009C15.7972 17.4044 14.7076 17.8562 13.5713 17.8571H6.42841C5.29205 17.8562 4.20249 17.4044 3.39896 16.6009C2.59543 15.7974 2.14361 14.7078 2.1427 13.5714V7.14286H17.857Z" fill="#5351DC"/>
</svg>
