<svg width="20" height="20" viewBox="0 0 20 20" fill="none" xmlns="http://www.w3.org/2000/svg">
<g clip-path="url(#clip0_1_1979)">
<path d="M10.0025 0H9.9975C4.48375 0 0 4.485 0 10C0 12.1875 0.705 14.215 1.90375 15.8612L0.6575 19.5763L4.50125 18.3475C6.0825 19.395 7.96875 20 10.0025 20C15.5162 20 20 15.5138 20 10C20 4.48625 15.5162 0 10.0025 0Z" fill="#4CAF50"/>
<path d="M15.8213 14.1213C15.58 14.8026 14.6225 15.3676 13.8588 15.5326C13.3363 15.6438 12.6538 15.7326 10.3563 14.7801C7.4175 13.5626 5.525 10.5763 5.3775 10.3826C5.23625 10.1888 4.19 8.80131 4.19 7.36631C4.19 5.93131 4.91875 5.23256 5.2125 4.93256C5.45375 4.68631 5.8525 4.57381 6.235 4.57381C6.35875 4.57381 6.47 4.58006 6.57 4.58506C6.86375 4.59756 7.01125 4.61506 7.205 5.07881C7.44625 5.66006 8.03375 7.09506 8.10375 7.24256C8.175 7.39006 8.24625 7.59006 8.14625 7.78381C8.0525 7.98381 7.97 8.07256 7.8225 8.24256C7.675 8.41256 7.535 8.54256 7.3875 8.72506C7.2525 8.88381 7.1 9.05381 7.27 9.34756C7.44 9.63506 8.0275 10.5938 8.8925 11.3638C10.0088 12.3576 10.9138 12.6751 11.2375 12.8101C11.4788 12.9101 11.7663 12.8863 11.9425 12.6988C12.1663 12.4576 12.4425 12.0576 12.7238 11.6638C12.9238 11.3813 13.1763 11.3463 13.4413 11.4463C13.7113 11.5401 15.14 12.2463 15.4338 12.3926C15.7275 12.5401 15.9213 12.6101 15.9925 12.7338C16.0625 12.8576 16.0625 13.4388 15.8213 14.1213Z" fill="#FAFAFA"/>
</g>
<defs>
<clipPath id="clip0_1_1979">
<rect width="20" height="20" fill="white"/>
</clipPath>
</defs>
</svg>
