<svg width="33" height="32" viewBox="0 0 33 32" fill="none" xmlns="http://www.w3.org/2000/svg">
    <rect x="0.333313" width="32" height="32" rx="16" fill="#3D74DB" fill-opacity="0.12" />
    <g clip-path="url(#clip0_37_72)">
        <path
            d="M24.5037 22.5531H9.17554V7.22502C9.17554 6.93354 8.93967 6.69768 8.64819 6.69768C8.35671 6.69768 8.12085 6.93354 8.12085 7.22502V9.8969H7.55835C7.26687 9.8969 7.03101 10.1328 7.03101 10.4242C7.03101 10.7157 7.26687 10.9516 7.55835 10.9516H8.12085V13.061H7.55835C7.26687 13.061 7.03101 13.2968 7.03101 13.5883C7.03101 13.8798 7.26687 14.1156 7.55835 14.1156H8.12085V16.225H7.55835C7.26687 16.225 7.03101 16.4609 7.03101 16.7524C7.03101 17.0438 7.26687 17.2797 7.55835 17.2797H8.12085V19.3891H7.55835C7.26687 19.3891 7.03101 19.6249 7.03101 19.9164C7.03101 20.2079 7.26687 20.4438 7.55835 20.4438H8.12085V22.5531H7.55835C7.26687 22.5531 7.03101 22.789 7.03101 23.0805C7.03101 23.372 7.26687 23.6078 7.55835 23.6078H8.12085V24.1703C8.12085 24.4618 8.35671 24.6977 8.64819 24.6977C8.93967 24.6977 9.17554 24.4618 9.17554 24.1703V23.6078H11.2849V24.1703C11.2849 24.4618 11.5208 24.6977 11.8123 24.6977C12.1037 24.6977 12.3396 24.4618 12.3396 24.1703V23.6078H14.449V24.1703C14.449 24.4618 14.6848 24.6977 14.9763 24.6977C15.2678 24.6977 15.5037 24.4618 15.5037 24.1703V23.6078H17.613V24.1703C17.613 24.4618 17.8489 24.6977 18.1404 24.6977C18.4319 24.6977 18.6677 24.4618 18.6677 24.1703V23.6078H20.7771V24.1703C20.7771 24.4618 21.013 24.6977 21.3044 24.6977C21.5959 24.6977 21.8318 24.4618 21.8318 24.1703V23.6078H24.5037C24.7951 23.6078 25.031 23.372 25.031 23.0805C25.031 22.789 24.7951 22.5531 24.5037 22.5531Z"
            fill="#3D74DB" />
        <path
            d="M23.9412 12.4985C23.9412 12.207 23.7053 11.9711 23.4138 11.9711C22.3514 11.9711 21.5413 10.8006 20.6834 9.56151C19.7085 8.15353 18.7007 6.69768 17.0857 6.69768C15.4707 6.69768 14.4629 8.15353 13.488 9.56151C12.6301 10.8006 11.82 11.9711 10.7576 11.9711C10.4661 11.9711 10.2302 12.207 10.2302 12.4985C10.2302 12.7899 10.4661 13.0258 10.7576 13.0258C12.3726 13.0258 13.3804 11.5699 14.3552 10.162C15.2132 8.92293 16.0233 7.75237 17.0857 7.75237C18.1481 7.75237 18.9582 8.92293 19.8161 10.162C20.791 11.5699 21.7988 13.0258 23.4138 13.0258C23.7053 13.0258 23.9412 12.7899 23.9412 12.4985Z"
            fill="#3D74DB" />
        <path
            d="M13.9216 14.0805H11.8123C11.5208 14.0805 11.2849 14.3164 11.2849 14.6078V20.9711C11.2849 21.2626 11.5208 21.4985 11.8123 21.4985H13.9216C14.2131 21.4985 14.449 21.2626 14.449 20.9711V14.6078C14.449 14.3164 14.2131 14.0805 13.9216 14.0805Z"
            fill="#3D74DB" />
        <path
            d="M18.1404 10.9164H16.031C15.7395 10.9164 15.5037 11.1523 15.5037 11.4438V20.9711C15.5037 21.2626 15.7395 21.4985 16.031 21.4985H18.1404C18.4319 21.4985 18.6677 21.2626 18.6677 20.9711V11.4438C18.6677 11.1523 18.4319 10.9164 18.1404 10.9164Z"
            fill="#3D74DB" />
        <path
            d="M20.2498 14.0805C19.9583 14.0805 19.7224 14.3164 19.7224 14.6078V20.9711C19.7224 21.2626 19.9583 21.4985 20.2498 21.4985H22.3591C22.6506 21.4985 22.8865 21.2626 22.8865 20.9711V14.6078C22.8865 14.3164 22.6506 14.0805 22.3591 14.0805H20.2498Z"
            fill="#3D74DB" />
    </g>
    <defs>
        <clipPath id="clip0_37_72">
            <rect width="18" height="18" fill="white" transform="translate(7.03101 6.69768)" />
        </clipPath>
    </defs>
</svg>
    