<svg width="33" height="32" viewBox="0 0 33 32" fill="none" xmlns="http://www.w3.org/2000/svg">
    <rect x="0.666748" width="32" height="32" rx="16" fill="#CD2D2F" fill-opacity="0.12" />
    <path fill-rule="evenodd" clip-rule="evenodd"
        d="M23.959 8.08331C24.0178 8.10061 24.0662 8.14903 24.08 8.21128C24.5677 10.3384 22.8141 14.9141 20.272 17.4424C19.8224 17.892 19.3347 18.3071 18.8125 18.6737C18.8782 19.4519 18.8194 20.2301 18.5289 20.8976C17.7057 22.7791 15.5406 23.3256 14.6137 23.4743C14.586 23.4812 14.5549 23.4812 14.5238 23.4777C14.3405 23.4605 14.2056 23.2944 14.2263 23.1111L14.5584 20.0952C14.3301 20.0917 14.1053 20.0779 13.8805 20.0537C13.7248 20.0399 13.5761 19.9672 13.4654 19.8565L12.2964 18.691C12.1857 18.5803 12.1131 18.4316 12.0993 18.2759C12.0751 18.0511 12.0612 17.8229 12.0578 17.5946L9.03836 17.9266C9.00724 17.9301 8.97612 17.9266 8.94499 17.9232H8.94498C8.76167 17.892 8.64062 17.7191 8.67175 17.5392C8.82739 16.6123 9.37385 14.4507 11.2554 13.6241C11.9229 13.3335 12.7045 13.2747 13.4862 13.3439C13.8528 12.8251 14.2644 12.3374 14.7175 11.8878C17.2526 9.35264 21.9322 7.58873 23.959 8.08331ZM17.7334 14.423C18.3802 15.0732 19.4316 15.0698 20.0784 14.423C20.7286 13.7762 20.7286 12.7248 20.0818 12.0746C19.4316 11.4244 18.3802 11.4244 17.7334 12.0746C17.0832 12.7248 17.0832 13.7762 17.7334 14.423ZM12.5251 21.029C12.8917 20.9633 13.196 20.8906 13.3863 20.7004C13.4866 20.5967 13.6629 20.6831 13.6491 20.8249C13.5938 21.2884 13.3863 21.7138 13.0577 22.0424C12.2449 22.8586 9.22205 22.9347 9.22205 22.9347C9.22205 22.9347 9.29814 19.9153 10.1144 19.0991C10.4395 18.7739 10.8684 18.563 11.3284 18.5076C11.3768 18.5007 11.4217 18.518 11.4563 18.5526C11.5151 18.6114 11.5117 18.7082 11.4529 18.767C11.3491 18.8708 11.1796 19.3135 11.1243 19.6282C10.9756 20.4583 11.7019 21.1673 12.5251 21.029Z"
        fill="#CD2D2F" fill-opacity="0.88" />
</svg>
    