<svg width="32" height="32" viewBox="0 0 32 32" fill="none" xmlns="http://www.w3.org/2000/svg">
    <rect width="32" height="32" rx="16" fill="#F58E44" fill-opacity="0.12" />
    <g clip-path="url(#clip0_1_1819)">
        <path
            d="M16 18.7112C17.4964 18.7112 18.7095 17.4981 18.7095 16.0016C18.7095 14.5052 17.4964 13.2921 16 13.2921C14.5035 13.2921 13.2904 14.5052 13.2904 16.0016C13.2904 17.4981 14.5035 18.7112 16 18.7112Z"
            fill="#F58E44" />
        <path
            d="M24.53 15.2511C22.4472 12.7342 19.2945 10.3115 16 10.3115C12.7048 10.3115 9.55135 12.7359 7.46998 15.2511C7.10994 15.6859 7.10994 16.3173 7.46998 16.7521C7.99326 17.3845 9.09029 18.6051 10.5555 19.6717C14.2455 22.3579 17.7463 22.3639 21.4445 19.6717C22.9097 18.6051 24.0067 17.3845 24.53 16.7521C24.889 16.3181 24.8908 15.6874 24.53 15.2511ZM16 12.2082C18.0918 12.2082 19.7934 13.9098 19.7934 16.0016C19.7934 18.0934 18.0918 19.795 16 19.795C13.9082 19.795 12.2066 18.0934 12.2066 16.0016C12.2066 13.9098 13.9082 12.2082 16 12.2082Z"
            fill="#F58E44" />
    </g>
    <defs>
        <clipPath id="clip0_1_1819">
            <rect width="17.6" height="17.6" fill="white" transform="translate(7.19995 7.20006)" />
        </clipPath>
    </defs>
</svg>
    