<svg width="33" height="32" viewBox="0 0 33 32" fill="none" xmlns="http://www.w3.org/2000/svg">
    <rect x="0.333374" width="32" height="32" rx="16" fill="#29A81E" fill-opacity="0.12" />
    <g clip-path="url(#clip0_37_288)">
        <path fill-rule="evenodd" clip-rule="evenodd"
            d="M23.7042 8.65921C23.2592 8.23838 22.6567 8.00005 22.0267 8.00005H10.5567C9.92675 8.00005 9.32425 8.23838 8.87925 8.65921C8.42091 9.09171 8.16675 9.68005 8.16675 10.2917V18.625C8.16675 19.2367 8.42091 19.825 8.87925 20.2575C9.32425 20.6784 9.92675 20.9167 10.5567 20.9167H22.0267C22.6567 20.9167 23.2592 20.6784 23.7042 20.2575C24.1626 19.825 24.4167 19.2367 24.4167 18.625V10.2917C24.4167 9.68005 24.1626 9.09171 23.7042 8.65921ZM12.7501 16.9584C12.4051 16.9584 12.1251 16.6784 12.1251 16.3334V13.8334C12.1251 12.7975 12.9642 11.9584 14.0001 11.9584C15.0359 11.9584 15.8751 12.7975 15.8751 13.8334V16.3334C15.8751 16.6784 15.5951 16.9584 15.2501 16.9584C14.9051 16.9584 14.6251 16.6784 14.6251 16.3334V15.2917H13.3751V16.3334C13.3751 16.6784 13.0951 16.9584 12.7501 16.9584ZM13.3751 13.8334V14.0417H14.6251V13.8334C14.6251 13.4884 14.3451 13.2084 14.0001 13.2084C13.6551 13.2084 13.3751 13.4884 13.3751 13.8334ZM17.3334 16.9584C16.9884 16.9584 16.7084 16.6784 16.7084 16.3334V12.5834C16.7084 12.2384 16.9884 11.9584 17.3334 11.9584H18.5834C19.6192 11.9584 20.4584 12.7975 20.4584 13.8334V15.0834C20.4584 16.1192 19.6192 16.9584 18.5834 16.9584H17.3334ZM17.9584 13.2084V15.7084H18.5834C18.9284 15.7084 19.2084 15.4284 19.2084 15.0834V13.8334C19.2084 13.4884 18.9284 13.2084 18.5834 13.2084H17.9584ZM25.2499 22.7917C25.2499 22.4467 24.9699 22.1667 24.6249 22.1667H7.95825C7.61325 22.1667 7.33325 22.4467 7.33325 22.7917C7.33325 23.1367 7.61325 23.4167 7.95825 23.4167H24.6249C24.9699 23.4167 25.2499 23.1367 25.2499 22.7917Z"
            fill="#29A81E" />
    </g>
    <defs>
        <clipPath id="clip0_37_288">
            <rect width="18" height="18" fill="white" transform="translate(7.03101 6.69768)" />
        </clipPath>
    </defs>
</svg>
    