<svg width="33" height="32" viewBox="0 0 33 32" fill="none" xmlns="http://www.w3.org/2000/svg">
    <rect x="0.666687" width="32" height="32" rx="16" fill="#6A3BB5" fill-opacity="0.12" />
    <g clip-path="url(#clip0_37_215)">
        <path
            d="M16.6664 9.96812C15.7648 9.96812 15.0312 9.23462 15.0312 8.33294C15.0312 7.43127 15.7648 6.69777 16.6664 6.69777C17.5681 6.69777 18.3016 7.43127 18.3016 8.33294C18.3016 9.23462 17.5681 9.96812 16.6664 9.96812Z"
            fill="#6A3BB5" />
        <path
            d="M19.3917 13.2385H13.9411V12.6934C13.9411 11.1907 15.1638 9.96811 16.6664 9.96811C18.1691 9.96811 19.3917 11.1907 19.3917 12.6934V13.2385Z"
            fill="#6A3BB5" />
        <path d="M11.7609 14.3286H15.0312V16.5088H11.7609V14.3286Z" fill="#6A3BB5" />
        <path d="M18.3016 14.3286H21.572V16.5088H18.3016V14.3286Z" fill="#6A3BB5" />
        <path
            d="M18.3016 17.5989V20.3969C18.3016 21.2986 17.5681 22.0321 16.6664 22.0321C15.7647 22.0321 15.0312 21.2986 15.0312 20.3969V17.5989H11.7609V20.3969C11.7609 23.102 13.9614 25.3024 16.6664 25.3024C19.3715 25.3024 21.5719 23.102 21.5719 20.3969V17.5989H18.3016Z"
            fill="#6A3BB5" />
        <path d="M20.4797 10.4986L20.4895 9.40847L22.6699 9.4281L22.66 10.5182L20.4797 10.4986Z"
            fill="#6A3BB5" />
        <path d="M20.1091 12.3394L20.5789 11.3552L22.5477 12.295L22.078 13.2792L20.1091 12.3394Z"
            fill="#6A3BB5" />
        <path d="M20.1636 7.59755L22.1474 6.69284L22.5997 7.68452L20.6159 8.58922L20.1636 7.59755Z"
            fill="#6A3BB5" />
        <path d="M10.6672 9.42726L12.8475 9.40764L12.8573 10.4978L10.677 10.5174L10.6672 9.42726Z"
            fill="#6A3BB5" />
        <path d="M10.797 12.3013L12.7659 11.3615L13.2357 12.3458L11.2668 13.2855L10.797 12.3013Z"
            fill="#6A3BB5" />
        <path d="M10.7358 7.68941L11.1881 6.69773L13.1719 7.60244L12.7196 8.59411L10.7358 7.68941Z"
            fill="#6A3BB5" />
    </g>
    <defs>
        <clipPath id="clip0_37_215">
            <rect width="18.6047" height="18.6047" fill="white"
                transform="translate(7.36435 6.69768)" />
        </clipPath>
    </defs>
</svg>
    