<svg width="25" height="25" viewBox="0 0 25 25" fill="none" xmlns="http://www.w3.org/2000/svg">
    <g clip-path="url(#clip0_1_1889)">
        <path fill-rule="evenodd" clip-rule="evenodd"
            d="M2.07051 19.3201C1.88488 19.3486 1.69924 19.2772 1.59929 19.1202L0.0571086 16.5784C-0.0571269 16.3785 -9.12027e-06 16.1072 0.214182 15.9787L1.8706 14.9791C1.97055 14.9077 2.08479 14.8935 2.19902 14.922C2.31326 14.9506 2.41322 15.022 2.47033 15.1219L4.01251 17.6494C4.06963 17.7493 4.08391 17.8779 4.05535 17.9921C4.02679 18.1063 3.9554 18.192 3.85544 18.2634L2.19902 19.263C2.15619 19.2915 2.11335 19.3058 2.07051 19.3201Z"
            fill="#FBA617" />
        <path fill-rule="evenodd" clip-rule="evenodd"
            d="M0.985291 15.5075L1.87062 14.9791C1.97057 14.9077 2.08481 14.8935 2.19904 14.922C2.31328 14.9506 2.41323 15.022 2.47035 15.1219L4.01253 17.6494C4.06965 17.7493 4.08393 17.8779 4.05537 17.9921C4.02681 18.1063 3.95541 18.192 3.85546 18.2634L2.98441 18.7917L0.985291 15.5075Z"
            fill="#FB9515" />
        <path fill-rule="evenodd" clip-rule="evenodd"
            d="M21.1764 14.922C21.1621 14.922 21.1478 14.922 21.1336 14.922L8.22496 16.35C8.05361 16.3642 7.88225 16.2786 7.79658 16.1358L5.56898 12.4659C5.48331 12.3089 5.48331 12.1232 5.58326 11.9804L12.7944 1.19947C12.8801 1.07095 13.0228 0.999557 13.1799 0.999557C13.3227 0.999557 13.4655 1.08523 13.5369 1.21375L21.4192 14.1938C21.462 14.2509 21.5048 14.3223 21.5191 14.3937C21.562 14.6364 21.4192 14.8649 21.1764 14.9077V14.922Z"
            fill="#FBA617" />
        <path fill-rule="evenodd" clip-rule="evenodd"
            d="M9.53867 16.2072L8.22496 16.35C8.05361 16.3642 7.88225 16.2786 7.79658 16.1358L5.56898 12.4659C5.48331 12.3089 5.48331 12.1232 5.58326 11.9804L6.31152 10.8952C6.34007 10.938 6.38291 10.9809 6.41147 11.0237L9.45299 16.0501C9.48155 16.0929 9.51011 16.15 9.53867 16.2072Z"
            fill="#FB9515" />
        <path fill-rule="evenodd" clip-rule="evenodd"
            d="M8.68204 23.6039C8.51068 23.6324 8.31077 23.5611 8.2251 23.3897L5.29781 18.5775C5.1693 18.3633 5.24069 18.1063 5.44061 17.9778L7.06846 16.9782C7.16842 16.9211 7.29693 16.9068 7.39689 16.9354C7.51112 16.964 7.61108 17.0353 7.6682 17.1353L10.5955 21.9475C10.6669 22.0474 10.6812 22.1759 10.6526 22.2759C10.624 22.3901 10.5526 22.4901 10.4527 22.5472L8.82483 23.5468C8.78199 23.5753 8.72488 23.5896 8.68204 23.6039Z"
            fill="#E1474F" />
        <path fill-rule="evenodd" clip-rule="evenodd"
            d="M5.82615 19.4486L5.29781 18.5775C5.1693 18.3633 5.24069 18.1063 5.44061 17.9778L7.06846 16.9782C7.16842 16.9211 7.29693 16.9068 7.39689 16.9354C7.51112 16.964 7.61108 17.0353 7.6682 17.1353L8.21082 18.0063L5.82615 19.4486Z"
            fill="#CB4047" />
        <path fill-rule="evenodd" clip-rule="evenodd"
            d="M4.46946 19.5628C4.41234 19.5771 4.34094 19.5628 4.28382 19.5486C4.16959 19.52 4.06963 19.4486 4.01251 19.3486L0.970994 14.3366C0.899596 14.2366 0.885317 14.1081 0.913876 13.9939C0.942435 13.8939 1.01383 13.7939 1.11379 13.7225L5.31194 11.1808C5.51186 11.0523 5.78316 11.1237 5.91168 11.3379L8.9532 16.35C9.08171 16.5641 9.01032 16.8355 8.81041 16.964L4.61225 19.5057C4.56941 19.5343 4.52657 19.5486 4.46946 19.5628Z"
            fill="#FEE14D" />
        <path fill-rule="evenodd" clip-rule="evenodd"
            d="M20.705 14.0938C20.6908 14.1081 20.6765 14.1081 20.6622 14.1081L18.1062 15.1362L11.4091 3.52702L13.0655 1.0424C13.1512 0.913881 13.294 0.842484 13.4368 0.842484C13.5939 0.842484 13.7224 0.92816 13.8081 1.05668L20.9478 13.3798C20.9906 13.4369 21.0335 13.5083 21.0477 13.5797C21.0906 13.8225 20.9478 14.051 20.705 14.0938Z"
            fill="#FB9515" />
        <path fill-rule="evenodd" clip-rule="evenodd"
            d="M20.7766 15.6645C19.9627 16.1358 18.9203 15.8645 18.4348 15.0362L11.6949 3.36995C11.2236 2.54174 11.5092 1.49934 12.3232 1.02812C13.1514 0.542619 14.1938 0.828207 14.665 1.65641L21.4049 13.3227C21.8904 14.1366 21.6048 15.1933 20.7766 15.6645Z"
            fill="#FEE14D" />
        <path fill-rule="evenodd" clip-rule="evenodd"
            d="M17.9347 4.49801C17.8919 4.49801 17.8491 4.48374 17.8062 4.46946C17.6634 4.39806 17.6063 4.22671 17.6777 4.09819L19.2199 0.928156C19.2913 0.785361 19.4626 0.728243 19.6054 0.785361C19.7482 0.856758 19.8053 1.02811 19.7339 1.17091L18.1775 4.34094C18.1347 4.4409 18.0347 4.49801 17.9347 4.49801Z"
            fill="#CCCCCC" />
        <path fill-rule="evenodd" clip-rule="evenodd"
            d="M24.0892 9.29591H24.0749L20.5479 9.06744C20.3908 9.05316 20.2766 8.92464 20.2908 8.76757C20.3051 8.6105 20.4194 8.49626 20.5907 8.49626L24.1035 8.73901C24.2605 8.73901 24.3748 8.88181 24.3748 9.03888C24.3605 9.18167 24.232 9.29591 24.0892 9.29591Z"
            fill="#CCCCCC" />
        <path fill-rule="evenodd" clip-rule="evenodd"
            d="M19.0485 7.0112C18.9486 7.0112 18.8629 6.95408 18.8058 6.8684C18.7344 6.72561 18.7772 6.55425 18.9057 6.48286L21.6902 4.86928C21.8187 4.79788 21.9901 4.84072 22.0758 4.96924C22.1472 5.11203 22.1043 5.28338 21.9758 5.35478L19.1913 6.96836C19.1485 6.99692 19.0914 7.0112 19.0485 7.0112Z"
            fill="#CCCCCC" />
    </g>
    <defs>
        <clipPath id="clip0_1_1889">
            <rect width="24.375" height="24.375" fill="white" />
        </clipPath>
    </defs>
</svg>
    