<svg width="32" height="32" viewBox="0 0 32 32" fill="none" xmlns="http://www.w3.org/2000/svg">
    <rect width="32" height="32" rx="16" fill="#C9A236" fill-opacity="0.12" />
    <path
        d="M20.5937 11.881C19.2504 10.3869 17.8854 8.91203 16.4986 7.45633C15.9165 6.84579 15.0796 6.84858 14.4946 7.46097C13.111 8.91698 11.7478 10.3967 10.399 11.8852C10.0326 12.29 9.86847 12.7794 10.1228 13.3287C10.5641 14.2805 11.6582 14.4615 12.4607 13.6843C12.9855 13.1782 14.0896 11.92 14.0896 11.92C14.0896 11.92 14.0958 16.2792 14.0982 18.6401C14.0982 18.8191 14.1346 18.9964 14.2052 19.1617C14.2757 19.327 14.3791 19.4771 14.5095 19.6034C14.6398 19.7297 14.7944 19.8298 14.9646 19.8979C15.1347 19.9659 15.3169 20.0006 15.5009 20C15.6845 20.0001 15.8664 19.965 16.036 19.8966C16.2057 19.8283 16.3598 19.7281 16.4897 19.6018C16.6196 19.4754 16.7226 19.3254 16.7929 19.1604C16.8632 18.9953 16.8993 18.8184 16.8993 18.6397V11.9539C17.5377 12.6308 18.0215 13.1773 18.5425 13.6876C19.1504 14.2837 19.9152 14.326 20.5035 13.8375C21.1114 13.3333 21.1839 12.5375 20.5937 11.881Z"
        fill="#EFBC2E" />
    <circle cx="15.4999" cy="22.5" r="1.5" fill="#EFBC2E" />
</svg>
    