<?xml version="1.0" encoding="UTF-8"?>
<svg width="20px" height="20px" viewBox="0 0 20 20" version="1.1" xmlns="http://www.w3.org/2000/svg" xmlns:xlink="http://www.w3.org/1999/xlink">
    <title>fi_7118098</title>
    <defs>
        <rect id="path-1" x="0" y="0" width="20" height="20"></rect>
    </defs>
    <g id="---↪️-Desktop" stroke="none" stroke-width="1" fill="none" fill-rule="evenodd">
        <g id="Agent-Dashboard-4.0" transform="translate(-527, -4440)">
            <g id="fi_7118098" transform="translate(527, 4440)">
                <mask id="mask-2" fill="white">
                    <use xlink:href="#path-1"></use>
                </mask>
                <g id="Clip" fill-rule="nonzero"></g>
                <path d="M16.875,9.0117182 C16.4809862,8.83875432 16.055306,8.74962761 15.625,8.74999809 L4.375,8.74999809 C3.9447299,8.74958414 3.51906702,8.8385744 3.125,9.01132779 C2.56804794,9.25488934 2.09411565,9.65543169 1.76113054,10.1639971 C1.42814543,10.6725625 1.25053221,11.2671203 1.25,11.8749999 L1.25,16.2499981 C1.25,16.4157603 1.315848,16.574732 1.43305823,16.6919422 C1.55026847,16.8091524 1.70923969,16.875 1.875,16.875 C2.04076031,16.875 2.19973153,16.8091524 2.31694177,16.6919422 C2.434152,16.574732 2.5,16.4157603 2.5,16.2499981 L2.5,15.9374999 C2.50101319,15.8549345 2.53426253,15.7760363 2.59264946,15.7176494 C2.65103639,15.6592624 2.72993463,15.6260131 2.8125,15.6249999 L17.1875,15.6249999 C17.2700654,15.6260131 17.3489636,15.6592624 17.4073505,15.7176494 C17.4657375,15.7760363 17.4989868,15.8549345 17.5,15.9374999 L17.5,16.2499981 C17.5,16.4157603 17.5658476,16.574732 17.6830578,16.6919422 C17.800268,16.8091524 17.9592397,16.875 18.125,16.875 C18.2907603,16.875 18.449732,16.8091524 18.5669422,16.6919422 C18.6841524,16.574732 18.75,16.4157603 18.75,16.2499981 L18.75,11.8749999 C18.7493919,11.2671868 18.5717431,10.6727126 18.2387626,10.1642236 C17.9057821,9.6557346 17.4318912,9.25525306 16.875,9.0117182 Z" id="Vector" fill="#696974" fill-rule="nonzero" mask="url(#mask-2)"></path>
                <path d="M14.6875,3.125 L5.3125,3.125 C4.73233894,3.125 4.17593986,3.3554682 3.76570404,3.76570401 C3.35546821,4.17593981 3.125,4.73233886 3.125,5.3124999 L3.125,8.125 C3.125,8.14921288 3.13066201,8.1730905 3.14148813,8.19474852 C3.15231426,8.21640655 3.16802567,8.23525213 3.18738252,8.24979818 C3.20673937,8.26434423 3.22921205,8.27419281 3.2530269,8.27856636 C3.27684176,8.28293991 3.30134724,8.28171877 3.3246094,8.27499962 C3.66580416,8.17520739 4.01951123,8.12469675 4.375,8.125 L4.54023451,8.125 C4.57880152,8.12524452 4.61609618,8.11121666 4.64494199,8.085616 C4.6737878,8.06001535 4.69214641,8.02465082 4.69648451,7.98632778 C4.73057444,7.68093366 4.87596175,7.39879689 5.10488093,7.19380002 C5.33380011,6.98880316 5.63020924,6.87531171 5.9375,6.87499983 L8.125,6.87499983 C8.43249278,6.87502362 8.72918826,6.98838555 8.958354,7.19340961 C9.18751974,7.39843367 9.33307514,7.68073305 9.36718762,7.98632778 C9.37152572,8.02465082 9.38988373,8.06001535 9.41872954,8.085616 C9.44757535,8.11121666 9.48487061,8.12524452 9.52343762,8.125 L10.4789066,8.125 C10.5174736,8.12524452 10.5547683,8.11121666 10.5836141,8.085616 C10.6124599,8.06001535 10.6308185,8.02465082 10.6351566,7.98632778 C10.6692238,7.68113404 10.8144431,7.39916014 11.0431159,7.19419043 C11.2717886,6.98922072 11.5679113,6.87559945 11.875,6.87499983 L14.0625,6.87499983 C14.3699928,6.87502362 14.6666883,6.98838555 14.895854,7.19340961 C15.1250197,7.39843367 15.2705745,7.68073305 15.304687,7.98632778 C15.3090251,8.02465082 15.3273837,8.06001535 15.3562295,8.085616 C15.3850754,8.11121666 15.42237,8.12524452 15.460937,8.125 L15.625,8.125 C15.9805072,8.12482898 16.3342145,8.17547149 16.6753912,8.27539063 C16.6986851,8.28211897 16.7232248,8.28333388 16.7470694,8.27893949 C16.7709139,8.27454509 16.7934089,8.26466185 16.8127739,8.25007177 C16.832139,8.23548168 16.8478419,8.21658512 16.8586421,8.19487727 C16.8694423,8.17316943 16.875,8.14924587 16.875,8.125 L16.875,5.3124999 C16.875,4.73233886 16.6445324,4.17593981 16.2342966,3.76570401 C15.8240607,3.3554682 15.2676611,3.125 14.6875,3.125 Z" id="Vector" fill="#696974" fill-rule="nonzero" mask="url(#mask-2)"></path>
            </g>
        </g>
    </g>
</svg>