<?xml version="1.0" encoding="UTF-8"?>
<svg width="21px" height="20px" viewBox="0 0 21 20" version="1.1" xmlns="http://www.w3.org/2000/svg" xmlns:xlink="http://www.w3.org/1999/xlink">
    <title>fi_2910891</title>
    <defs>
        <rect id="path-1" x="0" y="0" width="20" height="20"></rect>
    </defs>
    <g id="---↪️-Desktop" stroke="none" stroke-width="1" fill="none" fill-rule="evenodd">
        <g id="Agent-Dashboard-4.0" transform="translate(-745, -1900)">
            <g id="fi_2910891" transform="translate(745.5, 1900)">
                <mask id="mask-2" fill="white">
                    <use xlink:href="#path-1"></use>
                </mask>
                <g id="Clip" fill-rule="nonzero"></g>
                <path d="M10,2.88083339 C9.655,2.88083339 9.375,2.60083339 9.375,2.25583338 L9.375,0.625000009 C9.375,0.28 9.655,0 10,0 C10.345,0 10.625,0.28 10.625,0.625000009 L10.625,2.25583338 C10.625,2.60083339 10.345,2.88083339 10,2.88083339 Z" id="Vector" fill="#009432" fill-rule="nonzero" mask="url(#mask-2)"></path>
                <path d="M15.4758267,5.14916706 C15.3158267,5.14916706 15.1558278,5.0883339 15.0341611,4.9658339 C14.7899944,4.72166721 14.7899944,4.3258337 15.0341611,4.08166701 L16.1874936,2.92833376 C16.4316603,2.68416708 16.8274942,2.68416708 17.0716609,2.92833376 C17.3158276,3.17250045 17.3158276,3.56833369 17.0716609,3.81250037 L15.9183269,4.9658339 C15.7958269,5.08750057 15.6358268,5.14916706 15.4758267,5.14916706 Z" id="Vector" fill="#009432" fill-rule="nonzero" mask="url(#mask-2)"></path>
                <path d="M19.3749938,10.625 L17.7441597,10.625 C17.3991597,10.625 17.1191597,10.345 17.1191597,10 C17.1191597,9.655 17.3991597,9.375 17.7441597,9.375 L19.3749938,9.375 C19.7199938,9.375 19.9999938,9.655 19.9999938,10 C19.9999938,10.345 19.7199938,10.625 19.3749938,10.625 Z" id="Vector" fill="#009432" fill-rule="nonzero" mask="url(#mask-2)"></path>
                <path d="M16.6291607,17.254164 C16.4691607,17.254164 16.3091602,17.1933312 16.1874936,17.0708312 L15.0341611,15.9174972 C14.7899944,15.6733306 14.7899944,15.2774981 15.0341611,15.0333314 C15.2783278,14.7891647 15.6741602,14.7891647 15.9183269,15.0333314 L17.0716609,16.1866639 C17.3158276,16.4308306 17.3158276,16.8266645 17.0716609,17.0708312 C16.9491609,17.1933312 16.7891607,17.254164 16.6291607,17.254164 Z" id="Vector" fill="#009432" fill-rule="nonzero" mask="url(#mask-2)"></path>
                <path d="M3.37083965,17.254164 C3.21083964,17.254164 3.05083967,17.1933312 2.929173,17.0708312 C2.68500631,16.8266645 2.68500631,16.4308306 2.929173,16.1866639 L4.08250649,15.0333314 C4.32667318,14.7891647 4.72250631,14.7891647 4.966673,15.0333314 C5.2108397,15.2774981 5.2108397,15.6733306 4.966673,15.9174972 L3.81333984,17.0708312 C3.69083983,17.1933312 3.53083966,17.254164 3.37083965,17.254164 Z" id="Vector" fill="#009432" fill-rule="nonzero" mask="url(#mask-2)"></path>
                <path d="M2.25583338,10.625 L0.625000009,10.625 C0.28,10.625 0,10.345 0,10 C0,9.655 0.28,9.375 0.625000009,9.375 L2.25583338,9.375 C2.60083339,9.375 2.88083339,9.655 2.88083339,10 C2.88083339,10.345 2.60083339,10.625 2.25583338,10.625 Z" id="Vector" fill="#009432" fill-rule="nonzero" mask="url(#mask-2)"></path>
                <path d="M4.52417286,5.14916706 C4.36417285,5.14916706 4.20417316,5.0883339 4.08250649,4.9658339 L2.929173,3.81250037 C2.68500631,3.56833369 2.68500631,3.17250045 2.929173,2.92833376 C3.17333969,2.68416708 3.56917315,2.68416708 3.81333984,2.92833376 L4.966673,4.08166701 C5.2108397,4.3258337 5.2108397,4.72166721 4.966673,4.9658339 C4.84333966,5.08750057 4.68417287,5.14916706 4.52417286,5.14916706 Z" id="Vector" fill="#009432" fill-rule="nonzero" mask="url(#mask-2)"></path>
                <path d="M12.5,17.5 L12.5,18.5416667 C12.5,19.3416666 11.8416666,20 11.0416667,20 L8.95833333,20 C8.25833336,20 7.5,19.4666659 7.5,18.2999992 L7.5,17.5 L12.5,17.5 Z" id="Vector" fill="#009432" fill-rule="nonzero" mask="url(#mask-2)"></path>
                <path d="M13.6749965,5.46666202 C12.3083298,4.35832859 10.5083301,3.92499524 8.74999674,4.29999525 C6.54166317,4.75832862 4.74999639,6.55832899 4.29166302,8.76666252 C3.82499632,11.0333293 4.67499617,13.2833292 6.49166302,14.6583292 C6.9833297,15.0249959 7.32499669,15.5916625 7.44166337,16.2499959 L7.44166337,16.2583294 C7.45833004,16.2499961 7.48332998,16.2499959 7.49999665,16.2499959 L12.4999966,16.2499959 C12.5166633,16.2499959 12.5249968,16.2499961 12.5416634,16.2583294 L12.5416634,16.2499959 C12.6583301,15.6166625 13.0333299,15.0333292 13.6083299,14.5833291 C15.0166634,13.4666624 15.8333302,11.7999957 15.8333302,9.99999554 C15.8333302,8.23332887 15.0499966,6.58332877 13.6749965,5.46666202 Z M13.1249966,10.4166622 C12.7833299,10.4166622 12.4999966,10.1333289 12.4999966,9.79166219 C12.4999966,8.52499548 11.4749969,7.49999561 10.2083302,7.49999561 C9.86666348,7.49999561 9.58333013,7.21666225 9.58333013,6.87499557 C9.58333013,6.53332889 9.86666348,6.24999554 10.2083302,6.24999554 C12.1583302,6.24999554 13.7499967,7.84166216 13.7499967,9.79166219 C13.7499967,10.1333289 13.4666633,10.4166622 13.1249966,10.4166622 Z" id="Vector" fill="#009432" fill-rule="nonzero" mask="url(#mask-2)"></path>
                <path d="M7.44167328,16.25 L7.50000636,16.25 C7.4833397,16.25 7.45833995,16.25 7.44167328,16.2583335 L7.44167328,16.25 Z" id="Vector" fill="#009432" fill-rule="nonzero" mask="url(#mask-2)"></path>
                <path d="M12.5416668,16.25 L12.5416668,16.2583335 C12.5250002,16.25 12.5166667,16.25 12.5,16.25 L12.5416668,16.25 Z" id="Vector" fill="#009432" fill-rule="nonzero" mask="url(#mask-2)"></path>
            </g>
        </g>
    </g>
</svg>