<?xml version="1.0" encoding="UTF-8"?>
<svg width="32px" height="32px" viewBox="0 0 32 32" version="1.1" xmlns="http://www.w3.org/2000/svg" xmlns:xlink="http://www.w3.org/1999/xlink">
    <title>Frame 35</title>
    <defs>
        <rect id="path-1" x="0" y="0" width="17.6000004" height="17.6000004"></rect>
    </defs>
    <g id="---↪️-Desktop" stroke="none" stroke-width="1" fill="none" fill-rule="evenodd">
        <g id="Agent-Dashboard-4.0" transform="translate(-813, -3793)">
            <g id="Frame-35" transform="translate(813, 3793)">
                <rect id="Frame-Background" fill="#306CC5" fill-rule="nonzero" x="0" y="0" width="32" height="32" rx="16"></rect>
                <g id="fi_61469" transform="translate(7.2001, 7.2001)">
                    <mask id="mask-2" fill="white">
                        <use xlink:href="#path-1"></use>
                    </mask>
                    <g id="Clip" fill-rule="nonzero"></g>
                    <g id="Group" mask="url(#mask-2)">
                        <g transform="translate(0.1951, -0.0001)">
                            <path d="M6.217381,9.70971633 C6.217381,9.48924403 6.03855139,9.3106308 5.81789882,9.3106308 L4.42385735,9.3106308 C4.20345715,9.3106308 4.02459192,9.48924403 4.02459192,9.70971633 L4.02459192,11.1035773 C4.02459192,11.3243381 4.20345715,11.5030227 4.42385735,11.5030227 L5.81789882,11.5030227 C6.03855139,11.5030227 6.217381,11.3243381 6.217381,11.1035773 L6.217381,9.70971633 Z" id="Vector" fill="#FFFFFF" fill-rule="nonzero"></path>
                            <path d="M9.70128632,9.70971633 C9.70128632,9.48924403 9.52242069,9.3106308 9.30220075,9.3106308 L7.90797926,9.3106308 C7.68757904,9.3106308 7.50871325,9.48924403 7.50871325,9.70971633 L7.50871325,11.1035773 C7.50871325,11.3243381 7.68757904,11.5030227 7.90797926,11.5030227 L9.30220075,11.5030227 C9.52242069,11.5030227 9.70128632,11.3243381 9.70128632,11.1035773 L9.70128632,9.70971633 Z" id="Vector" fill="#FFFFFF" fill-rule="nonzero"></path>
                            <path d="M13.1853008,9.70971633 C13.1853008,9.48924403 13.006435,9.3106308 12.7860349,9.3106308 L11.3919934,9.3106308 C11.1713408,9.3106308 10.9925117,9.48924403 10.9925117,9.70971633 L10.9925117,11.1035773 C10.9925117,11.3243381 11.1713408,11.5030227 11.3919934,11.5030227 L12.7860349,11.5030227 C13.006435,11.5030227 13.1853008,11.3243381 13.1853008,11.1035773 L13.1853008,9.70971633 Z" id="Vector" fill="#FFFFFF" fill-rule="nonzero"></path>
                            <path d="M6.217381,13.1940535 C6.217381,12.9732206 6.03855139,12.7947512 5.81789882,12.7947512 L4.42385735,12.7947512 C4.20345715,12.7947512 4.02459192,12.9732206 4.02459192,13.1940535 L4.02459192,14.5876615 C4.02459192,14.808278 4.20345715,14.9869275 4.42385735,14.9869275 L5.81789882,14.9869275 C6.03855139,14.9869275 6.217381,14.808242 6.217381,14.5876615 L6.217381,13.1940535 Z" id="Vector" fill="#FFFFFF" fill-rule="nonzero"></path>
                            <path d="M9.70128632,13.1940535 C9.70128632,12.9732206 9.52242069,12.7947512 9.30220075,12.7947512 L7.90797926,12.7947512 C7.68757904,12.7947512 7.50871325,12.9732206 7.50871325,13.1940535 L7.50871325,14.5876615 C7.50871325,14.808278 7.68757904,14.9869275 7.90797926,14.9869275 L9.30220075,14.9869275 C9.52242069,14.9869275 9.70128632,14.808242 9.70128632,14.5876615 L9.70128632,13.1940535 Z" id="Vector" fill="#FFFFFF" fill-rule="nonzero"></path>
                            <path d="M13.1853008,13.1940535 C13.1853008,12.9732206 13.0064352,12.7947512 12.7862153,12.7947512 L11.3919934,12.7947512 C11.1713408,12.7947512 10.9925117,12.9732206 10.9925117,13.1940535 L10.9925117,14.5876615 C10.9925117,14.808278 11.1713408,14.9869275 11.3919934,14.9869275 L12.7862153,14.9869275 C13.0064352,14.9869275 13.1853008,14.808242 13.1853008,14.5876615 L13.1853008,13.1940535 Z" id="Vector" fill="#FFFFFF" fill-rule="nonzero"></path>
                            <path d="M15.6780087,1.95966077 L15.6780087,4.08866964 C15.6780087,5.05096005 14.8973596,5.82641702 13.9352135,5.82641702 L12.8358092,5.82641702 C11.8735909,5.82641702 11.0825942,5.05096005 11.0825942,4.08866964 L11.0825942,1.95201719 L6.12728669,1.95201719 L6.12728669,4.08866964 C6.12728669,5.05096005 5.33632623,5.82641702 4.37425221,5.82641702 L3.27463085,5.82641702 C2.3125208,5.82641702 1.5319083,5.05096005 1.5319083,4.08866964 L1.5319083,1.95966077 C0.69101292,1.98500698 3.15188881e-05,2.68081982 3.15188881e-05,3.53606489 L3.15188881e-05,16.0130664 C3.15188881e-05,16.8843917 0.706263987,17.5999988 1.57758923,17.5999988 L15.6322916,17.5999988 C16.5023189,17.5999988 17.2098494,16.8829135 17.2098494,16.0130664 L17.2098494,3.53606489 C17.2098494,2.68081982 16.518904,1.98500698 15.6780087,1.95966077 Z M15.1673712,15.2360958 C15.1673712,15.6126474 14.8620625,15.9181355 14.4853668,15.9181355 L2.69448034,15.9181355 C2.31778459,15.9181355 2.01247669,15.6126474 2.01247669,15.2360958 L2.01247669,8.79127379 C2.01247669,8.41457803 2.31774852,8.1090894 2.69448034,8.1090894 L14.4853316,8.1090894 C14.8620273,8.1090894 15.1673349,8.41457803 15.1673349,8.79127379 L15.1673712,15.2360958 Z" id="Vector" fill="#FFFFFF" fill-rule="nonzero"></path>
                            <path d="M3.27082613,4.68502877 L4.35829732,4.68502877 C4.68837482,4.68502877 4.95600605,4.41779364 4.95600605,4.08771613 L4.95600605,0.597475447 C4.95600605,0.267361871 4.68837482,-5.31898477e-05 4.35829732,-5.31898477e-05 L3.27082613,-5.31898477e-05 C2.94071256,-5.31898477e-05 2.6731174,0.267361871 2.6731174,0.597475447 L2.6731174,4.08771613 C2.6731174,4.41779364 2.94071256,4.68502877 3.27082613,4.68502877 Z" id="Vector" fill="#FFFFFF" fill-rule="nonzero"></path>
                            <path d="M12.8217766,4.68502877 L13.9092472,4.68502877 C14.2391084,4.68502877 14.5067406,4.41779364 14.5067406,4.08771613 L14.5067406,0.597475447 C14.5067766,0.267361871 14.2391445,-5.31898477e-05 13.9092472,-5.31898477e-05 L12.8217766,-5.31898477e-05 C12.4917352,-5.31898477e-05 12.2241039,0.267361871 12.2241039,0.597475447 L12.2241039,4.08771613 C12.2241039,4.41779364 12.4917352,4.68502877 12.8217766,4.68502877 Z" id="Vector" fill="#FFFFFF" fill-rule="nonzero"></path>
                        </g>
                    </g>
                </g>
            </g>
        </g>
    </g>
</svg>