<?xml version="1.0" encoding="UTF-8"?>
<svg width="18px" height="18px" viewBox="0 0 18 18" version="1.1" xmlns="http://www.w3.org/2000/svg" xmlns:xlink="http://www.w3.org/1999/xlink">
    <title>Vector</title>
    <g id="---↪️-Desktop" stroke="none" stroke-width="1" fill="none" fill-rule="evenodd">
        <g id="Agent-Dashboard-4.0" transform="translate(-363, -2779)" fill="#696974" fill-rule="nonzero">
            <g id="fi_10387102" transform="translate(362, 2778)">
                <path d="M13.4916665,1.66666627 L6.5083328,1.66666627 C3.47499943,1.66666627 1.66666627,3.47499961 1.66666627,6.50833326 L1.66666627,13.4833341 C1.66666627,16.5250011 3.47499943,18.3333342 6.5083328,18.3333342 L13.483333,18.3333342 C16.5166663,18.3333342 18.3250277,16.5250013 18.3250277,13.4916676 L18.3250277,6.50833326 C18.3333324,3.47499961 16.5249999,1.66666627 13.4916665,1.66666627 Z M15.6249993,8.33333344 C15.6249993,8.67500013 15.341666,8.95833349 14.9999993,8.95833349 C14.6583327,8.95833349 14.3749994,8.67500013 14.3749994,8.33333344 L14.3749994,6.50833326 L6.5083328,14.3750006 L8.33333281,14.3750006 C8.67499947,14.3750006 8.9583328,14.6583339 8.9583328,15.0000006 C8.9583328,15.3416673 8.67499947,15.6250007 8.33333281,15.6250007 L4.99999954,15.6250007 C4.91666621,15.6250007 4.83333291,15.6083344 4.75833291,15.5750011 C4.60833291,15.5083344 4.48333304,15.3916679 4.41666638,15.2333345 C4.39166638,15.1583345 4.37499955,15.083334 4.37499955,15.0000006 L4.37499955,11.6666663 C4.37499955,11.3250003 4.65833288,11.041667 4.99999954,11.041667 C5.3416662,11.041667 5.62499953,11.3250003 5.62499953,11.6666663 L5.62499953,13.4916676 L13.4916665,5.6249999 L11.6666663,5.6249999 C11.3249994,5.6249999 11.0416661,5.34166655 11.0416661,4.99999986 C11.0416661,4.65833317 11.3249994,4.37499981 11.6666663,4.37499981 L14.9999993,4.37499981 C15.0833327,4.37499981 15.1583334,4.39166643 15.2416668,4.42499977 C15.3916668,4.49166644 15.5166666,4.60833299 15.5833333,4.76666633 C15.6083333,4.84166634 15.6249993,4.91666652 15.6249993,4.99999986 L15.6249993,8.33333344 Z" id="Vector"></path>
            </g>
        </g>
    </g>
</svg>