<?xml version="1.0" encoding="UTF-8"?>
<svg width="32px" height="32px" viewBox="0 0 32 32" version="1.1" xmlns="http://www.w3.org/2000/svg" xmlns:xlink="http://www.w3.org/1999/xlink">
    <title>Frame 35</title>
    <defs>
        <rect id="path-1" x="0" y="0" width="17.6000004" height="17.6000004"></rect>
    </defs>
    <g id="---↪️-Desktop" stroke="none" stroke-width="1" fill="none" fill-rule="evenodd">
        <g id="Agent-Dashboard-4.0" transform="translate(-813, -3701)">
            <g id="Frame-35" transform="translate(813, 3701)">
                <rect id="Frame-Background" fill="#F58E44" fill-rule="nonzero" x="0" y="0" width="32" height="32" rx="16"></rect>
                <g id="fi_2874802" transform="translate(7.1999, 7.2001)">
                    <mask id="mask-2" fill="white">
                        <use xlink:href="#path-1"></use>
                    </mask>
                    <g id="Clip" fill-rule="nonzero"></g>
                    <path d="M11.5095959,8.80155945 C11.5095959,10.2980042 10.2964878,11.5111122 8.80004311,11.5111122 C7.30359839,11.5111122 6.09049034,10.2980042 6.09049034,8.80155945 C6.09049034,7.30511474 7.30359839,6.09200668 8.80004311,6.09200668 C10.2964878,6.09200668 11.5095959,7.30511474 11.5095959,8.80155945 Z" id="Vector" fill="#F58E44" fill-rule="nonzero" mask="url(#mask-2)"></path>
                    <path d="M17.3300367,8.05099331 C15.2472715,5.53415785 12.0945377,3.11147928 8.80002656,3.11147928 C5.50487199,3.11147928 2.35139285,5.53585116 0.270016254,8.05099331 C-0.0900155383,8.48587649 -0.0900155383,9.11720246 0.270016254,9.55208563 C0.793298575,10.1844274 1.89032853,11.4050813 3.35551899,12.4716288 C7.04555685,15.157879 10.5463669,15.1638063 14.2445336,12.4716288 C15.7097241,11.4050813 16.8067544,10.1844274 17.3300367,9.55208563 C17.6890186,9.11804921 17.6908814,8.487299 17.3300367,8.05099331 Z M8.80002656,5.00816601 C10.891801,5.00816601 12.5934001,6.70976502 12.5934001,8.80153947 C12.5934001,10.8933139 10.891801,12.5949129 8.80002656,12.5949129 C6.70825209,12.5949129 5.00665254,10.8933139 5.00665254,8.80153947 C5.00665254,6.70976502 6.70825209,5.00816601 8.80002656,5.00816601 Z" id="Vector" fill="#FFFFFF" fill-rule="nonzero" mask="url(#mask-2)"></path>
                </g>
            </g>
        </g>
    </g>
</svg>