<?xml version="1.0" encoding="UTF-8"?>
<svg width="11px" height="16px" viewBox="0 0 11 16" version="1.1" xmlns="http://www.w3.org/2000/svg" xmlns:xlink="http://www.w3.org/1999/xlink">
    <title>Vector</title>
    <g id="---↪️-Desktop" stroke="none" stroke-width="1" fill="none" fill-rule="evenodd">
        <g id="Agent-Dashboard-4.0" transform="translate(-535, -4172)" fill="#FFFFFF">
            <path d="M537.131353,4186.95416 C537.914801,4187.53892 538.845572,4187.89403 539.819426,4187.97973 C540.793281,4188.06542 541.771765,4187.87832 542.645296,4187.43936 C543.518828,4187.00041 544.252911,4186.32694 544.765339,4185.49438 C545.277767,4184.66183 545.548304,4183.70305 545.546659,4182.72543 C545.546659,4182.71703 545.545151,4182.70878 545.545151,4182.70044 C545.324067,4181.10242 544.701993,4180.25914 544.102072,4179.44369 C543.418135,4178.51505 542.772504,4177.63799 542.623625,4175.66792 C542.620936,4175.63191 542.607904,4175.59744 542.586094,4175.56866 C542.564285,4175.53987 542.534626,4175.51801 542.500685,4175.50568 C542.466743,4175.49335 542.429964,4175.49108 542.394766,4175.49916 C542.359569,4175.50723 542.327452,4175.5253 542.302278,4175.55119 C541.477821,4176.39255 540.894423,4177.43986 540.613026,4178.58373 C540.356542,4177.8224 540.166233,4176.8258 540.105963,4175.87194 C540.010137,4174.38487 540.22241,4173.10967 540.699979,4172.28126 C540.720854,4172.24559 540.729288,4172.204 540.723954,4172.16302 C540.718621,4172.12204 540.699824,4172.084 540.670516,4172.05486 C540.641176,4172.0257 540.603069,4172.00699 540.562057,4172.00161 C540.521045,4171.99622 540.479398,4172.00446 540.443526,4172.02505 C538.705626,4173.02862 537.101858,4175.10037 536.04499,4177.70926 C535.030832,4180.20793 534.733074,4182.67441 535.247511,4184.30736 C535.583518,4185.36477 536.242307,4186.29037 537.131353,4186.95416 Z M542.171053,4183.76006 C542.170732,4183.73527 542.175338,4183.71067 542.184602,4183.68767 C542.193866,4183.66468 542.207604,4183.64376 542.225019,4183.62611 C542.242434,4183.60847 542.263178,4183.59447 542.286049,4183.58491 C542.308921,4183.57535 542.333463,4183.57042 542.358252,4183.57042 C542.383041,4183.57042 542.407584,4183.57535 542.430455,4183.58491 C542.453326,4183.59447 542.474072,4183.60847 542.491486,4183.62611 C542.508901,4183.64376 542.522639,4183.66468 542.531903,4183.68767 C542.541167,4183.71067 542.545773,4183.73527 542.545453,4183.76006 L542.545453,4185.29702 L543.575857,4185.29702 C543.625576,4185.29702 543.673257,4185.31677 543.708414,4185.35193 C543.743571,4185.38709 543.763322,4185.43477 543.763322,4185.48449 C543.763322,4185.53421 543.743571,4185.58189 543.708414,4185.61705 C543.673257,4185.6522 543.625576,4185.67196 543.575857,4185.67196 L542.358299,4185.67196 C542.308623,4185.67189 542.261005,4185.65211 542.225903,4185.61696 C542.1908,4185.58181 542.171084,4185.53417 542.171084,4185.48449 L542.171084,4183.76006 L542.171053,4183.76006 Z M541.177484,4184.31386 L541.355858,4184.83564 L540.999236,4184.83564 L541.177579,4184.31386 L541.177484,4184.31386 Z M541.000611,4183.67457 C541.012917,4183.63746 541.03666,4183.6052 541.068437,4183.58242 C541.100213,4183.55965 541.138388,4183.54752 541.177484,4183.54778 C541.216485,4183.54794 541.254472,4183.56023 541.286172,4183.58295 C541.317872,4183.60566 541.341714,4183.63769 541.35439,4183.67457 L541.961684,4185.44872 C541.969892,4185.472 541.973409,4185.49668 541.972031,4185.52133 C541.970652,4185.54599 541.964407,4185.57012 541.953654,4185.59235 C541.942901,4185.61457 541.927853,4185.63445 541.90938,4185.65083 C541.890906,4185.66721 541.869372,4185.67977 541.84602,4185.68779 C541.822667,4185.6958 541.797958,4185.69912 541.773318,4185.69754 C541.748679,4185.69596 541.724597,4185.68951 541.70246,4185.67858 C541.680324,4185.66764 541.660571,4185.65243 541.644342,4185.63382 C541.628114,4185.61522 541.61573,4185.59358 541.607905,4185.57016 L541.484085,4185.21051 L540.870978,4185.21051 L540.747158,4185.57016 C540.734456,4185.60702 540.710611,4185.63902 540.678924,4185.66174 C540.647236,4185.68445 540.609271,4185.69676 540.570284,4185.69695 C540.549704,4185.69708 540.529259,4185.69363 540.509858,4185.68677 C540.462743,4185.67071 540.423894,4185.63666 540.401796,4185.59206 C540.379697,4185.54746 540.376144,4185.49593 540.391911,4185.44872 L541.000705,4183.67457 L541.000611,4183.67457 Z M538.575806,4183.73897 C538.575806,4183.68929 538.595522,4183.64165 538.630625,4183.6065 C538.665727,4183.57135 538.713346,4183.55157 538.763022,4183.5515 L540.013011,4183.5515 C540.06273,4183.5515 540.110413,4183.57125 540.145569,4183.60641 C540.180726,4183.64157 540.200477,4183.68925 540.200477,4183.73897 C540.200477,4183.78869 540.180726,4183.83637 540.145569,4183.87152 C540.110413,4183.90668 540.06273,4183.92643 540.013011,4183.92643 L538.9503,4183.92643 L538.9503,4184.43484 L540.013105,4184.43484 C540.062824,4184.43484 540.110506,4184.45459 540.145663,4184.48975 C540.180819,4184.5249 540.200571,4184.57259 540.200571,4184.6223 C540.200571,4184.67202 540.180819,4184.71971 540.145663,4184.75486 C540.110506,4184.79002 540.062824,4184.80977 540.013105,4184.80977 L538.9503,4184.80977 L538.9503,4185.31824 L540.013105,4185.31824 C540.062824,4185.31824 540.110506,4185.33799 540.145663,4185.37315 C540.180819,4185.4083 540.200571,4185.45599 540.200571,4185.50571 C540.200571,4185.55542 540.180819,4185.60311 540.145663,4185.63826 C540.110506,4185.67342 540.062824,4185.69317 540.013105,4185.69317 L538.763115,4185.69317 C538.71344,4185.6931 538.665821,4185.67332 538.630719,4185.63817 C538.595616,4185.60303 538.5759,4185.55538 538.5759,4185.50571 L538.5759,4183.73897 L538.575806,4183.73897 Z M538.41218,4184.36145 L538.41218,4184.88323 C538.411825,4185.0989 538.325982,4185.30564 538.173463,4185.45813 C538.020945,4185.61063 537.814193,4185.69644 537.598517,4185.69676 L536.972069,4185.69676 C536.922394,4185.6967 536.874775,4185.67692 536.839673,4185.64177 C536.80457,4185.60662 536.784854,4185.55897 536.784854,4185.5093 L536.784854,4183.7354 C536.784854,4183.68573 536.80457,4183.63808 536.839673,4183.60294 C536.874775,4183.56779 536.922394,4183.54801 536.972069,4183.54794 L537.598517,4183.54794 C537.814212,4183.54827 538.020978,4183.6341 538.173498,4183.78662 C538.326018,4183.93914 538.41185,4184.14591 538.41218,4184.3616 L538.41218,4184.36145 Z M537.598517,4183.92265 C537.714887,4183.92281 537.826454,4183.96907 537.908784,4184.05132 C537.991114,4184.13356 538.037499,4184.24508 538.03778,4184.36145 L538.03778,4184.88323 C538.037491,4184.99958 537.991101,4185.11109 537.908769,4185.19331 C537.826438,4185.27554 537.714876,4185.32179 537.598517,4185.32193 L537.159347,4185.32193 L537.159347,4183.92265 L537.598517,4183.92265 Z M539.280396,4182.80664 C539.280716,4182.83142 539.27611,4182.85603 539.266846,4182.87902 C539.257582,4182.90201 539.243844,4182.92294 539.22643,4182.94058 C539.209015,4182.95822 539.18827,4182.97223 539.165398,4182.98179 C539.142527,4182.99135 539.117985,4182.99627 539.093196,4182.99627 C539.068407,4182.99627 539.043864,4182.99135 539.020993,4182.98179 C538.998122,4182.97223 538.977376,4182.95822 538.959962,4182.94058 C538.942547,4182.92294 538.928809,4182.90201 538.919545,4182.87902 C538.910281,4182.85603 538.905675,4182.83142 538.905995,4182.80664 L538.905995,4182.13176 L538.062931,4182.13176 L538.062931,4182.80664 C538.063252,4182.83142 538.058646,4182.85603 538.049382,4182.87902 C538.040118,4182.90201 538.02638,4182.92294 538.008965,4182.94058 C537.99155,4182.95822 537.970806,4182.97223 537.947934,4182.98179 C537.925063,4182.99135 537.90052,4182.99627 537.875731,4182.99627 C537.850942,4182.99627 537.8264,4182.99135 537.803529,4182.98179 C537.780658,4182.97223 537.759912,4182.95822 537.742498,4182.94058 C537.725083,4182.92294 537.711345,4182.90201 537.702081,4182.87902 C537.692817,4182.85603 537.688211,4182.83142 537.688531,4182.80664 L537.688531,4181.08217 C537.688211,4181.05739 537.692817,4181.03278 537.702081,4181.00979 C537.711345,4180.9868 537.725083,4180.96587 537.742498,4180.94823 C537.759912,4180.93059 537.780658,4180.91658 537.803529,4180.90702 C537.8264,4180.89746 537.850942,4180.89254 537.875731,4180.89254 C537.90052,4180.89254 537.925063,4180.89746 537.947934,4180.90702 C537.970806,4180.91658 537.99155,4180.93059 538.008965,4180.94823 C538.02638,4180.96587 538.040118,4180.9868 538.049382,4181.00979 C538.058646,4181.03278 538.063252,4181.05739 538.062931,4181.08217 L538.062931,4181.75705 L538.906089,4181.75705 L538.906089,4181.08217 C538.905769,4181.05739 538.910375,4181.03278 538.919639,4181.00979 C538.928903,4180.9868 538.942641,4180.96587 538.960055,4180.94823 C538.97747,4180.93059 538.998216,4180.91658 539.021087,4180.90702 C539.043958,4180.89746 539.068501,4180.89254 539.09329,4180.89254 C539.118079,4180.89254 539.142621,4180.89746 539.165492,4180.90702 C539.188363,4180.91658 539.209108,4180.93059 539.226523,4180.94823 C539.243938,4180.96587 539.257676,4180.9868 539.26694,4181.00979 C539.276204,4181.03278 539.28081,4181.05739 539.28049,4181.08217 L539.28049,4182.80664 L539.280396,4182.80664 Z M540.347606,4183.01891 C540.131829,4183.01883 539.924914,4182.93307 539.77234,4182.78049 C539.619765,4182.62791 539.534018,4182.42099 539.533943,4182.20522 L539.533943,4181.68344 C539.533279,4181.57626 539.553815,4181.47 539.594371,4181.37079 C539.634926,4181.27158 539.694701,4181.18137 539.770254,4181.10534 C539.845807,4181.02932 539.935649,4180.96899 540.034608,4180.92782 C540.133567,4180.88665 540.23969,4180.86545 540.346871,4180.86545 C540.454053,4180.86545 540.560176,4180.88665 540.659136,4180.92782 C540.758095,4180.96899 540.847936,4181.02932 540.923489,4181.10534 C540.999043,4181.18137 541.058817,4181.27158 541.099373,4181.37079 C541.139929,4181.47 541.160465,4181.57626 541.159801,4181.68344 L541.159801,4182.20522 C541.159809,4182.42079 541.074268,4182.62756 540.921959,4182.78012 C540.76965,4182.93268 540.563025,4183.01856 540.34745,4183.01891 L540.347606,4183.01891 Z M540.785401,4182.20522 C540.785889,4182.26312 540.774908,4182.32054 540.753089,4182.37417 C540.73127,4182.42781 540.699045,4182.47659 540.658275,4182.5177 C540.617506,4182.55882 540.568998,4182.59145 540.51555,4182.61373 C540.462102,4182.636 540.404773,4182.64746 540.346871,4182.64746 C540.288969,4182.64746 540.231641,4182.636 540.178193,4182.61373 C540.124746,4182.59145 540.076238,4182.55882 540.035468,4182.5177 C539.994698,4182.47659 539.962474,4182.42781 539.940655,4182.37417 C539.918836,4182.32054 539.907854,4182.26312 539.908343,4182.20522 L539.908343,4181.68344 C539.907854,4181.62554 539.918836,4181.56811 539.940655,4181.51448 C539.962474,4181.46085 539.994698,4181.41207 540.035468,4181.37095 C540.076238,4181.32983 540.124746,4181.2972 540.178193,4181.27493 C540.231641,4181.25266 540.288969,4181.24119 540.346871,4181.24119 C540.404773,4181.24119 540.462102,4181.25266 540.51555,4181.27493 C540.568998,4181.2972 540.617506,4181.32983 540.658275,4181.37095 C540.699045,4181.41207 540.73127,4181.46085 540.753089,4181.51448 C540.774908,4181.56811 540.785889,4181.62554 540.785401,4181.68344 L540.785401,4182.20522 Z M541.876169,4181.26967 L541.454715,4181.26967 C541.404996,4181.26967 541.357314,4181.24992 541.322157,4181.21476 C541.287,4181.17961 541.26725,4181.13192 541.26725,4181.0822 C541.26725,4181.03249 541.287,4180.9848 541.322157,4180.94965 C541.357314,4180.91449 541.404996,4180.89474 541.454715,4180.89474 L542.672273,4180.89474 C542.721992,4180.89474 542.769674,4180.91449 542.804831,4180.94965 C542.839988,4180.9848 542.859738,4181.03249 542.859738,4181.0822 C542.859738,4181.13192 542.839988,4181.17961 542.804831,4181.21476 C542.769674,4181.24992 542.721992,4181.26967 542.672273,4181.26967 L542.250694,4181.26967 L542.250694,4182.80664 C542.250694,4182.83122 542.245851,4182.85557 542.236443,4182.87828 C542.227034,4182.901 542.213244,4182.92163 542.19586,4182.93902 C542.178475,4182.9564 542.157837,4182.97019 542.135123,4182.9796 C542.112409,4182.98901 542.088064,4182.99385 542.063479,4182.99385 C542.038893,4182.99385 542.014548,4182.98901 541.991834,4182.9796 C541.96912,4182.97019 541.948481,4182.9564 541.931097,4182.93902 C541.913712,4182.92163 541.899922,4182.901 541.890514,4182.87828 C541.881106,4182.85557 541.876263,4182.83122 541.876263,4182.80664 L541.876169,4181.26967 Z" id="Vector"></path>
        </g>
    </g>
</svg>