<?xml version="1.0" encoding="UTF-8"?>
<svg width="29px" height="29px" viewBox="0 0 29 29" version="1.1" xmlns="http://www.w3.org/2000/svg" xmlns:xlink="http://www.w3.org/1999/xlink">
    <title>Group</title>
    <g id="---↪️-Desktop" stroke="none" stroke-width="1" fill="none" fill-rule="evenodd">
        <g id="Tips-Popup" transform="translate(-44, -87)" fill="#215ED3" fill-rule="nonzero">
            <g id="Frame-511" transform="translate(20, 64)">
                <g id="Frame-510" transform="translate(12, 12)">
                    <g id="fi_9261198" transform="translate(10, 10)">
                        <g id="Group" transform="translate(2.6667, 1.3333)">
                            <path d="M25.2933227,0 L21.3733243,0 C20.2133242,0 19.3599893,0.480000052 18.9733226,1.33333342 C18.7599892,1.72000011 18.6666565,2.17333344 18.6666565,2.70666681 L18.6666565,6.62666684 C18.6666565,8.32000026 19.6799908,9.33333397 21.3733243,9.33333397 L25.2933227,9.33333397 C25.8266561,9.33333397 26.2799904,9.2400006 26.6666565,9.02666726 C27.5199904,8.64000057 27.9999905,7.78666692 27.9999905,6.62666684 L27.9999905,2.70666681 C27.9999905,1.01333339 26.9866561,0 25.2933227,0 Z M26.5466568,5.24000013 C26.4133235,5.37333347 26.2133237,5.46666722 25.9999903,5.48000055 L24.1199904,5.48000055 L24.1199904,6.16000027 L24.133324,7.33333383 C24.1199907,7.56000052 24.03999,7.74666697 23.87999,7.90666698 C23.7466566,8.04000032 23.5466568,8.13333376 23.3333235,8.13333376 C22.8933234,8.13333376 22.5333229,7.77333388 22.5333229,7.33333383 L22.5333229,5.46666691 L20.6666565,5.48000055 C20.2266566,5.48000055 19.8666561,5.10666703 19.8666561,4.66666698 C19.8666561,4.22666694 20.2266566,3.86666706 20.6666565,3.86666706 L21.8399889,3.88000038 L22.5333229,3.88000038 L22.5333229,2.01333346 C22.5333229,1.57333341 22.8933234,1.20000005 23.3333235,1.20000005 C23.7733235,1.20000005 24.133324,1.57333341 24.133324,2.01333346 L24.1199904,2.96000024 L24.1199904,3.86666706 L25.9999903,3.86666706 C26.4399904,3.86666706 26.7999909,4.22666694 26.7999909,4.66666698 C26.7866576,4.89333367 26.6933235,5.08000012 26.5466568,5.24000013 Z" id="Vector"></path>
                            <path d="M9.33348989,12.506671 C11.0861299,12.506671 12.5067968,11.0859107 12.5067968,9.33333731 C12.5067968,7.58075054 11.0861299,6.16000366 9.33348989,6.16000366 C7.58090312,6.16000366 6.16015625,7.58075054 6.16015625,9.33333731 C6.16015625,11.0859107 7.58090312,12.506671 9.33348989,12.506671 Z" id="Vector"></path>
                            <path d="M25.2933336,9.33332825 L24.6666678,9.33332825 L24.6666678,15.4799951 L24.4933356,15.3333282 C23.4533356,14.4399955 21.7733333,14.4399955 20.7333333,15.3333282 L15.1866678,20.0933287 C14.1466678,20.9866621 12.4666668,20.9866621 11.4266668,20.0933287 L10.9733332,19.7199957 C10.0266666,18.893329 8.52000063,18.8133285 7.45333389,19.5333286 L2.46666666,22.8799957 C2.17333331,22.133329 2,21.2666632 2,20.2533299 L2,9.07999521 C2,5.31999512 3.98666687,3.33332825 7.74666696,3.33332825 L18.6666676,3.33332825 L18.6666676,2.70666161 C18.6666676,2.17332824 18.7600003,1.71999492 18.9733336,1.33332825 L7.74666696,1.33332825 C2.89333326,1.33332825 0,4.2266615 0,9.07999521 L0,20.2533299 C0,21.7066633 0.253333263,22.9733302 0.746666626,24.0399969 C1.89333337,26.5733303 4.34666686,27.9999962 7.74666696,27.9999962 L18.9200016,27.9999962 C23.7733353,27.9999962 26.6666679,25.1066636 26.6666679,20.2533299 L26.6666679,9.02666192 C26.2800013,9.23999526 25.826667,9.33332825 25.2933336,9.33332825 Z" id="Vector"></path>
                        </g>
                    </g>
                </g>
            </g>
        </g>
    </g>
</svg>