<?xml version="1.0" encoding="UTF-8"?>
<svg width="14px" height="14px" viewBox="0 0 14 14" version="1.1" xmlns="http://www.w3.org/2000/svg" xmlns:xlink="http://www.w3.org/1999/xlink">
    <title>Subtract</title>
    <g id="---↪️-Desktop" stroke="none" stroke-width="1" fill="none" fill-rule="evenodd">
        <g id="Agent-Dashboard-4.0" transform="translate(-371, -2313)" fill="#ACB7BE">
            <path d="M384.666667,2320 C384.666667,2323.6819 381.681899,2326.66667 378,2326.66667 C374.318102,2326.66667 371.333333,2323.6819 371.333333,2320 C371.333333,2316.3181 374.318102,2313.33333 378,2313.33333 C381.681899,2313.33333 384.666667,2316.3181 384.666667,2320 Z M378,2319.33333 C378.368191,2319.33333 378.666667,2319.63181 378.666667,2320 L378.666667,2323.33392 C378.666667,2323.70211 378.368191,2324.00059 378,2324.00059 C377.63181,2324.00059 377.333333,2323.70211 377.333333,2323.33392 L377.333333,2320 C377.333333,2319.63181 377.63181,2319.33333 378,2319.33333 Z M378,2318 C378.368191,2318 378.666667,2317.70152 378.666667,2317.33333 C378.666667,2316.96514 378.368191,2316.66667 378,2316.66667 C377.63181,2316.66667 377.333333,2316.96514 377.333333,2317.33333 C377.333333,2317.70152 377.63181,2318 378,2318 Z" id="Subtract"></path>
        </g>
    </g>
</svg>