<?xml version="1.0" encoding="UTF-8"?>
<svg width="20px" height="20px" viewBox="0 0 20 20" version="1.1" xmlns="http://www.w3.org/2000/svg" xmlns:xlink="http://www.w3.org/1999/xlink">
    <title>fi_2220768</title>
    <defs>
        <rect id="path-1" x="0" y="0" width="20" height="20"></rect>
    </defs>
    <g id="---↪️-Desktop" stroke="none" stroke-width="1" fill="none" fill-rule="evenodd">
        <g id="Agent-Dashboard-4.0" transform="translate(-661, -2374)">
            <g id="fi_2220768" transform="translate(661, 2374)">
                <mask id="mask-2" fill="white">
                    <use xlink:href="#path-1"></use>
                </mask>
                <g id="Clip" fill-rule="nonzero"></g>
                <path d="M18.6959383,10.3933597 C18.6027743,10.1797269 18.3918758,10.041641 18.1588289,10.041641 L15.6067582,10.041641 L15.6067582,1.84117183 C15.6067582,0.825976506 14.7808599,0 13.7656254,0 L6.23437551,0 C5.21918013,0 4.39324247,0.825976506 4.39324247,1.84117183 L4.39324247,10.0416791 L1.8411719,10.0416791 C1.60812501,10.0416791 1.39722655,10.1797662 1.30406248,10.393399 C1.21089841,10.6070318 1.25320308,10.8555464 1.41179684,11.0263276 L9.57062528,19.8128128 C9.68152372,19.9321878 9.83707078,20 10.0000005,20 C10.1629302,20 10.3184772,19.9321875 10.4293757,19.8127735 L18.5882041,11.0262895 C18.7467979,10.8555082 18.7891024,10.6069925 18.6959383,10.3933597 Z M10.627579,10.5859375 L10.585938,10.5859375 L10.585938,11.2552345 C10.585938,11.5788282 10.3235943,11.841172 10.0000005,11.841172 C9.67640669,11.841172 9.41406294,11.5788282 9.41406294,11.2552345 L9.41406294,10.5859375 L8.74476593,10.5859375 C8.42117215,10.5859375 8.1588284,10.3235938 8.1588284,10 C8.1588284,9.67640623 8.42117215,9.4140625 8.74476593,9.4140625 L10.627579,9.4140625 C11.0027353,9.4140625 11.296876,9.10808582 11.296876,8.74476552 C11.296876,8.38265613 11.004454,8.07550788 10.627579,8.07550788 L9.3723832,8.07550788 C8.34156284,8.07550788 7.53121112,7.23621093 7.53121112,6.2343359 C7.53121112,5.2154687 8.35558625,4.39320326 9.3723832,4.39320326 L9.41406294,4.39320326 L9.41406294,3.72394532 C9.41406294,3.40035155 9.67640669,3.13800782 10.0000005,3.13800782 C10.3235943,3.13800782 10.585938,3.40035155 10.585938,3.72394532 L10.585938,4.3932423 L11.255235,4.3932423 C11.5788288,4.3932423 11.8411726,4.65558603 11.8411726,4.9791798 C11.8411726,5.30277357 11.5788288,5.565117 11.255235,5.565117 L9.37242254,5.565117 C9.00214908,5.565117 8.70312553,5.86453147 8.70312553,6.23437524 C8.70312553,6.59843773 8.99800846,6.90367162 9.37242254,6.90367162 L10.6276172,6.90367162 C11.6464844,6.90367162 12.4687892,7.72785172 12.4687892,8.74480486 C12.4687502,9.74429704 11.6606259,10.5859375 10.627579,10.5859375 Z" id="Vector" fill="#FFFFFF" fill-rule="nonzero" mask="url(#mask-2)"></path>
            </g>
        </g>
    </g>
</svg>