<svg width="12" height="13" viewBox="0 0 12 13" fill="none" xmlns="http://www.w3.org/2000/svg">
<g clip-path="url(#clip0_385_5939)">
<path d="M5.70822 3.58331C6.19147 3.58331 6.58322 3.19156 6.58322 2.70831C6.58322 2.22506 6.19147 1.83331 5.70822 1.83331C5.22497 1.83331 4.83322 2.22506 4.83322 2.70831C4.83322 3.19156 5.22497 3.58331 5.70822 3.58331Z" fill="white"/>
<path d="M10.2082 5.08331C10.6915 5.08331 11.0832 4.69156 11.0832 4.20831C11.0832 3.72506 10.6915 3.33331 10.2082 3.33331C9.72497 3.33331 9.33322 3.72506 9.33322 4.20831C9.33322 4.69156 9.72497 5.08331 10.2082 5.08331Z" fill="white"/>
<path d="M1.20822 5.08331C1.69147 5.08331 2.08322 4.69156 2.08322 4.20831C2.08322 3.72506 1.69147 3.33331 1.20822 3.33331C0.724972 3.33331 0.333221 3.72506 0.333221 4.20831C0.333221 4.69156 0.724972 5.08331 1.20822 5.08331Z" fill="white"/>
<path fill-rule="evenodd" clip-rule="evenodd" d="M10.3257 4.78181C10.3577 4.62281 10.2837 4.46181 10.1432 4.38181C10.0022 4.30231 9.82573 4.32181 9.70573 4.43081C9.70573 4.43081 9.18273 4.90631 8.59273 5.44281C8.31673 5.69381 7.93423 5.79131 7.57173 5.70381C7.20923 5.61631 6.91373 5.35481 6.78273 5.00531L6.05923 3.07681C6.00423 2.93031 5.86473 2.83331 5.70823 2.83331C5.55173 2.83331 5.41223 2.93031 5.35723 3.07681L4.63373 5.00531C4.50273 5.35481 4.20723 5.61631 3.84473 5.70381C3.48223 5.79131 3.09973 5.69381 2.82373 5.44281C2.23373 4.90631 1.71073 4.43081 1.71073 4.43081C1.59073 4.32181 1.41423 4.30231 1.27323 4.38181C1.13273 4.46181 1.05873 4.62281 1.09073 4.78181C1.09073 4.78181 1.64723 7.56431 1.92973 8.97781C2.05823 9.62081 2.62273 10.0833 3.27823 10.0833H8.13823C8.79373 10.0833 9.35823 9.62081 9.48673 8.97781C9.76923 7.56431 10.3257 4.78181 10.3257 4.78181Z" fill="white"/>
<path fill-rule="evenodd" clip-rule="evenodd" d="M8.70822 10.8333H2.70822C2.50122 10.8333 2.33322 11.0013 2.33322 11.2083C2.33322 11.4153 2.50122 11.5833 2.70822 11.5833H8.70822C8.91522 11.5833 9.08322 11.4153 9.08322 11.2083C9.08322 11.0013 8.91522 10.8333 8.70822 10.8333Z" fill="white"/>
</g>
<defs>
<clipPath id="clip0_385_5939">
<rect width="12" height="12" fill="white" transform="translate(-6.10352e-05 0.5)"/>
</clipPath>
</defs>
</svg>
