<?xml version="1.0" encoding="UTF-8"?>
<svg width="24px" height="24px" viewBox="0 0 24 24" version="1.1" xmlns="http://www.w3.org/2000/svg" xmlns:xlink="http://www.w3.org/1999/xlink">
    <title>fi_497789</title>
    <defs>
        <rect id="path-1" x="0" y="0" width="24" height="24"></rect>
    </defs>
    <g id="---↪️-Desktop" stroke="none" stroke-width="1" fill="none" fill-rule="evenodd">
        <g id="Agent-Dashboard-4.0" transform="translate(-1089, -1366)">
            <g id="Frame-17-Copy" transform="translate(1081, 1358)">
                <g id="fi_497789" transform="translate(8, 8)">
                    <mask id="mask-2" fill="white">
                        <use xlink:href="#path-1"></use>
                    </mask>
                    <g id="Clip" fill-rule="nonzero"></g>
                    <path d="M18.375,12.75 C21.4816407,12.75 24,15.2683593 24,18.375 C24,21.4816407 21.4816407,24 18.375,24 C15.2683593,24 12.75,21.4816407 12.75,18.375 C12.75,15.2683593 15.2683593,12.75 18.375,12.75 Z M18.375,15.5625 C17.9863594,15.5625 17.671875,15.8769844 17.671875,16.265625 L17.671875,18.375 C17.671875,18.7636406 17.9863594,19.078125 18.375,19.078125 L20.484375,19.078125 C20.8730156,19.078125 21.1875,18.7636406 21.1875,18.375 C21.1875,17.9863594 20.8730156,17.671875 20.484375,17.671875 L19.078125,17.671875 L19.078125,16.265625 C19.078125,15.8769844 18.7636406,15.5625 18.375,15.5625 Z M9.140625,0 C9.90487504,0 10.6100623,0.420234337 10.9808435,1.09659371 L16.7231712,11.4375472 C14.0469369,12.0475316 11.942203,14.1768281 11.3921249,16.875 L2.109375,16.875 C0.946218789,16.875 0,15.9287812 0,14.765625 C0,14.4058125 0.0927187577,14.0617967 0.275343753,13.741828 L7.30246854,1.09312499 C7.6711873,0.420234382 8.37637496,0 9.140625,0 Z M9.140625,11.25 C8.75231248,11.25 8.4375,11.5648125 8.4375,11.953125 C8.4375,12.3414375 8.75231248,12.65625 9.140625,12.65625 C9.52893752,12.65625 9.84375,12.3414375 9.84375,11.953125 C9.84375,11.5648125 9.52893752,11.25 9.140625,11.25 Z M9.140625,5.625 C8.75198436,5.625 8.4375,5.93948436 8.4375,6.328125 L8.4375,9.140625 C8.4375,9.52926564 8.75198436,9.84375 9.140625,9.84375 C9.52926564,9.84375 9.84375,9.52926564 9.84375,9.140625 L9.84375,6.328125 C9.84375,5.93948436 9.52926564,5.625 9.140625,5.625 Z" id="Union" fill="#ECBE7A" fill-rule="nonzero" mask="url(#mask-2)"></path>
                </g>
            </g>
        </g>
    </g>
</svg>