<?xml version="1.0" encoding="UTF-8"?>
<svg width="24px" height="24px" viewBox="0 0 24 24" version="1.1" xmlns="http://www.w3.org/2000/svg" xmlns:xlink="http://www.w3.org/1999/xlink">
    <title>fi_497789 copy</title>
    <defs>
        <rect id="path-1" x="0" y="0" width="24" height="24"></rect>
        <rect id="path-3" x="0" y="0" width="24" height="24"></rect>
    </defs>
    <g id="---↪️-Desktop" stroke="none" stroke-width="1" fill="none" fill-rule="evenodd">
        <g id="Agent-Dashboard-4.0" transform="translate(-1339, -735)">
            <g id="fi_497789-copy" transform="translate(1339, 735)">
                <mask id="mask-2" fill="white">
                    <use xlink:href="#path-1"></use>
                </mask>
                <g id="Clip" fill-rule="nonzero"></g>
                <g id="fi_15772480" mask="url(#mask-2)">
                    <mask id="mask-4" fill="white">
                        <use xlink:href="#path-3"></use>
                    </mask>
                    <g id="Clip" fill-rule="nonzero"></g>
                    <g id="Group" mask="url(#mask-4)" fill="#568BDE">
                        <g transform="translate(0.75, 2.25)" id="Vector">
                            <path d="M0,3 C0,1.34314495 1.34314495,0 3,0 L17.25,0 C18.9068626,0 20.25,1.34314495 20.25,3 L20.25,8.02803755 C19.7825625,7.75762506 19.27965,7.54166277 18.75,7.38881278 L18.75,5.25 L1.5,5.25 L1.5,11.625 C1.5,12.4534125 2.17157248,13.125 3,13.125 L10.1662123,13.125 C10.1389873,13.3712625 10.125,13.6215 10.125,13.875 C10.125,14.1285 10.1389873,14.3787375 10.1662123,14.625 L3,14.625 C1.34314495,14.625 0,13.2818626 0,11.625 L0,3 Z" fill-rule="nonzero"></path>
                            <path d="M3.75,10.125 C3.33577502,10.125 3,10.460775 3,10.875 C3,11.289225 3.33577502,11.625 3.75,11.625 L6,11.625 C6.41422498,11.625 6.75,11.289225 6.75,10.875 C6.75,10.460775 6.41422498,10.125 6,10.125 L3.75,10.125 Z" fill-rule="nonzero"></path>
                            <path d="M22.5,13.875 C22.5,10.7683876 19.9816124,8.25 16.875,8.25 C13.7683876,8.25 11.25,10.7683876 11.25,13.875 C11.25,16.9816124 13.7683876,19.5 16.875,19.5 C19.9816124,19.5 22.5,16.9816124 22.5,13.875 Z M17.625,11.25 C17.625,10.835775 17.289225,10.5 16.875,10.5 C16.460775,10.5 16.125,10.835775 16.125,11.25 L16.125,13.875 C16.125,14.289225 16.460775,14.625 16.875,14.625 L19.125,14.625 C19.539225,14.625 19.875,14.289225 19.875,13.875 C19.875,13.460775 19.539225,13.125 19.125,13.125 L17.625,13.125 L17.625,11.25 Z" fill-rule="evenodd"></path>
                        </g>
                    </g>
                </g>
            </g>
        </g>
    </g>
</svg>