<svg width="24" height="24" viewBox="0 0 24 24" fill="none" xmlns="http://www.w3.org/2000/svg">
<g clip-path="url(#clip0_385_5935)">
<path d="M12 22C17.5228 22 22 17.5228 22 12C22 6.47715 17.5228 2 12 2C6.47715 2 2 6.47715 2 12C2 17.5228 6.47715 22 12 22Z" fill="#009432"/>
<path d="M16.1488 6.90941L17.0914 7.85199C17.333 8.09365 17.4687 8.42134 17.4688 8.76304C17.4688 9.10474 17.3332 9.43249 17.0918 9.67426L16.0234 10.7426L13.2582 7.9766L14.3265 6.90941C14.5683 6.66789 14.896 6.53223 15.2377 6.53223C15.5794 6.53223 15.9071 6.66789 16.1488 6.90941Z" fill="white"/>
<path d="M15.4824 11.2789C15.4824 11.2789 12.1992 14.5582 10.6571 16.1098C10.3655 16.4123 9.99967 16.6331 9.59612 16.75C9.48949 16.7805 9.38282 16.811 9.27614 16.8415C8.59775 17.0355 7.91887 17.2295 7.24378 17.4321C7.03284 17.4953 6.85003 17.4899 6.68753 17.3336C6.51526 17.1696 6.50198 16.9758 6.56761 16.7559C6.65282 16.47 6.73505 16.1832 6.81726 15.8963C6.97096 15.3601 7.12462 14.8241 7.29768 14.2949C7.38831 14.0184 7.54104 13.7324 7.74261 13.527C9.36135 11.8746 12.7207 8.51526 12.7207 8.51526L15.4824 11.2789Z" fill="white"/>
<circle cx="12" cy="12" r="11" stroke="white" stroke-width="2"/>
</g>
<defs>
<clipPath id="clip0_385_5935">
<rect width="24" height="24" fill="white"/>
</clipPath>
</defs>
</svg>
