
<svg width="52px" height="52px" viewBox="0 0 52 52" version="1.1" xmlns="http://www.w3.org/2000/svg" xmlns:xlink="http://www.w3.org/1999/xlink">
    <defs>
        <rect id="path-cot_g6ndph-1" x="0" y="0" width="52" height="52" rx="26"></rect>
        <rect id="path-cot_g6ndph-3" x="0" y="0" width="26" height="26"></rect>
    </defs>
    <g id="---↪️-Desktop" stroke="none" stroke-width="1" fill="none" fill-rule="evenodd">
        <g id="Agent-Dashboard-4.0" transform="translate(-319, -1283)">
            <g id="Icon/48-place-holder" transform="translate(319, 1283)">
                <mask id="mask-cot_g6ndph-2" fill="white">
                    <use xlink:href="#path-cot_g6ndph-1"></use>
                </mask>
                <g id="Clip" fill-rule="nonzero"></g>
                <rect id="Frame-Background" fill-opacity="0.610000014" fill="#FFFFFF" fill-rule="nonzero" mask="url(#mask-cot_g6ndph-2)" x="0" y="0" width="52" height="52" rx="26"></rect>
                <g id="fi_10332393" mask="url(#mask-cot_g6ndph-2)">
                    <g transform="translate(12.9997, 13)">
                        <mask id="mask-cot_g6ndph-4" fill="white">
                            <use xlink:href="#path-cot_g6ndph-3"></use>
                        </mask>
                        <g id="Clip" stroke="none" fill="none" fill-rule="nonzero"></g>
                        <path d="M13.8127089,18.4128761 C13.8127089,18.8616075 13.4489402,19.2253761 13.0002089,19.2253761 C12.5514775,19.2253761 12.1877089,18.8616075 12.1877089,18.4128761 C12.1877089,17.9641447 12.5514775,17.6003761 13.0002089,17.6003761 C13.4489402,17.6003761 13.8127089,17.9641447 13.8127089,18.4128761 Z" id="Vector" stroke="none" fill="#16A05F" fill-rule="nonzero" mask="url(#mask-cot_g6ndph-4)"></path>
                        <path d="M18.3778996,25.1874886 L7.62283754,25.1874886 L10.0611504,20.3124886 L15.9379619,20.3124886 L18.3778996,25.1874886 Z M10.2520876,23.5624886 L15.7470255,23.5624886 L14.9337119,21.9374886 L11.0654004,21.9374886 L10.2520876,23.5624886 Z" id="Vector" stroke="none" fill="#16A05F" fill-rule="nonzero" mask="url(#mask-cot_g6ndph-4)"></path>
                        <path d="M5.68770933,23.5624886 L20.3127093,23.5624886 C20.7614407,23.5624886 21.1252093,23.9262572 21.1252093,24.3749886 C21.1252093,24.8237199 20.7614407,25.1874886 20.3127093,25.1874886 L5.68770933,25.1874886 C5.23897795,25.1874886 4.87520933,24.8237199 4.87520933,24.3749886 C4.87520933,23.9262572 5.23897795,23.5624886 5.68770933,23.5624886 Z" id="Vector" stroke="none" fill="#16A05F" fill-rule="nonzero" mask="url(#mask-cot_g6ndph-4)"></path>
                        <path d="M21.1252093,21.9374884 L4.87520927,21.9374884 C2.6351468,21.9374884 0.812709272,20.1150509 0.812709272,17.8749884 L0.812709272,4.87498838 C0.812709272,2.6349259 2.6351468,0.812488377 4.87520927,0.812488377 L21.1252093,0.812488377 C23.3652717,0.812488377 25.1877093,2.6349259 25.1877093,4.87498838 L25.1877093,17.8749884 C25.1877093,20.1150509 23.3652717,21.9374884 21.1252093,21.9374884 Z M4.87520927,2.43748838 C3.53133424,2.43748838 2.43770927,3.53111334 2.43770927,4.87498838 L2.43770927,17.8749884 C2.43770927,19.2188634 3.53133424,20.3124884 4.87520927,20.3124884 L21.1252093,20.3124884 C22.4690843,20.3124884 23.5627093,19.2188634 23.5627093,17.8749884 L23.5627093,4.87498838 C23.5627093,3.53111334 22.4690843,2.43748838 21.1252093,2.43748838 L4.87520927,2.43748838 Z" id="Vector" stroke="none" fill="#16A05F" fill-rule="nonzero" mask="url(#mask-cot_g6ndph-4)"></path>
                        <path d="M15.8946672,4.99280716 L18.8830422,4.68730728 C19.4647923,4.62799479 19.984793,5.05130724 20.0441055,5.63305713 L20.3496051,8.62143139 C20.3951051,9.06749382 20.0701054,9.46643098 19.6240428,9.51193097 C19.1779803,9.55743097 18.7790422,9.23243134 18.7335422,8.78636891 L18.4857294,6.36105681 L16.0604176,6.60886912 C15.6143551,6.65436911 15.215417,6.32936958 15.169917,5.88330715 C15.124417,5.43724473 15.4486047,5.03830715 15.8946672,4.99280716 Z" id="Vector" stroke="none" fill="#16A05F" fill-rule="nonzero" mask="url(#mask-cot_g6ndph-4)"></path>
                        <path d="M5.92246822,12.6571241 C5.58528069,12.3605616 5.55278053,11.8470618 5.84934308,11.5098743 L9.12371856,7.78781138 C9.56246864,7.28893634 10.1954058,6.99562391 10.8608434,6.98506141 L10.9006565,6.98506141 C11.5514691,6.98506141 12.1779068,7.25562378 12.6247819,7.73012379 L13.8354069,9.01793638 C13.9775944,9.16906139 14.1685316,9.25193647 14.3749066,9.25193647 L14.37897,9.25193647 C14.5877825,9.25112397 14.7803444,9.1658114 14.9217194,9.0122489 L18.3049695,5.32756138 L19.5017834,6.42687367 L16.1185317,10.1115612 C15.6749067,10.5949987 15.0444068,10.8736861 14.3887193,10.8777486 C13.7395317,10.8549986 13.1000945,10.6096242 12.6515944,10.1318742 L11.4409691,8.84487363 C11.2955315,8.69049862 11.1192184,8.61737353 10.8876559,8.61087353 C10.6764059,8.61412353 10.4838436,8.70349888 10.3440936,8.86274888 L7.06971849,12.5848118 C6.77315595,12.9219993 6.25965576,12.9544994 5.92246822,12.6579369 L5.92246822,12.6571241 Z" id="Vector" stroke="none" fill="#16A05F" fill-rule="nonzero" mask="url(#mask-cot_g6ndph-4)"></path>
                        <polygon id="Vector" stroke="none" fill="#16A05F" fill-rule="nonzero" mask="url(#mask-cot_g6ndph-4)" points="1.62520921 14.8881893 24.3752092 14.8881893 24.3752092 16.5131893 1.62520921 16.5131893"></polygon>
                    </g>
                </g>
            </g>
        </g>
    </g>
</svg>