<?xml version="1.0" encoding="UTF-8"?>
<svg width="32px" height="32px" viewBox="0 0 32 32" version="1.1" xmlns="http://www.w3.org/2000/svg" xmlns:xlink="http://www.w3.org/1999/xlink">
    <title>Frame 35</title>
    <defs>
        <rect id="path-1" x="0" y="0" width="17.6000004" height="17.6000004"></rect>
    </defs>
    <g id="---↪️-Desktop" stroke="none" stroke-width="1" fill="none" fill-rule="evenodd">
        <g id="Agent-Dashboard-4.0" transform="translate(-813, -3747)">
            <g id="Frame-35" transform="translate(813, 3747)">
                <rect id="Frame-Background" fill="#6A3BB5" fill-rule="nonzero" x="0" y="0" width="32" height="32" rx="16"></rect>
                <g id="fi_2118701" transform="translate(7.1999, 7.2001)">
                    <mask id="mask-2" fill="white">
                        <use xlink:href="#path-1"></use>
                    </mask>
                    <g id="Clip" fill-rule="nonzero"></g>
                    <path d="M16.8665873,13.9333839 C16.8665873,14.1278763 16.7893262,14.314403 16.6517995,14.4519297 C16.5142729,14.5894564 16.3277461,14.6667175 16.133254,14.6667175 L7.33325408,14.6667175 C7.13876198,14.6667175 6.95223593,14.5894564 6.81470925,14.4519297 C6.67718258,14.314403 6.59992076,14.1278763 6.59992076,13.9333839 C6.59992076,12.7664316 7.06349099,11.6472745 7.88865105,10.8221144 C8.71381111,9.99695433 9.83296818,9.53338408 10.9999207,9.53338408 L12.4665874,9.53338408 C13.6335399,9.53338408 14.7526977,9.99695433 15.5778577,10.8221144 C16.4030178,11.6472745 16.8665873,12.7664316 16.8665873,13.9333839 Z M11.7332541,2.93338394 C11.1530955,2.93338394 10.5859659,3.10542083 10.1035817,3.42773963 C9.62119751,3.75005844 9.24522423,4.20818274 9.02320717,4.74417935 C8.80119012,5.28017597 8.74310034,5.86997125 8.85628365,6.43898221 C8.96946696,7.00799318 9.24884001,7.53066338 9.65907403,7.94089741 C10.0693081,8.35113145 10.5919782,8.63050451 11.1609892,8.74368782 C11.7300001,8.85687113 12.3197951,8.79878135 12.8557917,8.57676429 C13.3917883,8.35474723 13.8499125,7.97877394 14.1722313,7.49638974 C14.4945501,7.01400554 14.6665874,6.44687586 14.6665874,5.86671734 C14.6665874,5.08874892 14.3575401,4.34264397 13.8074334,3.79253726 C13.2573267,3.24243055 12.5112224,2.93338394 11.7332541,2.93338394 Z M5.1332541,2.93338394 C4.5530956,2.93338394 3.98596558,3.10542083 3.50358139,3.42773963 C3.02119721,3.75005844 2.64522463,4.20818274 2.42320758,4.74417935 C2.20119052,5.28017597 2.14310074,5.86997125 2.25628405,6.43898221 C2.36946736,7.00799318 2.64884006,7.53066338 3.05907409,7.94089741 C3.46930811,8.35113145 3.99197829,8.63050451 4.56098924,8.74368782 C5.13000019,8.85687113 5.7197958,8.79878135 6.2557924,8.57676429 C6.791789,8.35474723 7.24991259,7.97877394 7.57223139,7.49638974 C7.89455018,7.01400554 8.06658741,6.44687586 8.06658741,5.86671734 C8.06658741,5.08874892 7.75754081,4.34264397 7.20743411,3.79253726 C6.65732742,3.24243055 5.91122249,2.93338394 5.1332541,2.93338394 Z M5.1332541,13.9333839 C5.13216345,13.1630982 5.28392206,12.4002513 5.5797392,11.6890313 C5.87555634,10.9778114 6.30955243,10.3323554 6.8565877,9.79005104 C6.40891325,9.62103108 5.93443901,9.5340853 5.45592081,9.53338408 L4.81058739,9.53338408 C3.72980681,9.53532271 2.69384723,9.96551988 1.92961875,10.7297484 C1.16539027,11.4939769 0.735192759,12.5299365 0.733254135,13.6107171 L0.733254135,13.9333839 C0.733254135,14.1278763 0.810515786,14.314403 0.948042459,14.4519297 C1.08556913,14.5894564 1.27209536,14.6667175 1.46658746,14.6667175 L5.26525397,14.6667175 C5.17987744,14.4315566 5.13523744,14.1835559 5.1332541,13.9333839 Z" id="Vector" fill="#FFFFFF" fill-rule="nonzero" mask="url(#mask-2)"></path>
                </g>
            </g>
        </g>
    </g>
</svg>