<?xml version="1.0" encoding="UTF-8"?>
<svg width="14px" height="14px" viewBox="0 0 14 14" version="1.1" xmlns="http://www.w3.org/2000/svg" xmlns:xlink="http://www.w3.org/1999/xlink">
    <title>Vector</title>
    <g id="---↪️-Desktop" stroke="none" stroke-width="1" fill="none" fill-rule="evenodd">
        <g id="Agent-Dashboard-4.0" transform="translate(-336, -2277)" fill="#1A1D1F">
            <g id="Vector" transform="translate(336.3333, 2277.3334)">
                <path d="M6.66666698,6.66666698 C7.40304664,6.66666698 8,6.06971325 8,5.33333359 C8,4.59695393 7.40304664,4 6.66666698,4 C5.93028733,4 5.33333359,4.59695393 5.33333359,5.33333359 C5.33333359,6.06971325 5.93028733,6.66666698 6.66666698,6.66666698 Z M6.66666698,8 C8.1394263,8 9.33333378,6.8060929 9.33333378,5.33333359 C9.33333378,3.86057427 8.1394263,2.66666679 6.66666698,2.66666679 C5.19390767,2.66666679 4,3.86057427 4,5.33333359 C4,6.8060929 5.19390767,8 6.66666698,8 Z"></path>
                <path d="M11.0392194,11.6992168 C12.4447676,10.4769572 13.333334,8.67558076 13.333334,6.66666698 C13.333334,2.98476837 10.3485659,0 6.66666698,0 C2.98476837,0 0,2.98476837 0,6.66666698 C0,8.67557821 0.888562881,10.4769546 2.29410818,11.6992142 C3.46462298,12.7170912 4.99367928,13.333334 6.66666698,13.333334 C8.277498,13.333334 9.75489345,12.7620309 10.9072868,11.8109912 C10.9517522,11.7742951 10.9957331,11.7370331 11.0392194,11.6992168 Z M6.8386043,11.997282 C6.78151354,11.9990901 6.72419644,12 6.66666698,12 C6.66091379,12 6.65516313,12 6.64941438,11.9999739 C6.59578991,11.9998035 6.54235172,11.9988422 6.48911062,11.9971001 C5.59425444,11.9678287 4.75515674,11.7181135 4.02436625,11.3005046 C4.63453792,10.5087838 5.59213411,10 6.66666444,10 C7.74119414,10 8.69879065,10.5087857 9.30896295,11.3005071 C8.57664403,11.7189883 7.73556492,11.9688739 6.8386043,11.997282 Z M10.3749388,10.4998396 C9.52212633,9.38542919 8.17833431,8.66666708 6.66666444,8.66666708 C5.15499521,8.66666708 3.81120287,9.38542729 2.95839038,10.4998352 C1.95631482,9.53020904 1.3333334,8.17119065 1.3333334,6.66666698 C1.3333334,3.72114803 3.72114803,1.3333334 6.66666698,1.3333334 C9.61218562,1.3333334 12,3.72114803 12,6.66666698 C12,8.17119256 11.3770172,9.53021286 10.3749388,10.4998396 Z"></path>
            </g>
        </g>
    </g>
</svg>