<?xml version="1.0" encoding="UTF-8"?>
<svg width="20px" height="20px" viewBox="0 0 20 20" version="1.1" xmlns="http://www.w3.org/2000/svg" xmlns:xlink="http://www.w3.org/1999/xlink">
    <title>fi_3342176</title>
    <defs>
        <rect id="path-1" x="0" y="0" width="20" height="20"></rect>
    </defs>
    <g id="---↪️-Desktop" stroke="none" stroke-width="1" fill="none" fill-rule="evenodd">
        <g id="Agent-Dashboard-4.0" transform="translate(-661, -2304)">
            <g id="fi_3342176" transform="translate(661, 2304)">
                <mask id="mask-2" fill="white">
                    <use xlink:href="#path-1"></use>
                </mask>
                <g id="Clip" fill-rule="nonzero"></g>
                <g id="Group" mask="url(#mask-2)">
                    <g transform="translate(0.0005, 4.1667)">
                        <g id="Group" fill-rule="evenodd" stroke-width="1" fill="none" transform="translate(-0, 3.2767)">
                            <path d="M5.20784337,8.80666709 C3.87367664,8.80666709 2.68700962,7.95249989 2.25617624,6.68083313 L2.2270097,6.58499998 C2.12534302,6.24833328 2.08284294,5.96500025 2.08284294,5.68166689 L2.08284294,0 L0.0611761381,6.7483342 C-0.198823886,7.74083425 0.393676191,8.7700003 1.3878429,9.04416698 L14.2736763,12.4950012 C14.4345097,12.5366678 14.5953432,12.5566673 14.7536765,12.5566673 C15.5836766,12.5566673 16.3420094,12.0058337 16.5545094,11.1941671 L17.3053436,8.80666709 L5.20784337,8.80666709 Z" id="Vector" fill="#FFFFFF" fill-rule="nonzero"></path>
                        </g>
                        <path d="M7.49950957,3.33333373 C8.41867632,3.33333373 9.16617632,2.58583373 9.16617632,1.66666698 C9.16617632,0.747500237 8.41867632,2.38418579e-07 7.49950957,2.38418579e-07 C6.58034283,2.38418579e-07 5.83284283,0.747500237 5.83284283,1.66666698 C5.83284283,2.58583373 6.58034283,3.33333373 7.49950957,3.33333373 Z" id="Vector" fill="#FFFFFF" fill-rule="nonzero"></path>
                    </g>
                </g>
                <path d="M17.9166675,1.66666627 L5.41666651,1.66666627 C4.26833307,1.66666627 3.33333302,2.6016663 3.33333302,3.7499997 L3.33333302,12.9166668 C3.33333302,14.0650002 4.26833307,15.0000002 5.41666651,15.0000002 L17.9166675,15.0000002 C19.0650009,15.0000002 20.000001,14.0650002 20.000001,12.9166668 L20.000001,3.7499997 C20.000001,2.6016663 19.0650009,1.66666627 17.9166675,1.66666627 Z M5.41666651,3.33333302 L17.9166675,3.33333302 C18.1466675,3.33333302 18.333333,3.5199997 18.333333,3.7499997 L18.333333,9.6658333 L15.7008336,6.59416659 C15.4216669,6.26666657 15.0175006,6.09166636 14.5833339,6.08166636 C14.1516672,6.08416636 13.7466668,6.27583307 13.4700001,6.60749976 L10.3750001,10.3225001 L9.36666662,9.31666689 C8.79666656,8.74666685 7.86916691,8.74666685 7.30000018,9.31666689 L4.99999981,11.6158335 L4.99999981,3.7499997 C4.99999981,3.5199997 5.1866665,3.33333302 5.41666651,3.33333302 Z" id="Vector" fill="#FFFFFF" fill-rule="nonzero" mask="url(#mask-2)"></path>
            </g>
        </g>
    </g>
</svg>