<svg width="42.8398247px" height="44px" viewBox="0 0 42.8398247 44" version="1.1" xmlns="http://www.w3.org/2000/svg" xmlns:xlink="http://www.w3.org/1999/xlink">
    <defs>
        <filter x="-3.6%" y="-7.1%" width="107.2%" height="118.6%" filterUnits="objectBoundingBox" id="filter-ohpg076lbx-1">
            <feMorphology radius="0.5" operator="erode" in="SourceAlpha" result="shadowSpreadOuter1"></feMorphology>
            <feOffset dx="0" dy="3" in="shadowSpreadOuter1" result="shadowOffsetOuter1"></feOffset>
            <feGaussianBlur stdDeviation="4" in="shadowOffsetOuter1" result="shadowBlurOuter1"></feGaussianBlur>
            <feColorMatrix values="0 0 0 0 0.196078435   0 0 0 0 0.196078435   0 0 0 0 0.278431386  0 0 0 0.0500000007 0" type="matrix" in="shadowBlurOuter1" result="shadowMatrixOuter1"></feColorMatrix>
            <feOffset dx="0" dy="0" in="SourceAlpha" result="shadowOffsetOuter2"></feOffset>
            <feGaussianBlur stdDeviation="0.5" in="shadowOffsetOuter2" result="shadowBlurOuter2"></feGaussianBlur>
            <feColorMatrix values="0 0 0 0 0.0470588244   0 0 0 0 0.101960786   0 0 0 0 0.294117659  0 0 0 0.239999995 0" type="matrix" in="shadowBlurOuter2" result="shadowMatrixOuter2"></feColorMatrix>
            <feMerge>
                <feMergeNode in="shadowMatrixOuter1"></feMergeNode>
                <feMergeNode in="shadowMatrixOuter2"></feMergeNode>
                <feMergeNode in="SourceGraphic"></feMergeNode>
            </feMerge>
        </filter>
    </defs>
    <g id="---↪️-Desktop" stroke="none" stroke-width="1" fill="none" fill-rule="evenodd">
        <g id="Agent-Dashboard-4.0" transform="translate(-1056, -1167)" fill-rule="nonzero">
            <g id="Frame-427" transform="translate(1031, 361)">
                <g id="#Sales" filter="url(#filter-ohpg076lbx-1)" transform="translate(0, 782)">
                    <g id="Frame-35" transform="translate(25, 24)">
                        <rect id="Frame-Background" fill="#B981DA" x="0" y="0" width="42.8398247" height="44" rx="21.4199123"></rect>
                        <g id="Vector" transform="translate(10, 10)" fill="#FFFFFF">
                            <path d="M21.4437099,11.9790037 L13.9430888,11.9790037 C13.1750252,11.9790037 12.5509745,12.6030558 12.5509745,13.3631188 L12.5509745,22.6158857 C12.5509745,23.379949 13.1750252,24 13.9430888,24 L21.4437099,24 C22.2117735,24 22.8398247,23.379949 22.8398247,22.6158857 L22.8398247,13.3631188 C22.8398247,12.6030558 22.2117735,11.9790037 21.4437099,11.9790037 Z M15.6112262,22.2838575 L14.7231522,22.2838575 C14.503134,22.2838575 14.3231191,22.1038426 14.3231191,21.8838243 C14.3231191,21.6638061 14.503134,21.4837912 14.7231522,21.4837912 L15.6112262,21.4837912 C15.8312444,21.4837912 16.0112593,21.6638061 16.0112593,21.8838243 C16.0112593,22.1038426 15.8312444,22.2838575 15.6112262,22.2838575 Z M15.6112262,20.2196865 L14.7231522,20.2196865 C14.503134,20.2196865 14.3231191,20.0436719 14.3231191,19.8196534 C14.3231191,19.5956348 14.503134,19.4196202 14.7231522,19.4196202 L15.6112262,19.4196202 C15.8312444,19.4196202 16.0112593,19.5996352 16.0112593,19.8196534 C16.0112593,20.0396716 15.8312444,20.2196865 15.6112262,20.2196865 Z M15.6112262,18.1595168 L14.7231522,18.1595168 C14.503134,18.1595168 14.3231191,17.9795019 14.3231191,17.7594836 C14.3231191,17.5394654 14.503134,17.3594505 14.7231522,17.3594505 L15.6112262,17.3594505 C15.8312444,17.3594505 16.0112593,17.5394654 16.0112593,17.7594836 C16.0112593,17.9795019 15.8312444,18.1595168 15.6112262,18.1595168 Z M18.1394354,22.2838575 L17.2513629,22.2838575 C17.0273444,22.2838575 16.8513298,22.1038426 16.8513298,21.8838243 C16.8513298,21.6638061 17.0273444,21.4837912 17.2513629,21.4837912 L18.1394354,21.4837912 C18.3594537,21.4837912 18.5394686,21.6638061 18.5394686,21.8838243 C18.5394686,22.1038426 18.3594537,22.2838575 18.1394354,22.2838575 Z M18.1394354,20.2196865 L17.2513629,20.2196865 C17.0273444,20.2196865 16.8513298,20.0436719 16.8513298,19.8196534 C16.8513298,19.5956348 17.0273444,19.4196202 17.2513629,19.4196202 L18.1394354,19.4196202 C18.3594537,19.4196202 18.5394686,19.5996352 18.5394686,19.8196534 C18.5394686,20.0396716 18.3594537,20.2196865 18.1394354,20.2196865 Z M18.1394354,18.1595168 L17.2513629,18.1595168 C17.0273444,18.1595168 16.8513298,17.9795019 16.8513298,17.7594836 C16.8513298,17.5394654 17.0273444,17.3594505 17.2513629,17.3594505 L18.1394354,17.3594505 C18.3594537,17.3594505 18.5394686,17.5394654 18.5394686,17.7594836 C18.5394686,17.9795019 18.3594537,18.1595168 18.1394354,18.1595168 Z M20.663645,22.2838575 L19.775571,22.2838575 C19.5555528,22.2838575 19.3755379,22.1038426 19.3755379,21.8838243 C19.3755379,21.6638061 19.5555528,21.4837912 19.775571,21.4837912 L20.663645,21.4837912 C20.8876636,21.4837912 21.0636781,21.6638061 21.0636781,21.8838243 C21.0636781,22.1038426 20.8876636,22.2838575 20.663645,22.2838575 Z M20.663645,20.2196865 L19.775571,20.2196865 C19.5555528,20.2196865 19.3755379,20.0436719 19.3755379,19.8196534 C19.3755379,19.5956348 19.5555528,19.4196202 19.775571,19.4196202 L20.663645,19.4196202 C20.8876636,19.4196202 21.0636781,19.5996352 21.0636781,19.8196534 C21.0636781,20.0396716 20.8876636,20.2196865 20.663645,20.2196865 Z M20.663645,18.1595168 L19.775571,18.1595168 C19.5555528,18.1595168 19.3755379,17.9795019 19.3755379,17.7594836 C19.3755379,17.5394654 19.5555528,17.3594505 19.775571,17.3594505 L20.663645,17.3594505 C20.8876636,17.3594505 21.0636781,17.5394654 21.0636781,17.7594836 C21.0636781,17.9795019 20.8876636,18.1595168 20.663645,18.1595168 Z M21.3477013,15.6953127 C21.3477013,16.0513422 21.0556775,16.3433659 20.6996481,16.3433659 L14.6911503,16.3433659 C14.3311205,16.3433659 14.0430971,16.0513422 14.0430971,15.6953127 L14.0430971,14.3432003 C14.0430971,13.9871708 14.3311205,13.695147 14.6911503,13.695147 L20.6996481,13.695147 C21.0556775,13.695147 21.3477013,13.9871708 21.3477013,14.3432003 L21.3477013,15.6953127 Z"></path>
                            <path d="M18.0914319,11.1789374 L18.0914319,9.14676909 L19.0955144,9.14676909 C19.4595445,9.14676909 19.7675698,8.92675027 19.8875798,8.58672209 C20.0075897,8.24669391 19.9035812,7.88266398 19.623558,7.66264575 L10.5068042,0.202028107 C10.1987787,-0.0659941031 9.74674122,-0.0659940912 9.43871572,0.19402744 L0.309959783,7.65864533 C0.0299365992,7.88666421 -0.0700717151,8.24669391 0.0499382275,8.58672209 C0.16994817,8.92675027 0.477973702,9.14676909 0.834003179,9.14676909 L1.84608679,9.14676909 L1.84608679,18.2715256 C1.84608679,18.4915438 2.02610169,18.6715587 2.24611991,18.6715587 L11.7509082,18.6715587 L11.7509082,13.3631188 C11.7509082,12.159019 12.7349888,11.1789374 13.9430888,11.1789374 L18.0914319,11.1789374 Z M8.9266738,7.07459731 C9.07868639,7.18660659 9.39871278,7.3546202 10.0547671,7.4946318 C10.6988204,7.6346434 11.1668584,7.8186585 11.4868849,8.05467804 C11.838914,8.31869993 12.0189297,8.69073084 12.0189297,9.1587696 C12.0189297,9.62680836 11.8229131,10.0148406 11.4388813,10.3268664 C11.1548578,10.5628859 10.7908283,10.7028974 10.3667932,10.7549017 L10.3667932,11.430958 C10.3667932,11.6509762 10.1907786,11.8309911 9.96676008,11.8309911 C9.74274153,11.8309911 9.56672696,11.6509762 9.56672696,11.430958 L9.56672696,10.7509013 C9.13469116,10.6948967 8.7666603,10.5428844 8.48263679,10.2988642 C8.13460797,10.00684 7.94259213,9.63880982 7.91859014,9.21077434 C7.90658915,8.9907561 8.07460327,8.80274007 8.29462149,8.79073908 C8.51864005,8.78273842 8.7066554,8.94675221 8.71865639,9.16677045 C8.73065739,9.37478767 8.81466465,9.53480073 8.99867989,9.69081365 C9.22669877,9.88282955 9.56272649,9.97883799 9.99476228,9.97883799 C10.3947954,9.97883799 10.7108217,9.88683025 10.9348403,9.70681534 C11.1308565,9.54680208 11.2188634,9.37878783 11.2188634,9.1587696 C11.2188634,8.88674706 11.1108543,8.77473794 11.010846,8.69873164 C10.8588334,8.58272203 10.5388071,8.41870866 9.88275273,8.27469673 C9.23869939,8.13468513 8.76666025,7.95467038 8.44663375,7.71465048 C8.09860493,7.45462895 7.91859014,7.08259801 7.91859014,6.61055893 C7.91859014,6.13851984 8.11460659,5.75848832 8.49463806,5.44246213 C8.78266192,5.21044291 9.14269187,5.0664311 9.56672696,5.01442679 L9.56672696,4.33837095 C9.56672696,4.11835272 9.74674186,3.93833781 9.96676008,3.93833781 C10.1867783,3.93833781 10.3667932,4.11835272 10.3667932,4.33837095 L10.3667932,5.01842721 C10.8028293,5.07843219 11.1668592,5.22644449 11.454883,5.47046471 C11.8029119,5.76248891 11.9909274,6.13051871 12.0189297,6.55855419 C12.0309307,6.77857242 11.8629173,6.96658845 11.6428991,6.97858945 C11.4268812,6.99459077 11.2308644,6.82657664 11.2188634,6.60255808 C11.2068624,6.39454086 11.1188548,6.23452751 10.9388399,6.08251492 C10.7108211,5.88649868 10.3747933,5.79049091 9.94275755,5.79049091 C9.54272442,5.79049091 9.2266981,5.88249866 9.00267955,6.06251357 C8.80666331,6.22252683 8.71865639,6.3905407 8.71865639,6.61055893 C8.71865639,6.88258146 8.82266519,6.99859101 8.9266738,7.07459731 Z"></path>
                        </g>
                    </g>
                </g>
            </g>
        </g>
    </g>
</svg>