<?xml version="1.0" encoding="UTF-8"?>
<svg width="20px" height="20px" viewBox="0 0 20 20" version="1.1" xmlns="http://www.w3.org/2000/svg" xmlns:xlink="http://www.w3.org/1999/xlink">
    <title>fi_15093177</title>
    <defs>
        <rect id="path-1" x="0" y="0" width="20" height="20"></rect>
    </defs>
    <g id="---↪️-Desktop" stroke="none" stroke-width="1" fill="none" fill-rule="evenodd">
        <g id="Agent-Dashboard-4.0" transform="translate(-239, -2466)">
            <g id="fi_15093177" transform="translate(239, 2466)">
                <mask id="mask-2" fill="white">
                    <use xlink:href="#path-1"></use>
                </mask>
                <g id="Clip" fill-rule="nonzero"></g>
                <g id="GLYPH" mask="url(#mask-2)" fill="#7A2FD9" fill-rule="nonzero">
                    <path d="M19.3953121,5.07265627 C18.8707027,3.13984379 16.8605466,1.1296875 14.9277341,0.605078116 C13.7429685,0.309374984 12.1550781,0.00507812481 10,0 C7.84531251,0.00546875002 6.2574219,0.309374984 5.07265627,0.605078116 C3.13984379,1.1300781 1.1296875,3.13984379 0.605078116,5.07265627 C0.309374984,6.2574219 0.00546875002,7.84531251 0,10 C0.00546875002,12.1550781 0.309374984,13.7429685 0.605078116,14.9277341 C1.1296875,16.8605466 3.13984379,18.8703121 5.07265627,19.3953121 C6.2574219,19.6910152 7.84609377,19.9949223 10,20.000391 C12.1550781,19.9949223 13.7429685,19.6910152 14.9277341,19.3953121 C16.8605466,18.8703121 18.8707027,16.8605466 19.3953121,14.9277341 C19.6910152,13.7429685 19.9949223,12.1542969 20.000391,10 C19.9949223,7.84531251 19.6910152,6.2574219 19.3953121,5.07265627 Z M16.648047,10.4847658 C16.6475788,10.6477799 16.5834392,10.80416 16.4693069,10.9205544 C16.3551747,11.0369488 16.2000824,11.1041448 16.0371089,11.1078119 C15.953487,11.1079154 15.8706697,11.0914956 15.7934129,11.0594952 C15.7161561,11.0274949 15.6459828,10.9805458 15.5869257,10.9213436 C15.5278687,10.8621414 15.4810913,10.791853 15.4492807,10.7145178 C15.4174702,10.6371827 15.4012536,10.554324 15.4015625,10.4707026 L15.4015625,8.58281255 L11.7386723,12.2453129 C11.6215544,12.3618387 11.4630633,12.4272525 11.2978518,12.4272525 C11.1326403,12.4272525 10.9741492,12.3618387 10.8570313,12.2453129 L8.20976555,9.59765613 L4.43281263,13.3746099 C4.37667827,13.4397432 4.30770804,13.492593 4.23021585,13.5298538 C4.15272366,13.5671147 4.06837639,13.5879841 3.98245007,13.5911584 C3.89652374,13.5943326 3.81086669,13.5797432 3.73083651,13.5483015 C3.65080633,13.5168598 3.5781248,13.4692424 3.51733774,13.4084284 C3.45655068,13.3476144 3.40896572,13.2749115 3.37755948,13.1948674 C3.34615325,13.1148233 3.33160138,13.0291605 3.33481371,12.9432356 C3.33802605,12.8573107 3.35893367,12.7729729 3.39622885,12.6954973 C3.43352403,12.6180216 3.48640429,12.5490745 3.55156243,12.492969 L7.77031243,8.27421904 C7.88741396,8.1578122 8.0458213,8.09247315 8.21093738,8.09247315 C8.37605346,8.09247315 8.5344608,8.1578122 8.65156233,8.27421904 L11.2988281,10.9214842 L14.5214844,7.69999981 L12.6171875,7.69999981 C12.5314063,7.706447 12.4452184,7.69511673 12.364018,7.66671836 C12.2828176,7.63832 12.2083537,7.5934654 12.145288,7.5349617 C12.0822222,7.476458 12.031912,7.40556519 11.9975078,7.32672155 C11.9631036,7.2478779 11.9453454,7.16278064 11.9453454,7.07675755 C11.9453454,6.99073446 11.9631036,6.90563779 11.9975078,6.82679415 C12.031912,6.7479505 12.0822222,6.67705769 12.145288,6.618554 C12.2083537,6.5600503 12.2828176,6.5151951 12.364018,6.48679674 C12.4452184,6.45839837 12.5314063,6.44706869 12.6171875,6.45351589 L16.007812,6.45351589 C16.1777523,6.45351586 16.3407383,6.52099759 16.4609408,6.64112687 C16.5811434,6.76125615 16.6487242,6.92420043 16.6488278,7.09414065 L16.648047,10.4847658 Z" id="Vector"></path>
                </g>
            </g>
        </g>
    </g>
</svg>