<?xml version="1.0" encoding="UTF-8"?>
<svg width="20px" height="20px" viewBox="0 0 20 20" version="1.1" xmlns="http://www.w3.org/2000/svg" xmlns:xlink="http://www.w3.org/1999/xlink">
    <title>fi_6839933</title>
    <defs>
        <rect id="path-1" x="0" y="0" width="20" height="20"></rect>
    </defs>
    <g id="---↪️-Desktop" stroke="none" stroke-width="1" fill="none" fill-rule="evenodd">
        <g id="Agent-Dashboard-4.0" transform="translate(-661, -2234)">
            <g id="fi_6839933" transform="translate(661, 2234)">
                <mask id="mask-2" fill="white">
                    <use xlink:href="#path-1"></use>
                </mask>
                <g id="Clip" fill-rule="nonzero"></g>
                <path d="M5.18118128,18.806643 C5.69641946,18.2778187 5.98263164,17.5673335 5.97790527,16.8290229 C5.97306089,16.0907122 5.67766303,15.3839967 5.15561327,14.8618956 C4.63356351,14.3397945 3.9268774,14.0443276 3.18856723,14.0394695 C2.45025706,14.0346115 1.73974366,14.3207529 1.21086865,14.835939 C0.429618615,15.617189 0.122196718,16.8281264 0.0245404641,17.9218764 C-0.0309435927,18.5420338 -0.0274121152,19.1660595 0.0350873388,19.7855492 C0.0518842147,19.9417992 0.201102977,19.9757835 0.226884229,19.9808617 L0.234306107,19.9808617 C0.297196735,19.9832054 1.19446239,20.000783 1.4710249,19.1269548 C1.52036272,18.9637255 1.59326699,18.8085734 1.68743119,18.6664076 C1.86829058,18.3996107 2.28508742,18.5601581 2.23899367,18.8792987 C2.19413156,19.2119626 2.26295575,19.5500269 2.43430618,19.8386736 C2.45327955,19.8706487 2.48138516,19.896217 2.51500789,19.9120886 C2.54863063,19.9279602 2.58623291,19.9334092 2.62297814,19.927736 C3.56086881,19.7863298 4.52297811,19.4648461 5.18118128,18.806643 Z" id="Vector" fill="#FFFFFF" fill-rule="nonzero" mask="url(#mask-2)"></path>
                <path d="M14.2785238,15.6203218 L14.2785238,13.2003995 C14.568628,12.9511807 14.8523523,12.6884206 15.129696,12.4121185 L15.8984457,11.6445406 C18.7750082,8.76641562 20.1793054,5.07813369 19.9820398,1.76485245 C19.9238367,0.79024305 19.2273523,0.0933680022 18.2523524,0.0351648768 C14.9410244,-0.162100756 11.2500082,1.24219616 8.37266433,4.11993047 L7.60508645,4.88750865 C7.32852395,5.16407115 7.06576322,5.44792514 6.81680489,5.73907097 L4.39688313,5.73907097 C3.88321127,5.75860222 3.42891435,6.05508664 3.17188311,6.48985227 L1.74922693,9.33594604 C1.71176856,9.43812944 1.68557186,9.54409495 1.67110193,9.65196153 C1.67333124,9.83474491 1.74693261,10.009414 1.87618959,10.138671 C2.00544657,10.267928 2.18011554,10.3415293 2.36289892,10.3437587 L4.15977377,10.3437587 C3.92539877,11.1289149 4.08164873,11.9007909 4.58086747,12.3992284 L7.61719573,15.4359468 C8.11563323,15.9347749 8.88750802,16.0902436 9.67266428,15.8570405 L9.67266428,17.6539155 C9.6748936,17.8366989 9.74849496,18.0113674 9.87775195,18.1406244 C10.0070089,18.2698813 10.1816774,18.3434827 10.3644608,18.345712 C10.4723274,18.3312421 10.5782941,18.3050454 10.6804775,18.267587 L13.5257899,16.8449314 C13.962118,16.5886814 14.2578207,16.1328218 14.2785238,15.6203218 Z M12.6093827,7.40782102 C12.208082,7.00650574 11.9347963,6.49520421 11.8240832,5.93857249 C11.7133701,5.38194077 11.7702029,4.80497891 11.987394,4.28064664 C12.204585,3.75631438 12.5723792,3.30816088 13.044269,2.9928573 C13.5161587,2.67755372 14.0709493,2.50926142 14.6384846,2.50926142 C15.2060199,2.50926142 15.7608105,2.67755372 16.2327002,2.9928573 C16.70459,3.30816088 17.0723853,3.75631438 17.2895764,4.28064664 C17.5067675,4.80497891 17.5635991,5.38194077 17.452886,5.93857249 C17.3421729,6.49520421 17.0688872,7.00650574 16.6675864,7.40782102 C16.4011245,7.67429258 16.0847853,7.88566979 15.736631,8.0298837 C15.3884767,8.17409762 15.0153255,8.248324 14.6384846,8.248324 C14.2616437,8.248324 13.8884937,8.17409762 13.5403394,8.0298837 C13.192185,7.88566979 12.8758447,7.67429258 12.6093827,7.40782102 Z" id="Vector" fill="#FFFFFF" fill-rule="nonzero" mask="url(#mask-2)"></path>
            </g>
        </g>
    </g>
</svg>