<svg width="40" height="40" viewBox="0 0 40 40" fill="none" xmlns="http://www.w3.org/2000/svg">
<rect width="40" height="40" rx="20" fill="#E3FBF0"/>
<g clip-path="url(#clip0_385_4235)">
<path d="M20.288 8.78796C13.9471 8.78796 8.78796 13.9471 8.78796 20.288C8.78796 26.6288 13.9471 31.788 20.288 31.788C26.6288 31.788 31.788 26.6288 31.788 20.288C31.788 13.9471 26.6288 8.78796 20.288 8.78796ZM26.7153 17.2616L19.3657 24.5536C18.9333 24.986 18.2416 25.0148 17.7804 24.5824L13.8895 21.0373C13.4283 20.605 13.3995 19.8845 13.803 19.4233C14.2353 18.9621 14.9559 18.9333 15.417 19.3657L18.501 22.1902L25.0724 15.6188C25.5336 15.1576 26.2541 15.1576 26.7153 15.6188C27.1764 16.0799 27.1764 16.8005 26.7153 17.2616Z" fill="#1DBF73"/>
</g>
<defs>
<clipPath id="clip0_385_4235">
<rect width="24" height="24" fill="white" transform="translate(8 8)"/>
</clipPath>
</defs>
</svg>
