<svg width="40" height="40" viewBox="0 0 40 40" fill="none" xmlns="http://www.w3.org/2000/svg">
<rect width="40" height="40" rx="20" fill="#F79031" fill-opacity="0.2"/>
<path d="M29.1537 24.7734L22.4062 12.3697C21.3221 10.5446 18.6793 10.5422 17.5938 12.3697L10.8466 24.7734C9.73833 26.6384 11.0801 29 13.2522 29H26.7475C28.9178 29 30.262 26.6403 29.1537 24.7734ZM20 26.7616C19.383 26.7616 18.8808 26.2593 18.8808 25.6424C18.8808 25.0254 19.383 24.5232 20 24.5232C20.617 24.5232 21.1192 25.0254 21.1192 25.6424C21.1192 26.2593 20.617 26.7616 20 26.7616ZM21.1192 22.2847C21.1192 22.9017 20.617 23.4039 20 23.4039C19.383 23.4039 18.8808 22.9017 18.8808 22.2847V16.6887C18.8808 16.0717 19.383 15.5695 20 15.5695C20.617 15.5695 21.1192 16.0717 21.1192 16.6887V22.2847Z" fill="#F79031"/>
</svg>
