<?xml version="1.0" encoding="UTF-8"?>
<svg width="16px" height="16px" viewBox="0 0 16 16" version="1.1" xmlns="http://www.w3.org/2000/svg" xmlns:xlink="http://www.w3.org/1999/xlink">
    <title>UI icon/arrow_up_down/filled</title>
    <defs>
        <rect id="path-1" x="0" y="0" width="16" height="16"></rect>
    </defs>
    <g id="---↪️-Desktop" stroke="none" stroke-width="1" fill="none" fill-rule="evenodd">
        <g id="Agent-Dashboard-4.0" transform="translate(-504, -2276)">
            <g id="UI-icon/arrow_up_down/filled" transform="translate(504, 2276)">
                <mask id="mask-2" fill="white">
                    <use xlink:href="#path-1"></use>
                </mask>
                <g id="Clip" fill-rule="nonzero"></g>
                <path d="M2.47140465,6.13805215 C2.21105512,6.39840174 1.78894508,6.39840174 1.52859554,6.13805215 C1.26824597,5.87770287 1.26824597,5.45559263 1.52859554,5.1952432 L3.72385819,2.99998077 C4.24455788,2.47928095 5.08877744,2.47928254 5.60947602,2.99998109 L7.80473808,5.1952432 C8.065088,5.45559263 8.065088,5.87770287 7.80473808,6.13805215 C7.54438879,6.39840174 7.12227853,6.39840174 6.86192924,6.13805215 L5.33333337,4.60945654 L5.33333337,12.6666478 C5.33333337,13.0348379 5.03485669,13.3333144 4.66666687,13.3333144 C4.29847704,13.3333144 4.00000017,13.0348379 4.00000017,12.6666478 L4.00000017,4.60945654 L2.47140465,6.13805215 Z" id="Union" fill="#1A1D1F" fill-rule="nonzero" mask="url(#mask-2)"></path>
                <path d="M12,3.33333341 C12,2.96514356 11.7015233,2.66666675 11.3333335,2.66666675 C10.9651437,2.66666675 10.6666666,2.96514356 10.6666666,3.33333341 L10.6666666,11.390524 L9.13807127,9.86192902 C8.87772175,9.60157911 8.45561169,9.60157911 8.19526216,9.86192902 C7.9349126,10.1222783 7.9349126,10.5443885 8.19526216,10.8047378 L10.3905248,13.0000001 C10.9112243,13.5206999 11.7554444,13.5206986 12.276143,13.0000001 L14.4714047,10.8047378 C14.7317546,10.5443885 14.7317546,10.1222783 14.4714047,9.86192902 C14.2110554,9.60157911 13.7889452,9.60157911 13.5285959,9.86192902 L12,11.3905253 L12,3.33333341 Z" id="Union" fill="#1A1D1F" fill-rule="nonzero" mask="url(#mask-2)"></path>
            </g>
        </g>
    </g>
</svg>