<?xml version="1.0" encoding="UTF-8"?>
<svg width="48px" height="48px" viewBox="0 0 48 48" version="1.1" xmlns="http://www.w3.org/2000/svg" xmlns:xlink="http://www.w3.org/1999/xlink">
    <title>Group 3</title>
    <defs>
        <rect id="path-1" x="0" y="0" width="29.5384617" height="29.5384617"></rect>
    </defs>
    <g id="---↪️-Desktop" stroke="none" stroke-width="1" fill="none" fill-rule="evenodd">
        <g id="Agent-Dashboard-4.0" transform="translate(-1307, -637)">
            <g id="Group-3" transform="translate(1307, 637)">
                <rect id="Frame-Background-Copy" fill="#FFFFFF" fill-rule="nonzero" x="0" y="0" width="48" height="48" rx="24"></rect>
                <g id="fi_3670051-copy" transform="translate(9.2308, 9.2308)">
                    <mask id="mask-2" fill="white">
                        <use xlink:href="#path-1"></use>
                    </mask>
                    <g id="Clip" fill-rule="nonzero"></g>
                    <g id="Layer-2" mask="url(#mask-2)" fill-rule="nonzero">
                        <g id="09.whatsapp">
                            <path d="M29.5384617,14.7692308 C29.5384617,22.926052 22.926052,29.5384617 14.7692308,29.5384617 C6.61240972,29.5384617 0,22.926052 0,14.7692308 C0,6.61240972 6.61240972,0 14.7692308,0 C22.926052,0 29.5384617,6.61240972 29.5384617,14.7692308 Z" id="background" fill="#29A71A"></path>
                            <g id="icon" transform="translate(5.6143, 5.5427)" fill="#FFFFFF">
                                <path d="M15.6667936,2.71473608 C14.1301797,1.16278917 12.089559,0.211031141 9.91301145,0.031136799 C7.7364639,-0.148757543 5.56727435,0.455053956 3.79671182,1.73365863 C2.02614928,3.0122633 0.770772003,4.88148961 0.257021022,7.00417234 C-0.256729958,9.12685506 0.00496609571,11.3632553 0.994904705,13.3099816 L0.0231562799,18.0277445 C0.0130733427,18.0747007 0.0127877531,18.1232314 0.02231758,18.170303 C0.031847407,18.2173746 0.0509873039,18.2619752 0.0785405635,18.3013118 C0.118904194,18.361011 0.176520743,18.4069729 0.243695938,18.4330632 C0.310871132,18.4591536 0.384407707,18.4641297 0.454484909,18.447325 L5.07826126,17.351381 C7.01951315,18.3162583 9.24012781,18.5611258 11.3449756,18.0424134 C13.4498235,17.5237011 15.3023815,16.2750527 16.5730095,14.5186494 C17.8436375,12.7622462 18.4499211,10.6120114 18.2839803,8.45055078 C18.1180395,6.28909018 17.190638,4.25660051 15.6667936,2.71473608 Z M14.2251146,14.2213104 C13.1619335,15.2815019 11.7928747,15.9813486 10.3108702,16.2222271 C8.82886571,16.4631055 7.30863525,16.232871 5.96441492,15.5639679 L5.31994,15.2450865 L2.48525392,15.9164153 L2.49364605,15.8811707 L3.08105881,13.0280235 L2.76553414,12.4053662 C2.07869727,11.0564513 1.83640656,9.5247633 2.07337097,8.02971674 C2.31033538,6.53467017 3.01439609,5.15297743 4.08469511,4.08256803 C5.42954255,2.73813629 7.25329738,1.98287736 9.15490485,1.98287736 C11.0565123,1.98287736 12.8802672,2.73813629 14.2251146,4.08256803 C14.2365672,4.09570209 14.2489038,4.10803871 14.2620379,4.11949131 C15.5902141,5.46738829 16.3316683,7.28570007 16.3247518,9.1780084 C16.3178352,11.0703167 15.5631085,12.8831586 14.2251146,14.2213104 Z" id="Vector"></path>
                                <path d="M13.9733606,12.1283897 C13.625948,12.6755226 13.0771373,13.3451725 12.387347,13.5113264 C11.1789554,13.8033544 9.32440972,13.5213959 7.01671734,11.3697876 L6.98818489,11.3446138 C4.95909389,9.46321523 4.43210129,7.89734042 4.55965374,6.65538239 C4.63014325,5.95048733 5.21755571,5.3127252 5.71266063,4.89650143 C5.79093564,4.8296956 5.88375729,4.78213153 5.98370155,4.75761337 C6.08364581,4.73309521 6.1879404,4.73230277 6.28824565,4.75529959 C6.3885509,4.7782964 6.48208375,4.82444485 6.56136475,4.89005368 C6.64064575,4.95566251 6.70347483,5.0389118 6.74482876,5.13314474 L7.49168125,6.81146635 C7.54021349,6.92028875 7.55820073,7.04027087 7.54371266,7.15854084 C7.52922459,7.27681082 7.48280836,7.38890496 7.40944385,7.48279501 L7.03182162,7.97286463 C6.95079464,8.07405524 6.90190193,8.19717711 6.8914335,8.3263875 C6.88096506,8.45559789 6.90940013,8.58498493 6.97308061,8.69789953 C7.18454915,9.06880862 7.69140171,9.61426367 8.25363948,10.1194385 C8.88468845,10.6900679 9.58454886,11.2120258 10.0276258,11.3899279 C10.1461847,11.438364 10.2765335,11.4501825 10.4018704,11.4238588 C10.5272072,11.3975351 10.6417875,11.3342761 10.730843,11.2422361 L11.1688851,10.8008367 C11.2534081,10.7174915 11.3585183,10.6580482 11.4735022,10.6285652 C11.5884861,10.5990821 11.709232,10.6006137 11.8234308,10.6330045 L13.5974169,11.136501 C13.6952735,11.1665193 13.7849708,11.2185175 13.8596495,11.2885182 C13.9343283,11.358519 13.9920113,11.4446686 14.0282884,11.5403817 C14.0645654,11.6360948 14.0784757,11.7388366 14.0689557,11.8407502 C14.0594357,11.9426639 14.0267369,12.0410513 13.9733606,12.1283897 Z" id="Vector"></path>
                            </g>
                        </g>
                    </g>
                </g>
            </g>
        </g>
    </g>
</svg>